<svg width="12" height="12" viewBox="0 0 12 12" fill="none" xmlns="http://www.w3.org/2000/svg">
<g clip-path="url(#clip0_309_5506)">
<path fill-rule="evenodd" clip-rule="evenodd" d="M6.00092 0C2.68985 0 0 2.688 0 5.99908C0 9.31015 2.68985 12 6.00092 12C9.312 12 12 9.31015 12 5.99908C12 2.688 9.312 0 6.00092 0ZM6.00092 0.461538C6.72826 0.461053 7.44856 0.603954 8.12062 0.88207C8.79269 1.16019 9.40333 1.56806 9.91764 2.08236C10.4319 2.59667 10.8398 3.20731 11.1179 3.87938C11.396 4.55144 11.5389 5.27174 11.5385 5.99908C11.5385 9.06046 9.06231 11.5375 6.00092 11.5375C2.93954 11.5375 0.461538 9.06046 0.461538 5.99908C0.461538 2.93769 2.93954 0.461538 6.00092 0.461538ZM8.54031 4.30338C8.48825 4.30369 8.43783 4.32158 8.39723 4.35415L4.89646 7.05462L3.64569 5.50708C3.62717 5.48212 3.6038 5.46116 3.57698 5.44546C3.55016 5.42976 3.52044 5.41964 3.48961 5.4157C3.45878 5.41176 3.42748 5.4141 3.39757 5.42256C3.36767 5.43102 3.33978 5.44543 3.31558 5.46493C3.29138 5.48443 3.27137 5.50862 3.25675 5.53605C3.24213 5.56347 3.2332 5.59357 3.23049 5.62453C3.22779 5.65549 3.23136 5.68668 3.24101 5.71622C3.25065 5.74577 3.26616 5.77306 3.28662 5.79646L4.82077 7.69662L8.68015 4.71923C8.719 4.6901 8.74766 4.64946 8.76207 4.60309C8.77648 4.55673 8.7759 4.507 8.7604 4.46098C8.74491 4.41496 8.7153 4.37501 8.67579 4.3468C8.63627 4.31858 8.58886 4.30309 8.54031 4.30338Z" fill="white"/>
</g>
<defs>
<clipPath id="clip0_309_5506">
<rect width="12" height="12" fill="white"/>
</clipPath>
</defs>
</svg>
