<svg width="42" height="28" viewBox="0 0 42 28" fill="none" xmlns="http://www.w3.org/2000/svg">
<path d="M8.71538 7.0274H14.7644C14.8238 7.0274 14.8826 7.01958 14.9375 7.00439C14.9923 6.98919 15.0422 6.96692 15.0842 6.93884C15.1262 6.91076 15.1595 6.87743 15.1822 6.84074C15.205 6.80405 15.2167 6.76474 15.2167 6.72503V4.09876C15.2168 4.05903 15.2052 4.01968 15.1825 3.98297C15.1598 3.94625 15.1265 3.91289 15.0844 3.88479C15.0424 3.8567 14.9925 3.83443 14.9376 3.81926C14.8827 3.80409 14.8238 3.79632 14.7644 3.79639H8.71538C8.65596 3.79632 8.5971 3.80409 8.54218 3.81926C8.48726 3.83443 8.43735 3.8567 8.39533 3.88479C8.35332 3.91289 8.32 3.94625 8.29731 3.98297C8.27462 4.01968 8.26299 4.05903 8.2631 4.09876V6.72503C8.2631 6.76474 8.2748 6.80405 8.29753 6.84074C8.32025 6.87743 8.35357 6.91076 8.39557 6.93884C8.43757 6.96692 8.48743 6.98919 8.5423 7.00439C8.59717 7.01958 8.65599 7.0274 8.71538 7.0274ZM9.16687 4.40061H14.3169V6.42265H9.16687V4.40061ZM16.4416 7.0274H22.4914C22.6113 7.0274 22.7264 6.99555 22.8112 6.93884C22.896 6.88213 22.9437 6.80522 22.9437 6.72503V4.09876C22.9438 4.05903 22.9321 4.01968 22.9095 3.98297C22.8868 3.94625 22.8535 3.91289 22.8114 3.88479C22.7694 3.8567 22.7195 3.83443 22.6646 3.81926C22.6097 3.80409 22.5508 3.79632 22.4914 3.79639H16.4416C16.3822 3.79639 16.3234 3.80421 16.2686 3.81941C16.2138 3.83462 16.164 3.8569 16.122 3.88498C16.0801 3.91307 16.0469 3.94641 16.0242 3.98309C16.0016 4.01977 15.99 4.05908 15.9901 4.09876V6.72503C15.99 6.76471 16.0016 6.80402 16.0242 6.8407C16.0469 6.87738 16.0801 6.91072 16.122 6.93881C16.164 6.96689 16.2138 6.98917 16.2686 7.00438C16.3234 7.01958 16.3822 7.0274 16.4416 7.0274ZM16.8939 4.40061H22.0399V6.42265H16.8939V4.40061ZM24.1733 7.0274H30.2231C30.2825 7.0274 30.3413 7.01958 30.3961 7.00438C30.4509 6.98917 30.5007 6.96689 30.5427 6.93881C30.5846 6.91072 30.6179 6.87738 30.6405 6.8407C30.6631 6.80402 30.6747 6.76471 30.6746 6.72503V4.09876C30.6747 4.05908 30.6631 4.01977 30.6405 3.98309C30.6179 3.94641 30.5846 3.91307 30.5427 3.88498C30.5007 3.8569 30.4509 3.83462 30.3961 3.81941C30.3413 3.80421 30.2825 3.79639 30.2231 3.79639H24.1733C24.1139 3.79632 24.0551 3.80409 24.0001 3.81926C23.9452 3.83443 23.8953 3.8567 23.8533 3.88479C23.8113 3.91289 23.778 3.94625 23.7553 3.98297C23.7326 4.01968 23.721 4.05903 23.7211 4.09876V6.72503C23.7211 6.76474 23.7328 6.80405 23.7555 6.84074C23.7782 6.87743 23.8115 6.91076 23.8535 6.93884C23.8955 6.96692 23.9454 6.98919 24.0003 7.00439C24.0551 7.01958 24.1139 7.0274 24.1733 7.0274ZM24.6248 4.40061H29.7709V6.42265H24.6209L24.6248 4.40061ZM31.8964 7.0274H37.9454C38.0653 7.0274 38.1804 6.99555 38.2652 6.93884C38.35 6.88213 38.3977 6.80522 38.3977 6.72503V4.09876C38.3978 4.05903 38.3861 4.01968 38.3634 3.98297C38.3407 3.94625 38.3074 3.91289 38.2654 3.88479C38.2234 3.8567 38.1735 3.83443 38.1186 3.81926C38.0637 3.80409 38.0048 3.79632 37.9454 3.79639H31.8964C31.7764 3.79639 31.6614 3.82824 31.5765 3.88495C31.4917 3.94166 31.4441 4.01857 31.4441 4.09876V6.72503C31.4441 6.76474 31.4558 6.80405 31.4785 6.84074C31.5012 6.87743 31.5345 6.91076 31.5765 6.93884C31.6185 6.96692 31.6684 6.98919 31.7233 7.00439C31.7782 7.01958 31.837 7.0274 31.8964 7.0274ZM32.3486 4.40061H37.4939V6.42265H32.3486V4.40061ZM8.71538 23.5991H22.2172C22.2765 23.5991 22.3353 23.5913 22.3901 23.5761C22.4449 23.5609 22.4948 23.5386 22.5367 23.5105C22.5786 23.4824 22.6119 23.4491 22.6345 23.4124C22.6571 23.3757 22.6687 23.3364 22.6686 23.2967V10.5603C22.6687 10.5206 22.6571 10.4813 22.6345 10.4446C22.6119 10.4079 22.5786 10.3746 22.5367 10.3465C22.4948 10.3184 22.4449 10.2961 22.3901 10.2809C22.3353 10.2657 22.2765 10.2579 22.2172 10.2579H8.71538C8.59543 10.2579 8.48039 10.2897 8.39557 10.3465C8.31075 10.4032 8.2631 10.4801 8.2631 10.5603V23.2967C8.2631 23.3769 8.31075 23.4538 8.39557 23.5105C8.48039 23.5673 8.59543 23.5991 8.71538 23.5991ZM9.16687 10.8626H21.7649V22.9944H9.16687V10.8626ZM37.9621 10.2563H24.0589C23.9389 10.2563 23.8239 10.2882 23.7391 10.3449C23.6542 10.4016 23.6066 10.4785 23.6066 10.5587V16.9282C23.6065 16.968 23.6181 17.0073 23.6408 17.044C23.6635 17.0808 23.6968 17.1141 23.7388 17.1422C23.7809 17.1703 23.8308 17.1926 23.8857 17.2077C23.9406 17.2229 23.9995 17.2307 24.0589 17.2306H37.9621C38.0215 17.2307 38.0803 17.2229 38.1353 17.2077C38.1902 17.1926 38.2401 17.1703 38.2821 17.1422C38.3241 17.1141 38.3574 17.0808 38.3801 17.044C38.4028 17.0073 38.4145 16.968 38.4143 16.9282V10.5603C38.4147 10.5204 38.4032 10.4809 38.3806 10.4441C38.358 10.4072 38.3248 10.3737 38.2827 10.3454C38.2407 10.3172 38.1907 10.2948 38.1357 10.2795C38.0807 10.2642 38.0217 10.2563 37.9621 10.2563ZM37.5106 16.6248H24.5112V10.8626H37.5106V16.6248ZM37.9621 17.72H24.0589C23.9995 17.72 23.9406 17.7277 23.8857 17.7429C23.8308 17.7581 23.7809 17.7804 23.7388 17.8085C23.6968 17.8365 23.6635 17.8699 23.6408 17.9066C23.6181 17.9433 23.6065 17.9827 23.6066 18.0224V23.3148C23.6065 23.3545 23.6181 23.3939 23.6408 23.4306C23.6635 23.4673 23.6968 23.5007 23.7388 23.5288C23.7809 23.5569 23.8308 23.5791 23.8857 23.5943C23.9406 23.6095 23.9995 23.6173 24.0589 23.6172H37.9621C38.0215 23.6173 38.0803 23.6095 38.1353 23.5943C38.1902 23.5791 38.2401 23.5569 38.2821 23.5288C38.3241 23.5007 38.3574 23.4673 38.3801 23.4306C38.4028 23.3939 38.4145 23.3545 38.4143 23.3148V18.0224C38.4145 17.9827 38.4028 17.9433 38.3801 17.9066C38.3574 17.8699 38.3241 17.8365 38.2821 17.8085C38.2401 17.7804 38.1902 17.7581 38.1353 17.7429C38.0803 17.7277 38.0215 17.72 37.9621 17.72ZM37.5106 23.013H24.5112V18.3243H37.5106V23.013ZM8.71538 9.09621H33.1769C33.2935 9.09294 33.4036 9.05968 33.4844 9.00338C33.5651 8.94708 33.6102 8.8721 33.6102 8.7941C33.6102 8.7161 33.5651 8.64111 33.4844 8.58482C33.4036 8.52852 33.2935 8.49526 33.1769 8.49199H8.71538C8.65444 8.49028 8.59362 8.49683 8.53657 8.51124C8.47951 8.52565 8.42741 8.54763 8.38339 8.57585C8.33936 8.60407 8.30434 8.63796 8.28041 8.67546C8.25648 8.71297 8.24414 8.75332 8.24414 8.7941C8.24414 8.83487 8.25648 8.87523 8.28041 8.91274C8.30434 8.95024 8.33936 8.98412 8.38339 9.01235C8.42741 9.04057 8.47951 9.06255 8.53657 9.07696C8.59362 9.09137 8.65444 9.09792 8.71538 9.09621ZM35.6696 8.79383C35.6676 8.73569 35.6399 8.67923 35.5901 8.63155C35.5403 8.58387 35.4706 8.54707 35.3896 8.52578C35.3086 8.50449 35.2201 8.49965 35.135 8.51186C35.05 8.52407 34.9722 8.5528 34.9114 8.59443C34.8507 8.63607 34.8097 8.68877 34.7935 8.74592C34.7774 8.80307 34.7868 8.86214 34.8207 8.91572C34.8545 8.9693 34.9113 9.015 34.9838 9.04711C35.0564 9.07922 35.1415 9.0963 35.2285 9.09621C35.2871 9.09572 35.3451 9.08752 35.399 9.07206C35.4529 9.0566 35.5018 9.03419 35.5427 9.00611C35.5837 8.97803 35.616 8.94483 35.6378 8.90841C35.6595 8.87199 35.6704 8.83305 35.6696 8.79383Z" fill="#714EE8"/>
<path d="M27.1936 15.3048C27.306 15.3047 27.4145 15.2769 27.498 15.2266L30.114 13.6372L30.8946 14.5076C30.9301 14.5473 30.9787 14.5811 31.0368 14.6062C31.0949 14.6314 31.1608 14.6473 31.2295 14.6527C31.2983 14.6582 31.3679 14.653 31.4332 14.6376C31.4985 14.6222 31.5576 14.597 31.606 14.564L34.4198 12.6392C34.4616 12.6108 34.4946 12.5772 34.5169 12.5403C34.5392 12.5034 34.5505 12.464 34.55 12.4242C34.5495 12.3844 34.5373 12.345 34.5141 12.3084C34.4909 12.2717 34.4571 12.2385 34.4147 12.2106C34.3722 12.1827 34.322 12.1606 34.2668 12.1457C34.2116 12.1307 34.1526 12.1232 34.0931 12.1235C34.0335 12.1239 33.9747 12.132 33.9199 12.1475C33.8651 12.1631 33.8153 12.1857 33.7736 12.214L31.3691 13.8588L30.6068 13.0053C30.5724 12.9669 30.5257 12.9341 30.4701 12.9092C30.4144 12.8843 30.3512 12.868 30.2849 12.8614C30.2187 12.8549 30.1511 12.8582 30.087 12.8712C30.023 12.8843 29.964 12.9067 29.9145 12.9368L26.8892 14.7744C26.8188 14.815 26.7688 14.8691 26.7462 14.9294C26.7235 14.9896 26.7292 15.0531 26.7625 15.1111C26.7958 15.1691 26.8551 15.2189 26.9323 15.2535C27.0094 15.2882 27.1007 15.3061 27.1936 15.3048ZM20.8441 21.3539H19.2448V16.9282C19.2448 16.8886 19.2331 16.8493 19.2104 16.8126C19.1877 16.7759 19.1543 16.7426 19.1123 16.7146C19.0703 16.6866 19.0204 16.6644 18.9656 16.6492C18.9107 16.6341 18.8519 16.6263 18.7926 16.6264H16.3435C16.2842 16.6263 16.2254 16.6341 16.1705 16.6492C16.1157 16.6644 16.0658 16.6866 16.0238 16.7146C15.9818 16.7426 15.9484 16.7759 15.9257 16.8126C15.903 16.8493 15.8913 16.8886 15.8913 16.9282V21.3539H14.6346V13.7137C14.6346 13.674 14.6229 13.6347 14.6001 13.5981C14.5774 13.5614 14.5441 13.5281 14.502 13.5001C14.46 13.472 14.4102 13.4498 14.3553 13.4347C14.3004 13.4195 14.2416 13.4118 14.1823 13.4119H11.7396C11.6803 13.4118 11.6215 13.4195 11.5666 13.4347C11.5117 13.4498 11.4619 13.472 11.4199 13.5001C11.3778 13.5281 11.3445 13.5614 11.3218 13.5981C11.299 13.6347 11.2873 13.674 11.2873 13.7137V21.3539H9.76674C9.64678 21.3539 9.53174 21.3857 9.44692 21.4424C9.3621 21.4991 9.31445 21.5761 9.31445 21.6563C9.31445 21.7364 9.3621 21.8134 9.44692 21.8701C9.53174 21.9268 9.64678 21.9586 9.76674 21.9586H20.8441C20.9641 21.9586 21.0791 21.9268 21.1639 21.8701C21.2488 21.8134 21.2964 21.7364 21.2964 21.6563C21.2964 21.5761 21.2488 21.4991 21.1639 21.4424C21.0791 21.3857 20.9641 21.3539 20.8441 21.3539ZM16.795 17.2306H18.3371V21.1753H16.795V17.2306ZM12.1919 14.0161H13.734V21.1753H12.1919V14.0161Z" fill="#798071"/>
</svg>
