<svg width="40" height="31" viewBox="0 0 40 31" fill="none" xmlns="http://www.w3.org/2000/svg">
<path d="M28.7051 28.7827H11.6426C10.8345 28.7827 10.0595 28.5358 9.48811 28.0963C8.91671 27.6567 8.5957 27.0606 8.5957 26.439V4.87647C8.5957 4.25487 8.91671 3.65873 9.48811 3.21919C10.0595 2.77965 10.8345 2.53272 11.6426 2.53272H22.8185C23.2189 2.53217 23.6155 2.59233 23.9857 2.70976C24.3558 2.82719 24.6922 2.99959 24.9757 3.21709L30.8623 7.74522C31.145 7.96328 31.3691 8.22207 31.5218 8.50679C31.6745 8.79152 31.7527 9.0966 31.752 9.40459V26.439C31.752 27.0606 31.4309 27.6567 30.8595 28.0963C30.2881 28.5358 29.5132 28.7827 28.7051 28.7827ZM11.6426 3.47022C11.1577 3.47022 10.6927 3.61838 10.3499 3.8821C10.0071 4.14582 9.81445 4.50351 9.81445 4.87647V26.439C9.81445 26.8119 10.0071 27.1696 10.3499 27.4333C10.6927 27.6971 11.1577 27.8452 11.6426 27.8452H28.7051C29.1899 27.8452 29.6549 27.6971 29.9978 27.4333C30.3406 27.1696 30.5332 26.8119 30.5332 26.439V9.40459C30.5328 9.03176 30.3399 8.67431 29.997 8.41084L24.1104 3.88272C23.7679 3.61892 23.3032 3.47055 22.8185 3.47022H11.6426Z" fill="#798071"/>
<path d="M28.0957 9.56396H25.6582C24.8501 9.56396 24.0751 9.31703 23.5037 8.8775C22.9323 8.43796 22.6113 7.84182 22.6113 7.22021V5.34521C22.6113 5.22089 22.6755 5.10167 22.7898 5.01376C22.9041 4.92585 23.0591 4.87646 23.2207 4.87646C23.3823 4.87646 23.5373 4.92585 23.6516 5.01376C23.7659 5.10167 23.8301 5.22089 23.8301 5.34521V7.22021C23.8301 7.59318 24.0227 7.95086 24.3655 8.21458C24.7084 8.47831 25.1734 8.62646 25.6582 8.62646H28.0957C28.2573 8.62646 28.4123 8.67585 28.5266 8.76376C28.6409 8.85167 28.7051 8.97089 28.7051 9.09521C28.7051 9.21953 28.6409 9.33876 28.5266 9.42667C28.4123 9.51458 28.2573 9.56396 28.0957 9.56396ZM20.1738 7.68896H13.4707C13.3091 7.68896 13.1541 7.63958 13.0398 7.55167C12.9255 7.46376 12.8613 7.34454 12.8613 7.22021C12.8613 7.09589 12.9255 6.97667 13.0398 6.88876C13.1541 6.80085 13.3091 6.75146 13.4707 6.75146H20.1738C20.3354 6.75146 20.4904 6.80085 20.6047 6.88876C20.719 6.97667 20.7832 7.09589 20.7832 7.22021C20.7832 7.34454 20.719 7.46376 20.6047 7.55167C20.4904 7.63958 20.3354 7.68896 20.1738 7.68896ZM22.002 10.9702H13.4707C13.3091 10.9702 13.1541 10.9208 13.0398 10.8329C12.9255 10.745 12.8613 10.6258 12.8613 10.5015C12.8613 10.3771 12.9255 10.2579 13.0398 10.17C13.1541 10.0821 13.3091 10.0327 13.4707 10.0327H22.002C22.1636 10.0327 22.3186 10.0821 22.4328 10.17C22.5471 10.2579 22.6113 10.3771 22.6113 10.5015C22.6113 10.6258 22.5471 10.745 22.4328 10.8329C22.3186 10.9208 22.1636 10.9702 22.002 10.9702ZM26.877 14.2515H13.4707C13.3091 14.2515 13.1541 14.2021 13.0398 14.1142C12.9255 14.0263 12.8613 13.907 12.8613 13.7827C12.8613 13.6584 12.9255 13.5392 13.0398 13.4513C13.1541 13.3634 13.3091 13.314 13.4707 13.314H26.877C27.0386 13.314 27.1936 13.3634 27.3078 13.4513C27.4221 13.5392 27.4863 13.6584 27.4863 13.7827C27.4863 13.907 27.4221 14.0263 27.3078 14.1142C27.1936 14.2021 27.0386 14.2515 26.877 14.2515ZM26.877 17.5327H13.4707C13.3091 17.5327 13.1541 17.4833 13.0398 17.3954C12.9255 17.3075 12.8613 17.1883 12.8613 17.064C12.8613 16.9396 12.9255 16.8204 13.0398 16.7325C13.1541 16.6446 13.3091 16.5952 13.4707 16.5952H26.877C27.0386 16.5952 27.1936 16.6446 27.3078 16.7325C27.4221 16.8204 27.4863 16.9396 27.4863 17.064C27.4863 17.1883 27.4221 17.3075 27.3078 17.3954C27.1936 17.4833 27.0386 17.5327 26.877 17.5327ZM26.877 20.814H13.4707C13.3091 20.814 13.1541 20.7646 13.0398 20.6767C12.9255 20.5888 12.8613 20.4695 12.8613 20.3452C12.8613 20.2209 12.9255 20.1017 13.0398 20.0138C13.1541 19.9259 13.3091 19.8765 13.4707 19.8765H26.877C27.0386 19.8765 27.1936 19.9259 27.3078 20.0138C27.4221 20.1017 27.4863 20.2209 27.4863 20.3452C27.4863 20.4695 27.4221 20.5888 27.3078 20.6767C27.1936 20.7646 27.0386 20.814 26.877 20.814ZM26.877 24.0952H13.4707C13.3091 24.0952 13.1541 24.0458 13.0398 23.9579C12.9255 23.87 12.8613 23.7508 12.8613 23.6265C12.8613 23.5021 12.9255 23.3829 13.0398 23.295C13.1541 23.2071 13.3091 23.1577 13.4707 23.1577H26.877C27.0386 23.1577 27.1936 23.2071 27.3078 23.295C27.4221 23.3829 27.4863 23.5021 27.4863 23.6265C27.4863 23.7508 27.4221 23.87 27.3078 23.9579C27.1936 24.0458 27.0386 24.0952 26.877 24.0952Z" fill="#714EE8"/>
</svg>
