<svg width="41" height="39" viewBox="0 0 41 39" fill="none" xmlns="http://www.w3.org/2000/svg">
<path d="M36.0027 32.1749L27.5785 24.1616C27.3223 24.4968 27.034 24.8015 26.7777 25.1062L35.1059 33.028C35.4902 33.3937 35.4902 33.9726 35.1059 34.3077C34.9137 34.4905 34.6895 34.5819 34.4332 34.5819C34.177 34.5819 33.9207 34.4905 33.7605 34.3077L25.4324 26.3858C25.1121 26.6601 24.7918 26.9038 24.4395 27.1476L32.8637 35.1608C33.3121 35.5874 33.8887 35.8007 34.4652 35.8007C35.0418 35.8007 35.6184 35.5874 36.0668 35.1608C36.8676 34.3687 36.8676 33.028 36.0027 32.1749Z" fill="#798071"/>
<path d="M30.0781 17.1844V16.8797C30.0781 16.7579 30.0781 16.636 30.0461 16.5446C30.0461 16.3922 30.0141 16.2399 29.982 16.0875C29.982 16.0266 29.982 15.9657 29.95 15.9352C29.6938 14.1375 29.0211 12.3399 27.932 10.786C27.7719 10.5727 27.6438 10.3594 27.4516 10.1766L27.4195 10.1461C27.0672 9.71958 26.7148 9.32349 26.2984 8.92739C26.1383 8.77505 25.9781 8.65317 25.818 8.50083L25.7219 8.40942C25.5938 8.31802 25.4977 8.22661 25.3695 8.13521C25.2734 8.0438 25.1453 7.95239 25.0492 7.89145H25.0172C22.8711 6.30708 20.1484 5.36255 17.2336 5.36255C10.1867 5.36255 4.45312 10.8165 4.45312 17.5196C4.45312 24.2227 10.1867 29.6766 17.2336 29.6766C24.2805 29.6766 30.1102 24.1922 30.1102 17.4586C30.1102 17.3672 30.1102 17.2758 30.0781 17.1844ZM17.3297 28.4274C10.9875 28.4274 5.83047 23.5219 5.83047 17.4891C5.83047 11.4563 10.9875 6.55083 17.3297 6.55083C19.9883 6.55083 22.4547 7.43442 24.4086 8.86645L24.4727 8.92739C25.5617 9.75005 26.5227 10.786 27.2273 11.9438C27.7078 12.7055 28.0602 13.4977 28.3164 14.3204C28.7328 15.6305 28.893 16.9711 28.7648 18.3118C28.3484 23.9485 23.3836 28.4274 17.3297 28.4274Z" fill="#798071"/>
<path d="M25.9461 12.4618C25.9461 12.4313 25.9141 12.4313 25.9141 12.4009C25.818 12.279 25.7539 12.1571 25.6578 12.0353C25.6258 12.0048 25.5938 11.9743 25.5617 11.9134C25.4656 11.761 25.3375 11.6392 25.2414 11.4868L25.2094 11.4563C25.0812 11.304 24.9531 11.1821 24.825 11.0298C22.9672 9.07979 20.2766 7.83057 17.2977 7.83057C11.7242 7.83057 7.17578 12.1267 7.17578 17.4587C7.17578 22.7907 11.6922 27.0868 17.2977 27.0868C22.5828 27.0868 26.9391 23.2173 27.3875 18.2813V18.2509C27.3875 18.1595 27.4195 18.0681 27.4195 18.0071C27.5156 16.0876 27.0352 14.1376 25.9461 12.4618ZM17.3297 26.4774C12.1086 26.4774 7.84844 22.4251 7.84844 17.4587C7.84844 12.4923 12.1086 8.43994 17.3297 8.43994C20.2766 8.43994 22.9352 9.71963 24.6648 11.761L24.6969 11.7915C24.9211 12.0657 25.1453 12.3704 25.3695 12.6751C26.4906 14.3813 26.9711 16.3618 26.7789 18.2813C26.3305 22.8821 22.2625 26.4774 17.3297 26.4774Z" fill="#714EE8"/>
</svg>
