<svg width="34" height="32" viewBox="0 0 34 32" fill="none" xmlns="http://www.w3.org/2000/svg">
<path d="M31.1667 14.6667H30.4583V3.33341C30.4583 3.1566 30.3837 2.98703 30.2509 2.86201C30.118 2.73699 29.9379 2.66675 29.75 2.66675H5.66667C4.7277 2.66781 3.82752 3.01934 3.16357 3.64423C2.49962 4.26912 2.12612 5.11635 2.125 6.00008V16.6667H3.54167V8.64942C4.15111 9.09062 4.89779 9.33096 5.66667 9.33342H29.0417V14.6667H24.0833C23.5197 14.6667 22.9792 14.8775 22.5807 15.2525C22.1822 15.6276 21.9583 16.1363 21.9583 16.6667V19.3334C21.9583 19.8638 22.1822 20.3726 22.5807 20.7476C22.9792 21.1227 23.5197 21.3334 24.0833 21.3334H29.0417V27.3334C29.0417 27.5102 28.967 27.6798 28.8342 27.8048C28.7014 27.9298 28.5212 28.0001 28.3333 28.0001H15.5833V29.3334H28.3333C28.8969 29.3334 29.4374 29.1227 29.8359 28.7476C30.2345 28.3726 30.4583 27.8638 30.4583 27.3334V21.3334H31.1667C31.7303 21.3334 32.2708 21.1227 32.6693 20.7476C33.0678 20.3726 33.2917 19.8638 33.2917 19.3334V16.6667C33.2917 16.1363 33.0678 15.6276 32.6693 15.2525C32.2708 14.8775 31.7303 14.6667 31.1667 14.6667ZM3.54167 6.00008C3.54167 5.46965 3.76555 4.96094 4.16406 4.58587C4.56258 4.2108 5.10308 4.00008 5.66667 4.00008H29.0417V8.00008H5.66667C5.10308 8.00008 4.56258 7.78937 4.16406 7.4143C3.76555 7.03922 3.54167 6.53051 3.54167 6.00008ZM31.875 19.3334C31.875 19.5102 31.8004 19.6798 31.6675 19.8048C31.5347 19.9298 31.3545 20.0001 31.1667 20.0001H24.0833C23.8955 20.0001 23.7153 19.9298 23.5825 19.8048C23.4496 19.6798 23.375 19.5102 23.375 19.3334V16.6667C23.375 16.4899 23.4496 16.3204 23.5825 16.1953C23.7153 16.0703 23.8955 16.0001 24.0833 16.0001H31.1667C31.3545 16.0001 31.5347 16.0703 31.6675 16.1953C31.8004 16.3204 31.875 16.4899 31.875 16.6667V19.3334Z" fill="#798071"/>
<path d="M26.2083 17.3333H24.7916V18.6666H26.2083V17.3333Z" fill="#714EE8"/>
<path d="M8.49998 16C6.95894 16 5.4525 16.4301 4.17117 17.2359C2.88983 18.0417 1.89115 19.187 1.30142 20.527C0.711689 21.867 0.557388 23.3415 0.858031 24.764C1.15867 26.1865 1.90076 27.4932 2.99044 28.5188C4.08013 29.5444 5.46847 30.2428 6.9799 30.5258C8.49134 30.8087 10.058 30.6635 11.4817 30.1084C12.9055 29.5534 14.1224 28.6135 14.9785 27.4075C15.8347 26.2016 16.2917 24.7837 16.2917 23.3333C16.2892 21.3891 15.4675 19.5252 14.0068 18.1504C12.5461 16.7756 10.5657 16.0023 8.49998 16ZM8.49998 29.3333C7.23913 29.3333 6.00659 28.9814 4.95822 28.3222C3.90986 27.6629 3.09276 26.7258 2.61025 25.6294C2.12774 24.5331 2.0015 23.3267 2.24748 22.1628C2.49346 20.9989 3.10062 19.9298 3.99218 19.0907C4.88374 18.2516 6.01965 17.6801 7.25628 17.4486C8.49291 17.2171 9.77471 17.3359 10.9396 17.7901C12.1045 18.2442 13.1001 19.0132 13.8006 19.9999C14.5011 20.9866 14.875 22.1466 14.875 23.3333C14.8729 24.924 14.2006 26.449 13.0055 27.5738C11.8104 28.6986 10.1901 29.3314 8.49998 29.3333Z" fill="#798071"/>
<path d="M9.91669 20.0001H9.20835V18.6667H7.79169V20.0001H7.08335C6.70763 20.0001 6.3473 20.1406 6.08162 20.3906C5.81594 20.6407 5.66669 20.9798 5.66669 21.3334V22.6667C5.66669 23.0204 5.81594 23.3595 6.08162 23.6096C6.3473 23.8596 6.70763 24.0001 7.08335 24.0001H9.91669V25.3334H7.08335V24.6667H5.66669V25.3334C5.66669 25.687 5.81594 26.0262 6.08162 26.2762C6.3473 26.5263 6.70763 26.6667 7.08335 26.6667H7.79169V28.0001H9.20835V26.6667H9.91669C10.2924 26.6667 10.6527 26.5263 10.9184 26.2762C11.1841 26.0262 11.3334 25.687 11.3334 25.3334V24.0001C11.3334 23.6465 11.1841 23.3073 10.9184 23.0573C10.6527 22.8072 10.2924 22.6667 9.91669 22.6667H7.08335V21.3334H9.91669V22.0001H11.3334V21.3334C11.3334 20.9798 11.1841 20.6407 10.9184 20.3906C10.6527 20.1406 10.2924 20.0001 9.91669 20.0001Z" fill="#714EE8"/>
<path d="M13.4583 22.6667H12.0416V24.0001H13.4583V22.6667Z" fill="#714EE8"/>
<path d="M4.95835 22.6667H3.54169V24.0001H4.95835V22.6667Z" fill="#714EE8"/>
<path d="M28.3333 5.33325H4.95831V6.66659H28.3333V5.33325Z" fill="#798071"/>
</svg>
