<svg width="36" height="39" viewBox="0 0 36 39" fill="none" xmlns="http://www.w3.org/2000/svg">
<path d="M31.1858 15.5328L26.066 21.0792C26.05 21.0966 26.0324 21.104 26.0176 21.1055C26.003 21.1071 25.9864 21.1035 25.9701 21.0917L25.9696 21.0913L22.6936 18.7257L22.5383 18.6136L22.3896 18.7344L18.0797 22.2358L18.0796 22.2359C18.0649 22.2478 18.0499 22.2526 18.0367 22.253C18.0235 22.2535 18.0087 22.2496 17.9941 22.2391C17.9941 22.2391 17.9941 22.2391 17.9941 22.2391L14.7714 19.9092L14.6251 19.8034L14.4786 19.9091L8.97643 23.8821C8.97641 23.8821 8.9764 23.8821 8.97638 23.8822C8.90828 23.9312 8.82859 23.9471 8.7535 23.9307C8.67776 23.9143 8.60513 23.8646 8.5559 23.7845L8.55589 23.7845L7.62001 22.2637C7.57052 22.1831 7.5513 22.0816 7.56961 21.9827C7.58791 21.8839 7.64071 21.8024 7.70969 21.7526L7.70972 21.7526L14.5842 16.7877C14.5843 16.7877 14.5843 16.7876 14.5844 16.7876C14.5985 16.7775 14.6128 16.7735 14.6255 16.7735C14.6383 16.7735 14.6526 16.7775 14.6668 16.7876C14.6668 16.7877 14.6668 16.7877 14.6669 16.7877L17.8063 19.0555L17.9617 19.1677L18.1104 19.0469L22.4202 15.5454L22.4203 15.5454C22.435 15.5334 22.4501 15.5286 22.4633 15.5282C22.4763 15.5278 22.4911 15.5316 22.5057 15.542C22.5057 15.5421 22.5058 15.5421 22.5059 15.5422L25.5497 17.7417L25.7294 17.8715L25.8798 17.7086L29.5642 13.7172L29.7207 13.5476L29.5642 13.3781L27.7598 11.4233C27.7459 11.4082 27.7344 11.3867 27.7296 11.3605C27.7248 11.3343 27.7274 11.3074 27.7365 11.2838C27.7455 11.2602 27.7595 11.2433 27.7738 11.2329L27.6271 11.0305L27.7738 11.2329C27.7878 11.2227 27.802 11.2188 27.8146 11.2188H33.5V17.3987C33.4999 17.4258 33.4924 17.4508 33.4803 17.4705C33.4682 17.49 33.4531 17.502 33.4393 17.5083C33.4257 17.5143 33.4122 17.5155 33.3993 17.5128C33.3862 17.51 33.3713 17.5024 33.3576 17.4876L31.5532 15.5328L31.3695 15.3338L31.1858 15.5328ZM30.9375 29.6094H29.8125C29.7363 29.6094 29.6589 29.5768 29.5984 29.5113C29.5374 29.4452 29.5 29.3515 29.5 29.25V21.3281C29.5 21.2266 29.5374 21.1329 29.5984 21.0668C29.6589 21.0013 29.7363 20.9688 29.8125 20.9688H30.9375C31.0136 20.9688 31.0911 21.0013 31.1515 21.0668C31.2126 21.1329 31.25 21.2266 31.25 21.3281V29.25C31.25 29.3515 31.2126 29.4452 31.1515 29.5113C31.0911 29.5768 31.0136 29.6094 30.9375 29.6094ZM21.9375 29.6094H20.8125C20.7363 29.6094 20.6589 29.5768 20.5984 29.5113C20.5374 29.4452 20.5 29.3515 20.5 29.25V23.7656C20.5 23.6641 20.5374 23.5704 20.5984 23.5043C20.6589 23.4388 20.7363 23.4062 20.8125 23.4062H21.9375C22.0136 23.4062 22.0911 23.4388 22.1515 23.5043C22.2126 23.5704 22.25 23.6641 22.25 23.7656V29.25C22.25 29.3515 22.2126 29.4452 22.1515 29.5113C22.0911 29.5768 22.0136 29.6094 21.9375 29.6094ZM17.4375 29.6094H16.3125C16.2363 29.6094 16.1589 29.5768 16.0984 29.5113C16.0374 29.4452 16 29.3515 16 29.25V26.2031C16 26.1016 16.0374 26.0079 16.0984 25.9418C16.1589 25.8763 16.2363 25.8438 16.3125 25.8438H17.4375C17.5136 25.8438 17.5911 25.8763 17.6515 25.9418C17.7126 26.0079 17.75 26.1016 17.75 26.2031V29.25C17.75 29.3515 17.7126 29.4452 17.6515 29.5113C17.5911 29.5768 17.5136 29.6094 17.4375 29.6094ZM26.4375 29.6094H25.3125C25.2363 29.6094 25.1589 29.5768 25.0984 29.5113C25.0374 29.4452 25 29.3515 25 29.25V24.9844C25 24.8829 25.0374 24.7892 25.0984 24.7231C25.1589 24.6576 25.2363 24.625 25.3125 24.625H26.4375C26.5136 24.625 26.5911 24.6576 26.6515 24.7231C26.7126 24.7892 26.75 24.8829 26.75 24.9844V29.25C26.75 29.3515 26.7126 29.4452 26.6515 29.5113C26.5911 29.5768 26.5136 29.6094 26.4375 29.6094Z" fill="#714EE8" stroke="#798071" stroke-width="0.5"/>
<path d="M33.1931 31.6875C33.5036 31.6875 33.75 31.9605 33.75 32.2969V33.5156C33.75 33.6772 33.6907 33.8322 33.5852 33.9465C33.4798 34.0608 33.3367 34.125 33.1875 34.125H3.375C3.07663 34.125 2.79048 33.9966 2.5795 33.768C2.36853 33.5395 2.25 33.2295 2.25 32.9062V5.48438C2.25 5.32276 2.30926 5.16776 2.41475 5.05348C2.52024 4.9392 2.66332 4.875 2.8125 4.875H3.9375C4.08668 4.875 4.22976 4.9392 4.33525 5.05348C4.44074 5.16776 4.5 5.32276 4.5 5.48438V31.6875H33.1931Z" fill="#798071"/>
<path d="M8.4375 29.6094H7.3125C7.23637 29.6094 7.15889 29.5768 7.09845 29.5113C7.0374 29.4452 7 29.3515 7 29.25V27.4219C7 27.3204 7.0374 27.2267 7.09845 27.1606C7.15889 27.0951 7.23637 27.0625 7.3125 27.0625H8.4375C8.51363 27.0625 8.59111 27.0951 8.65155 27.1606C8.7126 27.2267 8.75 27.3204 8.75 27.4219V29.25C8.75 29.3515 8.7126 29.4452 8.65155 29.5113C8.59111 29.5768 8.51363 29.6094 8.4375 29.6094ZM12.9375 29.6094H11.8125C11.7364 29.6094 11.6589 29.5768 11.5985 29.5113C11.5374 29.4452 11.5 29.3515 11.5 29.25V26.2031C11.5 26.1016 11.5374 26.0079 11.5985 25.9418C11.6589 25.8763 11.7364 25.8438 11.8125 25.8438H12.9375C13.0136 25.8438 13.0911 25.8763 13.1515 25.9418C13.2126 26.0079 13.25 26.1016 13.25 26.2031V29.25C13.25 29.3515 13.2126 29.4452 13.1515 29.5113C13.0911 29.5768 13.0136 29.6094 12.9375 29.6094Z" fill="#714EE8" stroke="#798071" stroke-width="0.5"/>
</svg>
