<svg width="27" height="28" viewBox="0 0 27 28" fill="none" xmlns="http://www.w3.org/2000/svg">
<path d="M26.5 14C26.5 21.4731 20.6627 27.5 13.5 27.5C6.33728 27.5 0.5 21.4731 0.5 14C0.5 6.52686 6.33728 0.5 13.5 0.5C20.6627 0.5 26.5 6.52686 26.5 14Z" stroke="#798071"/>
<path d="M20.5915 8.64605L17.9656 5.79188C17.6229 5.44198 17.1738 5.24122 16.7038 5.22777C16.2338 5.21433 15.7756 5.38914 15.4165 5.71897L6.79146 15.094C6.4817 15.4335 6.28882 15.8786 6.24521 16.3544L5.83313 20.6981C5.82022 20.8507 5.83843 21.0045 5.88647 21.1485C5.93451 21.2926 6.01119 21.4233 6.11105 21.5315C6.20059 21.628 6.30679 21.7044 6.42355 21.7562C6.54031 21.8081 6.66534 21.8343 6.79146 21.8336H6.87771L10.874 21.4377C11.3117 21.3903 11.7212 21.1807 12.0335 20.844L20.6585 11.469C20.9933 11.0846 21.1742 10.5716 21.1616 10.0424C21.1491 9.5133 20.944 9.01116 20.5915 8.64605ZM10.7015 19.3544L7.82646 19.6461L8.08521 16.5211L13.4998 10.7086L16.0873 13.5211L10.7015 19.3544ZM17.3331 12.1252L14.7648 9.33355L16.6335 7.25022L19.2498 10.094L17.3331 12.1252Z" fill="#714EE8"/>
</svg>
