<svg width="49" height="55" viewBox="0 0 49 55" fill="none" xmlns="http://www.w3.org/2000/svg">
<path d="M14.9603 20.8657V29.0985L10.7494 25.0595L14.9603 20.8657ZM40.6088 25.0595L36.4131 28.9438V21.6392L40.6088 25.0595Z" fill="#714EE8" stroke="#8F8F8F" stroke-width="0.66" stroke-linecap="round" stroke-linejoin="round"/>
<path d="M36.4131 15.9156V28.9438L31.3447 33.6359L26.3222 38.2938C26.0701 38.5347 25.7499 38.667 25.4188 38.667C25.0877 38.667 24.7674 38.5347 24.5153 38.2938L19.9216 33.825L15.0216 29.1156V13.0969C15.0171 12.8274 15.1053 12.5663 15.2679 12.3679C15.4304 12.1694 15.6548 12.0489 15.8944 12.0312H32.9525V14.8672C32.9525 15.1452 33.0509 15.4119 33.2261 15.6085C33.4013 15.8052 33.6389 15.9156 33.8866 15.9156H36.4131Z" fill="#8F8F8F" stroke="#8F8F8F" stroke-width="0.66" stroke-linecap="round" stroke-linejoin="round"/>
<path d="M25.3268 39.875C25.2503 39.875 25.2197 39.3422 25.1125 39.2391L20.0134 37.0047L15.8943 29.9922V13.0969H32.9525L34.1622 14.386C33.1362 14.386 34.1622 15.5375 34.1622 14.386L35.479 15.9157V29.8204L30.7628 36.4032L25.8628 40.8204C25.7862 40.9063 25.4493 39.875 25.3268 39.875Z" fill="white"/>
<path d="M24.6378 16.3625H30.0278M24.6378 20.3672H32.9525M24.6378 24.3719H32.9525M24.6378 28.3766H32.9525M36.4131 15.9156H33.8866C33.6388 15.9156 33.4013 15.8052 33.2261 15.6085C33.0509 15.4119 32.9525 15.1452 32.9525 14.8672V12.0312L36.4131 15.9156Z" stroke="#714EE8" stroke-width="0.66" stroke-linecap="round" stroke-linejoin="round"/>
<path d="M20.9169 21.3297C20.9211 21.6897 20.8585 22.0467 20.7331 22.3781C20.64 22.7124 20.4581 23.0067 20.2118 23.2218C19.9655 23.4368 19.6665 23.5622 19.355 23.5813C18.8902 23.5003 18.4713 23.2208 18.1859 22.8012C17.9005 22.3815 17.7708 21.8543 17.8237 21.3297C17.7708 20.8051 17.9005 20.2779 18.1859 19.8582C18.4713 19.4386 18.8902 19.1591 19.355 19.0781C19.5872 19.0772 19.8152 19.1486 20.0134 19.2844C20.3062 19.5113 20.5427 19.8181 20.7007 20.1759C20.8588 20.5337 20.9332 20.9308 20.9169 21.3297Z" fill="#714EE8" stroke="#8F8F8F" stroke-width="0.66" stroke-linecap="round" stroke-linejoin="round"/>
<path d="M19.6 23.5813C19.5443 23.797 19.4563 24.0004 19.3397 24.1829C19.2882 24.2506 19.2495 24.3294 19.2261 24.4146C19.2028 24.4997 19.1951 24.5892 19.2038 24.6778C19.2124 24.7663 19.237 24.852 19.2762 24.9294C19.3154 25.0069 19.3682 25.0745 19.4316 25.1282C19.8603 25.4719 19.3397 26.0907 19.3397 26.0907C19.2767 26.1612 19.232 26.2497 19.2104 26.3466C19.1888 26.4435 19.1912 26.5452 19.2172 26.6407" stroke="#8F8F8F" stroke-width="0.66" stroke-linecap="round" stroke-linejoin="round"/>
<path d="M22.9687 20.3328C22.9765 20.7292 22.8949 21.1213 22.7316 21.4728C22.5683 21.8244 22.3286 22.1239 22.0347 22.3437C21.8371 22.4812 21.6087 22.5528 21.3762 22.55C21.1489 22.5505 20.926 22.479 20.7331 22.3437C20.8585 22.0124 20.9211 21.6553 20.9169 21.2953C20.9332 20.8964 20.8588 20.4993 20.7007 20.1415C20.5427 19.7838 20.3062 19.477 20.0134 19.25C20.1056 18.9184 20.2852 18.6259 20.5285 18.4111C20.7718 18.1963 21.0674 18.0693 21.3762 18.0469C21.6943 18.0649 21.9995 18.1938 22.2492 18.4156C22.499 18.6374 22.6809 18.9411 22.7697 19.2844C22.8955 19.6162 22.9631 19.9722 22.9687 20.3328Z" fill="#714EE8" stroke="#8F8F8F" stroke-width="0.66" stroke-linecap="round" stroke-linejoin="round"/>
<path d="M21.6212 22.5845C21.5655 22.8001 21.4775 23.0036 21.3609 23.186C21.309 23.2552 21.2701 23.3354 21.2466 23.4219C21.223 23.5084 21.2153 23.5994 21.2239 23.6893C21.2325 23.7792 21.2572 23.8663 21.2965 23.9452C21.3358 24.0241 21.389 24.0933 21.4528 24.1485C21.8815 24.4923 21.3609 25.111 21.3609 25.111C21.2979 25.1816 21.2533 25.2701 21.2317 25.367C21.2101 25.4638 21.2124 25.5655 21.2384 25.661" stroke="#8F8F8F" stroke-width="0.66" stroke-linecap="round" stroke-linejoin="round"/>
<path d="M40.1953 43.5874C39.9352 43.8799 39.5835 44.0465 39.2153 44.0515H12.1582C11.7847 44.051 11.4267 43.8841 11.1628 43.5874L19.9063 33.8077L24.5 38.2765C24.7521 38.5174 25.0724 38.6497 25.4035 38.6497C25.7346 38.6497 26.0548 38.5174 26.3069 38.2765L31.3294 33.6187L40.1953 43.5874Z" fill="#8F8F8F" stroke="#8F8F8F" stroke-width="0.66" stroke-linecap="round" stroke-linejoin="round"/>
<path d="M19.9062 33.8078L11.1628 43.5875C10.8901 43.2948 10.7306 42.8936 10.7188 42.4703V25.0593L14.9297 29.0984L19.9062 33.8078ZM40.6088 25.0593V42.4703C40.6102 42.6781 40.5744 42.8842 40.5034 43.0761C40.4323 43.2681 40.3276 43.442 40.1953 43.5875L31.3447 33.6359L36.4131 28.9437L40.6088 25.0593Z" fill="#8F8F8F" stroke="#8F8F8F" stroke-width="0.66" stroke-linecap="round" stroke-linejoin="round"/>
</svg>
