<svg width="27" height="28" viewBox="0 0 27 28" fill="none" xmlns="http://www.w3.org/2000/svg">
<path d="M26.5 14C26.5 21.4731 20.6627 27.5 13.5 27.5C6.33728 27.5 0.5 21.4731 0.5 14C0.5 6.52686 6.33728 0.5 13.5 0.5C20.6627 0.5 26.5 6.52686 26.5 14Z" stroke="#798071"/>
<path d="M20.0394 11.8159L19.7364 20.011C19.7106 20.7129 19.3796 21.3781 18.8138 21.8656C18.248 22.353 17.4918 22.6243 16.7058 22.6218H10.9476C10.1621 22.6243 9.40634 22.3534 8.8406 21.8665C8.27485 21.3797 7.94357 20.7151 7.91698 20.0137L7.61392 11.8159C7.60729 11.6364 7.68076 11.4619 7.81815 11.3308C7.95555 11.1996 8.14563 11.1226 8.34657 11.1167C8.54751 11.1108 8.74286 11.1764 8.88964 11.2992C9.03641 11.4219 9.1226 11.5918 9.12923 11.7713L9.43229 19.9684C9.44738 20.3183 9.61367 20.6494 9.89622 20.8921C10.1788 21.1348 10.5556 21.2703 10.9476 21.27H16.7058C17.0982 21.2703 17.4755 21.1344 17.7582 20.8911C18.0408 20.6479 18.2067 20.3161 18.2211 19.9657L18.5241 11.7713C18.5308 11.5918 18.6169 11.4219 18.7637 11.2992C18.9105 11.1764 19.1058 11.1108 19.3068 11.1167C19.5077 11.1226 19.6978 11.1996 19.8352 11.3308C19.9726 11.4619 20.0461 11.6364 20.0394 11.8159ZM21.0418 9.08877C21.0418 9.26829 20.962 9.44046 20.8199 9.5674C20.6778 9.69434 20.4851 9.76566 20.2842 9.76566H7.36996C7.16902 9.76566 6.9763 9.69434 6.83422 9.5674C6.69213 9.44046 6.6123 9.26829 6.6123 9.08877C6.6123 8.90925 6.69213 8.73708 6.83422 8.61014C6.9763 8.4832 7.16902 8.41189 7.36996 8.41189H9.71868C9.95874 8.41246 10.1905 8.33323 10.3687 8.18959C10.547 8.04596 10.6591 7.84821 10.6832 7.63482C10.7391 7.13425 11.0016 6.67021 11.4195 6.3331C11.8375 5.996 12.3809 5.80998 12.944 5.81129H14.7093C15.2724 5.80998 15.8159 5.996 16.2338 6.3331C16.6518 6.67021 16.9143 7.13425 16.9702 7.63482C16.9943 7.84821 17.1063 8.04596 17.2846 8.18959C17.4629 8.33323 17.6946 8.41246 17.9347 8.41189H20.2834C20.4843 8.41189 20.677 8.4832 20.8191 8.61014C20.9612 8.73708 21.041 8.90925 21.041 9.08877H21.0418ZM11.9985 8.41189H15.6564C15.5568 8.20865 15.4917 7.99329 15.4632 7.7729C15.4444 7.60606 15.357 7.45137 15.2179 7.33882C15.0787 7.22627 14.8978 7.16387 14.7101 7.16371H12.9448C12.7571 7.16387 12.5761 7.22627 12.437 7.33882C12.2979 7.45137 12.2104 7.60606 12.1917 7.7729C12.1629 7.99332 12.0983 8.20868 11.9985 8.41189ZM12.7614 18.6674V12.9037C12.7614 12.7242 12.6816 12.552 12.5395 12.4251C12.3974 12.2981 12.2047 12.2268 12.0038 12.2268C11.8028 12.2268 11.6101 12.2981 11.468 12.4251C11.3259 12.552 11.2461 12.7242 11.2461 12.9037V18.6701C11.2461 18.8496 11.3259 19.0218 11.468 19.1487C11.6101 19.2757 11.8028 19.347 12.0038 19.347C12.2047 19.347 12.3974 19.2757 12.5395 19.1487C12.6816 19.0218 12.7614 18.8496 12.7614 18.6701V18.6674ZM16.4088 18.6674V12.9037C16.4088 12.7242 16.3289 12.552 16.1868 12.4251C16.0448 12.2981 15.852 12.2268 15.6511 12.2268C15.4502 12.2268 15.2575 12.2981 15.1154 12.4251C14.9733 12.552 14.8935 12.7242 14.8935 12.9037V18.6701C14.8935 18.8496 14.9733 19.0218 15.1154 19.1487C15.2575 19.2757 15.4502 19.347 15.6511 19.347C15.852 19.347 16.0448 19.2757 16.1868 19.1487C16.3289 19.0218 16.4088 18.8496 16.4088 18.6701V18.6674Z" fill="#714EE8"/>
</svg>
