<svg width="34" height="36" viewBox="0 0 34 36" fill="none" xmlns="http://www.w3.org/2000/svg">
<path d="M30.8125 1.6875H3.1875C2.76481 1.6875 2.35943 1.86529 2.06055 2.18176C1.76166 2.49822 1.59375 2.92745 1.59375 3.375V28.6875C1.59375 29.1351 1.76166 29.5643 2.06055 29.8807C2.35943 30.1972 2.76481 30.375 3.1875 30.375H14.875V32.0625C14.875 32.6592 15.0989 33.2315 15.4974 33.6535C15.8959 34.0754 16.4364 34.3125 17 34.3125C17.5636 34.3125 18.1041 34.0754 18.5026 33.6535C18.9011 33.2315 19.125 32.6592 19.125 32.0625V30.375H30.8125C31.2352 30.375 31.6406 30.1972 31.9395 29.8807C32.2383 29.5643 32.4062 29.1351 32.4062 28.6875V3.375C32.4062 2.92745 32.2383 2.49822 31.9395 2.18176C31.6406 1.86529 31.2352 1.6875 30.8125 1.6875ZM3.1875 2.8125H30.8125C30.9534 2.8125 31.0885 2.87176 31.1882 2.97725C31.2878 3.08274 31.3438 3.22582 31.3438 3.375V7.3125H2.65625V3.375C2.65625 3.22582 2.71222 3.08274 2.81185 2.97725C2.91148 2.87176 3.0466 2.8125 3.1875 2.8125ZM16.4688 25.3125C16.8224 25.3406 17.1776 25.3406 17.5312 25.3125V26.4375H16.4688V25.3125ZM18.0625 32.0625C18.0625 32.3609 17.9506 32.647 17.7513 32.858C17.552 33.069 17.2818 33.1875 17 33.1875C16.7182 33.1875 16.448 33.069 16.2487 32.858C16.0494 32.647 15.9375 32.3609 15.9375 32.0625V27.5625H18.0625V32.0625ZM30.8125 29.25H19.125V27C19.125 26.8508 19.069 26.7077 18.9694 26.6023C18.8698 26.4968 18.7346 26.4375 18.5938 26.4375V25.11C20.1083 24.7359 21.4582 23.8291 22.4231 22.5377C23.388 21.2463 23.9109 19.6467 23.9062 18C23.9073 17.7895 23.8966 17.5792 23.8744 17.37C23.866 17.2961 23.844 17.2247 23.8095 17.1599C23.7751 17.095 23.7289 17.038 23.6737 16.992C23.6184 16.9461 23.5552 16.9121 23.4875 16.892C23.4199 16.8719 23.3491 16.8661 23.2794 16.875C23.2096 16.8839 23.1422 16.9072 23.0809 16.9436C23.0197 16.9801 22.9658 17.029 22.9224 17.0875C22.879 17.146 22.8469 17.213 22.8279 17.2846C22.809 17.3562 22.8035 17.4311 22.8119 17.505C22.8306 17.6693 22.8412 17.8345 22.8438 18C22.8504 19.4641 22.3634 20.8826 21.4704 22.0003C20.5773 23.1181 19.3369 23.8618 17.9722 24.0975C17.4771 24.1986 16.9714 24.2289 16.4688 24.1875C16.3173 24.1755 16.1665 24.1549 16.0172 24.1256C15.1196 23.9654 14.2698 23.5855 13.5355 23.016C12.8012 22.4465 12.2026 21.7033 11.7876 20.8456C11.3725 19.9879 11.1525 19.0393 11.1449 18.0756C11.1373 17.1119 11.3425 16.1596 11.744 15.2947C12.1456 14.4298 12.7323 13.6761 13.4576 13.0938C14.1829 12.5115 15.0266 12.1166 15.9216 11.9407C16.8165 11.7647 17.7378 11.8126 18.6122 12.0803C19.4866 12.3481 20.2898 12.8285 20.9578 13.4831C21.0076 13.5394 21.0677 13.5843 21.1346 13.615C21.2014 13.6456 21.2735 13.6614 21.3463 13.6613C21.4191 13.6612 21.4912 13.6453 21.558 13.6144C21.6247 13.5836 21.6848 13.5386 21.7344 13.4822C21.7841 13.4258 21.8222 13.3591 21.8465 13.2864C21.8708 13.2137 21.8807 13.1365 21.8757 13.0596C21.8706 12.9827 21.8506 12.9076 21.817 12.8392C21.7834 12.7708 21.7369 12.7104 21.6803 12.6619C20.908 11.8902 19.978 11.3175 18.9627 10.9882C17.9473 10.659 16.8739 10.5821 15.8259 10.7635C14.7779 10.945 13.7836 11.3798 12.9201 12.0344C12.0567 12.6889 11.3474 13.5454 10.8474 14.5374C10.3475 15.5293 10.0703 16.63 10.0374 17.7538C10.0045 18.8776 10.2169 19.9944 10.6579 21.0172C11.0989 22.04 11.7568 22.9414 12.5803 23.6512C13.4038 24.361 14.3709 24.8602 15.4062 25.11V26.4375C15.2654 26.4375 15.1302 26.4968 15.0306 26.6023C14.931 26.7077 14.875 26.8508 14.875 27V29.25H3.1875C3.0466 29.25 2.91148 29.1907 2.81185 29.0852C2.71222 28.9798 2.65625 28.8367 2.65625 28.6875V8.4375H31.3438V28.6875C31.3438 28.8367 31.2878 28.9798 31.1882 29.0852C31.0885 29.1907 30.9534 29.25 30.8125 29.25Z" fill="#798071"/>
<path d="M22.3125 6.1875C22.8993 6.1875 23.375 5.68382 23.375 5.0625C23.375 4.44118 22.8993 3.9375 22.3125 3.9375C21.7257 3.9375 21.25 4.44118 21.25 5.0625C21.25 5.68382 21.7257 6.1875 22.3125 6.1875Z" fill="black"/>
<path d="M25.5 6.1875C26.0868 6.1875 26.5625 5.68382 26.5625 5.0625C26.5625 4.44118 26.0868 3.9375 25.5 3.9375C24.9132 3.9375 24.4375 4.44118 24.4375 5.0625C24.4375 5.68382 24.9132 6.1875 25.5 6.1875Z" fill="black"/>
<path d="M28.6875 6.1875C29.2743 6.1875 29.75 5.68382 29.75 5.0625C29.75 4.44118 29.2743 3.9375 28.6875 3.9375C28.1007 3.9375 27.625 4.44118 27.625 5.0625C27.625 5.68382 28.1007 6.1875 28.6875 6.1875Z" fill="black"/>
<path d="M23.0775 14.5125C23.0454 14.4468 23.0014 14.3884 22.948 14.3406C22.8946 14.2929 22.8328 14.2568 22.7662 14.2343C22.6317 14.1889 22.4857 14.202 22.3603 14.2706C22.2349 14.3393 22.1404 14.4578 22.0976 14.6002C22.0547 14.7426 22.0671 14.8972 22.1319 15.03C22.2169 15.2044 22.2966 15.3731 22.3762 15.5531C22.4174 15.6529 22.4849 15.7378 22.5707 15.7977C22.6565 15.8577 22.7569 15.8899 22.8597 15.8906C22.9332 15.8907 23.0058 15.8734 23.0722 15.84C23.1998 15.7796 23.2999 15.6684 23.3506 15.5305C23.4013 15.3925 23.3986 15.239 23.3431 15.1031C23.2634 14.9006 23.1731 14.7094 23.0775 14.5125ZM4.78125 5.625H14.875C15.0159 5.625 15.151 5.56574 15.2507 5.46025C15.3503 5.35476 15.4062 5.21168 15.4062 5.0625C15.4062 4.91332 15.3503 4.77024 15.2507 4.66475C15.151 4.55926 15.0159 4.5 14.875 4.5H4.78125C4.64035 4.5 4.50523 4.55926 4.4056 4.66475C4.30597 4.77024 4.25 4.91332 4.25 5.0625C4.25 5.21168 4.30597 5.35476 4.4056 5.46025C4.50523 5.56574 4.64035 5.625 4.78125 5.625ZM19.5022 15.3506C19.4527 15.2982 19.3939 15.2566 19.3291 15.2282C19.2644 15.1998 19.1951 15.1852 19.125 15.1852C19.0549 15.1852 18.9856 15.1998 18.9209 15.2282C18.8561 15.2566 18.7973 15.2982 18.7478 15.3506C18.6983 15.4031 18.659 15.4653 18.6322 15.5339C18.6054 15.6024 18.5916 15.6758 18.5916 15.75C18.5916 15.8242 18.6054 15.8976 18.6322 15.9661C18.659 16.0347 18.6983 16.0969 18.7478 16.1494L20.5009 18L18.7478 19.8506C18.698 19.9029 18.6585 19.9651 18.6315 20.0337C18.6046 20.1022 18.5907 20.1757 18.5907 20.25C18.5907 20.3243 18.6046 20.3978 18.6315 20.4663C18.6585 20.5349 18.698 20.5971 18.7478 20.6494C18.7972 20.7021 18.856 20.7439 18.9207 20.7725C18.9854 20.8011 19.0549 20.8158 19.125 20.8158C19.1951 20.8158 19.2646 20.8011 19.3293 20.7725C19.394 20.7439 19.4528 20.7021 19.5022 20.6494L21.6272 18.3994C21.677 18.3471 21.7165 18.2849 21.7435 18.2163C21.7704 18.1478 21.7843 18.0743 21.7843 18C21.7843 17.9257 21.7704 17.8522 21.7435 17.7837C21.7165 17.7151 21.677 17.6529 21.6272 17.6006L19.5022 15.3506ZM15.2522 15.3506C15.2028 15.2979 15.144 15.2561 15.0793 15.2275C15.0146 15.1989 14.9451 15.1842 14.875 15.1842C14.8049 15.1842 14.7354 15.1989 14.6707 15.2275C14.606 15.2561 14.5472 15.2979 14.4978 15.3506L12.3728 17.6006C12.323 17.6529 12.2835 17.7151 12.2565 17.7837C12.2296 17.8522 12.2157 17.9257 12.2157 18C12.2157 18.0743 12.2296 18.1478 12.2565 18.2163C12.2835 18.2849 12.323 18.3471 12.3728 18.3994L14.4978 20.6494C14.5472 20.7021 14.606 20.7439 14.6707 20.7725C14.7354 20.8011 14.8049 20.8158 14.875 20.8158C14.9451 20.8158 15.0146 20.8011 15.0793 20.7725C15.144 20.7439 15.2028 20.7021 15.2522 20.6494C15.302 20.5971 15.3415 20.5349 15.3685 20.4663C15.3954 20.3978 15.4093 20.3243 15.4093 20.25C15.4093 20.1757 15.3954 20.1022 15.3685 20.0337C15.3415 19.9651 15.302 19.9029 15.2522 19.8506L13.4991 18L15.2522 16.1494C15.302 16.0971 15.3415 16.0349 15.3685 15.9663C15.3954 15.8978 15.4093 15.8243 15.4093 15.75C15.4093 15.6757 15.3954 15.6022 15.3685 15.5337C15.3415 15.4651 15.302 15.4029 15.2522 15.3506ZM17.6375 14.625C17.5676 14.6087 17.4954 14.6074 17.425 14.6214C17.3547 14.6353 17.2878 14.6642 17.2282 14.7062C17.1687 14.7483 17.1178 14.8026 17.0786 14.866C17.0394 14.9293 17.0126 15.0004 17 15.075L15.9375 20.7C15.9221 20.774 15.9209 20.8505 15.9341 20.925C15.9473 20.9994 15.9745 21.0703 16.0142 21.1333C16.0539 21.1964 16.1052 21.2503 16.1651 21.2918C16.2249 21.3333 16.2921 21.3616 16.3625 21.375H16.4688C16.593 21.3777 16.7143 21.3341 16.8113 21.2519C16.9084 21.1696 16.9752 21.054 17 20.925L18.0625 15.3C18.0779 15.226 18.0791 15.1495 18.0659 15.075C18.0527 15.0006 18.0255 14.9297 17.9858 14.8667C17.9461 14.8036 17.8948 14.7497 17.8349 14.7082C17.7751 14.6667 17.7079 14.6384 17.6375 14.625Z" fill="#714EE8"/>
</svg>
