<svg width="36" height="36" viewBox="0 0 36 36" fill="none" xmlns="http://www.w3.org/2000/svg">
<g clip-path="url(#clip0_129_135)">
<path d="M24.0281 26.0586L26.0591 24.0276L28.5585 26.5269L26.5274 28.5579L24.0281 26.0586Z" fill="#714EE8"/>
<path d="M26.0585 24.0278L25.5311 24.5552L26.4902 25.5142C26.7589 25.783 26.9098 26.1474 26.9098 26.5274C26.9098 26.9075 26.7589 27.2719 26.4902 27.5406L25.998 28.0328L26.5253 28.5602L28.556 26.5295L26.0585 24.0278Z" fill="#714EE8"/>
<path d="M34.7288 34.7288C34.4929 34.9647 34.2128 35.1519 33.9046 35.2796C33.5963 35.4073 33.2659 35.473 32.9323 35.473C32.5987 35.473 32.2683 35.4073 31.96 35.2796C31.6518 35.1519 31.3717 34.9647 31.1358 34.7288L26.5275 30.1205C26.4248 30.018 26.3434 29.8962 26.2878 29.7622C26.2322 29.6281 26.2036 29.4844 26.2036 29.3393C26.2036 29.1942 26.2322 29.0505 26.2878 28.9165C26.3434 28.7825 26.4248 28.6607 26.5275 28.5582L28.5582 26.5275C28.6607 26.4248 28.7825 26.3434 28.9165 26.2878C29.0505 26.2322 29.1942 26.2036 29.3393 26.2036C29.4844 26.2036 29.6281 26.2322 29.7622 26.2878C29.8962 26.3434 30.018 26.4248 30.1205 26.5275L34.7288 31.1358C34.9647 31.3717 35.1519 31.6518 35.2796 31.96C35.4073 32.2683 35.473 32.5987 35.473 32.9323C35.473 33.2659 35.4073 33.5963 35.2796 33.9046C35.1519 34.2128 34.9647 34.4929 34.7288 34.7288Z" fill="#714EE8"/>
<path d="M34.7288 31.1358L30.1205 26.5275C30.018 26.4248 29.8962 26.3434 29.7622 26.2878C29.6281 26.2322 29.4845 26.2036 29.3394 26.2036C29.1942 26.2036 29.0506 26.2322 28.9165 26.2878C28.7825 26.3434 28.6607 26.4248 28.5582 26.5275L28.2847 26.801L32.6194 31.1358C32.8554 31.3717 33.0425 31.6518 33.1702 31.96C33.2979 32.2683 33.3637 32.5987 33.3637 32.9323C33.3637 33.2659 33.2979 33.5963 33.1702 33.9046C33.0425 34.2128 32.8554 34.4929 32.6194 34.7288C32.4049 34.9432 32.1536 35.1175 31.8776 35.2435C32.3487 35.4583 32.8742 35.5241 33.3837 35.4321C33.8933 35.3401 34.3626 35.0948 34.7288 34.7288C34.9648 34.4929 35.1519 34.2128 35.2796 33.9046C35.4073 33.5963 35.473 33.2659 35.473 32.9323C35.473 32.5987 35.4073 32.2683 35.2796 31.96C35.1519 31.6518 34.9648 31.3717 34.7288 31.1358Z" fill="#798071"/>
<path d="M25.3892 25.3895C31.0784 19.7004 31.0784 10.4764 25.3892 4.78722C19.7 -0.90196 10.4761 -0.90196 4.78688 4.78722C-0.902294 10.4764 -0.902294 19.7004 4.78688 25.3895C10.4761 31.0787 19.7 31.0787 25.3892 25.3895Z" fill="#8F8F8F"/>
<path d="M15.0884 26.8116C21.5629 26.8116 26.8116 21.563 26.8116 15.0884C26.8116 8.61389 21.5629 3.36523 15.0884 3.36523C8.61383 3.36523 3.36517 8.61389 3.36517 15.0884C3.36517 21.563 8.61383 26.8116 15.0884 26.8116Z" fill="white"/>
<path d="M18.1118 13.4296H12.0649C11.9251 13.4296 11.7909 13.3741 11.6921 13.2752C11.5932 13.1763 11.5376 13.0421 11.5376 12.9023V10.5116C11.538 10.1181 11.6945 9.74077 11.9727 9.4625C12.251 9.18422 12.6283 9.02772 13.0219 9.02734H17.1563C17.5498 9.02772 17.9271 9.18422 18.2054 9.4625C18.4837 9.74077 18.6402 10.1181 18.6406 10.5116V12.9023C18.6406 12.9716 18.6269 13.0403 18.6003 13.1044C18.5737 13.1685 18.5347 13.2267 18.4856 13.2757C18.4365 13.3246 18.3782 13.3635 18.3141 13.3899C18.2499 13.4163 18.1812 13.4298 18.1118 13.4296ZM12.5923 12.3749H17.5845V10.5095C17.5843 10.3956 17.539 10.2865 17.4584 10.206C17.3779 10.1254 17.2687 10.0801 17.1549 10.0799H13.0219C12.908 10.0801 12.7988 10.1254 12.7183 10.206C12.6378 10.2865 12.5925 10.3956 12.5923 10.5095V12.3749Z" fill="#714EE8"/>
<path d="M20.8188 11.8477H9.35859C8.88056 11.8477 8.49304 12.2352 8.49304 12.7132V19.7585C8.49304 20.2365 8.88056 20.6241 9.35859 20.6241H20.8188C21.2969 20.6241 21.6844 20.2365 21.6844 19.7585V12.7132C21.6844 12.2352 21.2969 11.8477 20.8188 11.8477Z" fill="#8F8F8F"/>
<path d="M20.8181 11.8477H18.7087C18.9384 11.8477 19.1586 11.9388 19.321 12.1011C19.4835 12.2634 19.5748 12.4836 19.575 12.7132V19.7578C19.5748 19.9874 19.4835 20.2076 19.321 20.3699C19.1586 20.5322 18.9384 20.6234 18.7087 20.6234H20.8181C21.0477 20.6234 21.268 20.5322 21.4304 20.3699C21.5928 20.2076 21.6842 19.9874 21.6844 19.7578V12.7132C21.6842 12.4836 21.5928 12.2634 21.4304 12.1011C21.268 11.9388 21.0477 11.8477 20.8181 11.8477Z" fill="#C4C4C4"/>
<path d="M21.6844 14.4844L15.6614 17.1063C15.4806 17.1849 15.2855 17.2255 15.0884 17.2255C14.8912 17.2255 14.6961 17.1849 14.5153 17.1063L8.49304 14.4844V12.7132C8.49304 12.4836 8.58423 12.2635 8.74655 12.1012C8.90888 11.9388 9.12903 11.8477 9.35859 11.8477H20.8195C21.0491 11.8477 21.2694 11.9388 21.4318 12.1011C21.5942 12.2634 21.6856 12.4836 21.6858 12.7132L21.6844 14.4844Z" fill="#714EE8"/>
<path d="M20.8181 11.8477H18.7087C18.9384 11.8477 19.1586 11.9388 19.321 12.1011C19.4835 12.2634 19.5748 12.4836 19.575 12.7132V15.3984L21.6844 14.4802V12.7132C21.6842 12.4836 21.5928 12.2634 21.4304 12.1011C21.268 11.9388 21.0477 11.8477 20.8181 11.8477Z" fill="#714EE8"/>
<path d="M15.6509 15.9644H14.5259C14.2541 15.9644 14.0337 16.1847 14.0337 16.4565V17.5815C14.0337 17.8534 14.2541 18.0737 14.5259 18.0737H15.6509C15.9227 18.0737 16.1431 17.8534 16.1431 17.5815V16.4565C16.1431 16.1847 15.9227 15.9644 15.6509 15.9644Z" fill="#714EE8"/>
<path d="M15.6508 15.9644H14.8436C14.9742 15.9644 15.0994 16.0162 15.1917 16.1085C15.284 16.2008 15.3358 16.326 15.3358 16.4565V17.5815C15.3358 17.7121 15.284 17.8373 15.1917 17.9296C15.0994 18.0219 14.9742 18.0737 14.8436 18.0737H15.6508C15.7814 18.0737 15.9065 18.0219 15.9988 17.9296C16.0911 17.8373 16.143 17.7121 16.143 17.5815V16.4565C16.143 16.326 16.0911 16.2008 15.9988 16.1085C15.9065 16.0162 15.7814 15.9644 15.6508 15.9644Z" fill="#C4C4C4"/>
</g>
<defs>
<clipPath id="clip0_129_135">
<rect width="36" height="36" fill="white"/>
</clipPath>
</defs>
</svg>
