<svg width="16" height="23" viewBox="0 0 16 23" fill="none" xmlns="http://www.w3.org/2000/svg">
<path d="M12.5714 0H3.42857C1.53585 0.00210576 0.00209269 1.54545 0 3.44999V22.425C0.000139543 22.5251 0.0262975 22.6236 0.0758231 22.7105C0.233119 22.9864 0.582938 23.0818 0.857143 22.9236L8 18.784L15.1429 22.9236C15.23 22.9734 15.3284 22.9997 15.4286 23C15.7439 22.9994 15.9994 22.7423 16 22.425V3.44999C15.9979 1.54545 14.4641 0.00210576 12.5714 0ZM14.8571 21.4299L8.28571 17.6217C8.19859 17.5719 8.10017 17.5456 8 17.5453C7.89983 17.5456 7.80141 17.5719 7.71429 17.6217L1.14286 21.4299V3.44999C1.14446 2.18039 2.16685 1.15161 3.42857 1.15H12.5714C13.8331 1.15161 14.8555 2.18039 14.8571 3.44999V21.4299Z" fill="black"/>
</svg>
