<svg width="597" height="529" viewBox="0 0 597 529" fill="none" xmlns="http://www.w3.org/2000/svg">
<g opacity="0.4">
<path d="M328.141 528.281L596.758 374.178L268.617 185.8L0 339.904L328.141 528.281Z" fill="#CFCFCF"/>
</g>
<path d="M328.141 500.431L596.758 346.329L268.617 157.951L0 312.053L328.141 500.431Z" fill="#E9F0FD"/>
<path d="M328.141 500.432V505.729L596.758 351.612V346.329L328.141 500.432Z" fill="#714EE8"/>
<path d="M328.141 505.729L0 317.343V312.053L328.141 500.431V505.729Z" fill="#714EE8"/>
<path d="M140.029 270.612L311.908 369.075L426.494 303.434L254.615 204.971L140.029 270.612Z" fill="#D8E4FB"/>
<mask id="mask0_4_6208" style="mask-type:luminance" maskUnits="userSpaceOnUse" x="93" y="0" width="414" height="374">
<path d="M93.2427 0.65387H506.049V373.246H93.2427V0.65387Z" fill="white"/>
</mask>
<g mask="url(#mask0_4_6208)">
<path d="M129.24 244.564L313.294 350.001L435.996 279.71L251.943 174.273L129.24 244.564Z" fill="#DDDDDD"/>
<path d="M313.295 351.984V350.001L435.998 279.709V281.692L313.295 351.984Z" fill="#727272"/>
<path d="M426.762 134.275L265.637 42.1456C259.355 38.5537 251.508 43.0528 251.508 50.2482V174.649L432.603 278.198L433.692 281.07L435.734 279.988V149.679C435.734 143.322 432.312 137.449 426.762 134.275Z" fill="#727272"/>
<path d="M313.297 351.984L129.242 246.547V244.563L313.297 350.001V351.984Z" fill="#727272"/>
<path d="M433.692 281.07L249.467 175.731V51.3315C249.467 44.1349 257.314 39.6357 263.596 43.2289L424.719 135.357C430.271 138.531 433.692 144.406 433.692 150.761V281.07Z" fill="#DDDDDD"/>
<path d="M426.943 272.308L256.217 174.69V47.7689L426.943 145.388V272.308Z" fill="#FAFAFA"/>
<path d="M259.781 199.535L248.148 192.858C247.631 192.56 247.761 192.005 248.438 191.619L253.495 188.724C254.173 188.337 255.141 188.263 255.657 188.559L267.291 195.236C267.808 195.534 267.677 196.087 267.001 196.475L261.943 199.369C261.265 199.757 260.297 199.831 259.781 199.535Z" fill="#507B9F"/>
<path d="M274.382 207.916L262.748 201.239C262.232 200.941 262.362 200.388 263.04 200L268.097 197.106C268.774 196.718 269.742 196.644 270.258 196.94L281.892 203.617C282.409 203.914 282.278 204.469 281.602 204.857L276.544 207.751C275.866 208.138 274.899 208.212 274.382 207.916Z" fill="#507B9F"/>
<path d="M288.985 216.298L277.35 209.621C276.835 209.323 276.964 208.768 277.642 208.382L282.699 205.486C283.376 205.1 284.345 205.026 284.861 205.322L296.495 211.999C297.012 212.296 296.882 212.85 296.203 213.238L291.146 216.132C290.469 216.52 289.502 216.594 288.985 216.298Z" fill="#507B9F"/>
<path d="M303.587 224.679L291.953 218.001C291.437 217.704 291.567 217.15 292.245 216.762L297.301 213.868C297.979 213.481 298.947 213.407 299.463 213.703L311.097 220.38C311.613 220.677 311.483 221.232 310.804 221.62L305.749 224.514C305.071 224.901 304.103 224.975 303.587 224.679Z" fill="#507B9F"/>
<path d="M318.189 233.061L306.553 226.383C306.037 226.086 306.168 225.531 306.846 225.144L311.903 222.249C312.582 221.863 313.549 221.789 314.064 222.085L325.699 228.762C326.214 229.059 326.085 229.613 325.406 230.001L320.35 232.895C319.673 233.283 318.704 233.357 318.189 233.061Z" fill="#507B9F"/>
<path d="M332.791 241.441L321.155 234.764C320.64 234.467 320.771 233.913 321.449 233.525L326.505 230.631C327.183 230.243 328.151 230.169 328.667 230.465L340.301 237.143C340.817 237.44 340.686 237.995 340.008 238.383L334.953 241.277C334.275 241.663 333.307 241.738 332.791 241.441Z" fill="#507B9F"/>
<path d="M347.392 249.824L335.757 243.146C335.241 242.849 335.371 242.294 336.05 241.907L341.106 239.012C341.785 238.625 342.752 238.551 343.268 238.847L354.903 245.525C355.418 245.822 355.288 246.376 354.609 246.764L349.554 249.658C348.875 250.046 347.908 250.12 347.392 249.824Z" fill="#507B9F"/>
<path d="M361.995 258.206L350.359 251.528C349.843 251.231 349.975 250.677 350.652 250.289L355.709 247.395C356.387 247.007 357.355 246.933 357.871 247.229L369.505 253.907C370.021 254.204 369.89 254.759 369.212 255.147L364.157 258.041C363.479 258.428 362.51 258.502 361.995 258.206Z" fill="#507B9F"/>
<path d="M376.596 266.586L364.96 259.909C364.445 259.612 364.574 259.057 365.253 258.67L370.31 255.775C370.988 255.388 371.956 255.314 372.472 255.61L384.106 262.287C384.622 262.585 384.492 263.139 383.813 263.526L378.758 266.42C378.079 266.808 377.112 266.882 376.596 266.586Z" fill="#507B9F"/>
<path d="M391.199 274.968L379.563 268.291C379.047 267.994 379.177 267.44 379.856 267.052L384.913 264.158C385.59 263.77 386.559 263.696 387.074 263.992L398.709 270.67C399.225 270.967 399.093 271.522 398.416 271.91L393.36 274.804C392.683 275.19 391.714 275.264 391.199 274.968Z" fill="#507B9F"/>
<path d="M405.8 283.349L394.165 276.672C393.648 276.375 393.78 275.821 394.457 275.433L399.514 272.539C400.192 272.151 401.16 272.077 401.676 272.373L413.31 279.052C413.826 279.348 413.696 279.903 413.018 280.291L407.962 283.185C407.284 283.572 406.316 283.645 405.8 283.349Z" fill="#507B9F"/>
<path d="M246.643 206.794L235.46 200.376C234.82 200.007 234.982 199.321 235.821 198.84L244.35 193.958C245.191 193.477 246.392 193.385 247.034 193.754L258.217 200.172C258.858 200.541 258.696 201.227 257.855 201.708L249.326 206.59C248.486 207.072 247.285 207.163 246.643 206.794Z" fill="#507B9F"/>
<path d="M261.244 215.176L250.061 208.757C249.421 208.389 249.583 207.702 250.423 207.219L258.951 202.338C259.792 201.857 260.994 201.766 261.635 202.133L272.818 208.553C273.459 208.92 273.297 209.609 272.456 210.09L263.927 214.971C263.087 215.452 261.886 215.544 261.244 215.176Z" fill="#507B9F"/>
<path d="M275.847 223.557L264.664 217.139C264.023 216.77 264.185 216.084 265.025 215.603L273.554 210.721C274.395 210.239 275.596 210.148 276.237 210.516L287.421 216.935C288.061 217.303 287.899 217.99 287.058 218.471L278.53 223.353C277.69 223.835 276.489 223.926 275.847 223.557Z" fill="#507B9F"/>
<path d="M290.448 231.939L279.265 225.52C278.625 225.152 278.787 224.464 279.626 223.982L288.155 219.101C288.996 218.62 290.197 218.528 290.839 218.896L302.021 225.315C302.663 225.683 302.501 226.372 301.659 226.853L293.131 231.734C292.291 232.215 291.09 232.307 290.448 231.939Z" fill="#507B9F"/>
<path d="M305.051 240.32L293.868 233.902C293.227 233.533 293.388 232.846 294.229 232.365L302.758 227.483C303.599 227.002 304.8 226.91 305.442 227.279L316.623 233.697C317.265 234.066 317.103 234.753 316.262 235.234L307.733 240.116C306.894 240.598 305.692 240.689 305.051 240.32Z" fill="#507B9F"/>
<path d="M319.652 248.702L308.469 242.282C307.828 241.915 307.991 241.227 308.83 240.745L317.36 235.864C318.2 235.383 319.401 235.291 320.043 235.659L331.225 242.078C331.866 242.446 331.704 243.135 330.865 243.616L322.335 248.497C321.495 248.978 320.292 249.069 319.652 248.702Z" fill="#507B9F"/>
<path d="M334.254 257.083L323.071 250.664C322.431 250.296 322.593 249.609 323.433 249.128L331.961 244.246C332.803 243.765 334.004 243.673 334.645 244.042L345.827 250.46C346.469 250.829 346.307 251.515 345.466 251.997L336.937 256.879C336.097 257.361 334.895 257.451 334.254 257.083Z" fill="#507B9F"/>
<path d="M348.857 265.465L337.675 259.045C337.034 258.678 337.194 257.99 338.035 257.508L346.563 252.627C347.404 252.146 348.605 252.054 349.247 252.421L360.43 258.841C361.07 259.209 360.909 259.898 360.07 260.379L351.54 265.259C350.7 265.74 349.497 265.832 348.857 265.465Z" fill="#507B9F"/>
<path d="M363.457 273.847L352.275 267.428C351.635 267.06 351.797 266.372 352.637 265.891L361.165 261.009C362.006 260.528 363.207 260.436 363.849 260.805L375.031 267.223C375.673 267.592 375.511 268.28 374.67 268.761L366.141 273.643C365.301 274.124 364.099 274.214 363.457 273.847Z" fill="#507B9F"/>
<path d="M378.061 282.228L366.876 275.809C366.236 275.442 366.399 274.754 367.239 274.273L375.767 269.391C376.606 268.909 377.809 268.818 378.45 269.186L389.633 275.606C390.274 275.974 390.112 276.663 389.271 277.144L380.743 282.025C379.904 282.506 378.701 282.595 378.061 282.228Z" fill="#507B9F"/>
<path d="M392.662 290.608L381.479 284.191C380.839 283.824 381.001 283.134 381.84 282.653L390.369 277.771C391.21 277.289 392.411 277.198 393.052 277.566L404.235 283.987C404.877 284.356 404.715 285.042 403.873 285.524L395.345 290.405C394.505 290.887 393.303 290.977 392.662 290.608Z" fill="#507B9F"/>
<path d="M233.73 214.184L222.549 207.765C221.907 207.397 222.069 206.709 222.909 206.228L231.438 201.347C232.279 200.865 233.481 200.774 234.121 201.142L245.304 207.561C245.945 207.929 245.783 208.616 244.943 209.097L236.413 213.978C235.573 214.46 234.372 214.552 233.73 214.184Z" fill="#507B9F"/>
<path d="M248.333 222.564L237.15 216.146C236.51 215.779 236.672 215.09 237.511 214.607L246.04 209.728C246.881 209.247 248.082 209.155 248.724 209.524L259.907 215.942C260.547 216.311 260.385 216.997 259.544 217.478L251.016 222.36C250.176 222.843 248.975 222.933 248.333 222.564Z" fill="#507B9F"/>
<path d="M262.934 230.946L251.751 224.528C251.111 224.159 251.273 223.472 252.113 222.991L260.641 218.11C261.482 217.628 262.683 217.537 263.325 217.904L274.508 224.324C275.149 224.691 274.987 225.379 274.146 225.86L265.617 230.741C264.777 231.223 263.576 231.315 262.934 230.946Z" fill="#507B9F"/>
<path d="M277.537 239.328L266.355 232.91C265.713 232.543 265.875 231.854 266.715 231.371L275.244 226.492C276.085 226.011 277.286 225.919 277.928 226.288L289.111 232.706C289.751 233.075 289.589 233.761 288.748 234.242L280.219 239.124C279.38 239.607 278.178 239.697 277.537 239.328Z" fill="#507B9F"/>
<path d="M292.138 247.709L280.955 241.291C280.314 240.922 280.476 240.234 281.316 239.753L289.845 234.873C290.686 234.39 291.887 234.3 292.529 234.667L303.712 241.087C304.352 241.454 304.19 242.142 303.349 242.623L294.821 247.504C293.979 247.986 292.78 248.078 292.138 247.709Z" fill="#507B9F"/>
<path d="M306.742 256.091L295.557 249.673C294.917 249.306 295.079 248.616 295.92 248.134L304.448 243.255C305.289 242.774 306.49 242.682 307.13 243.051L318.315 249.469C318.955 249.838 318.793 250.524 317.952 251.005L309.424 255.887C308.585 256.369 307.382 256.46 306.742 256.091Z" fill="#507B9F"/>
<path d="M321.342 264.473L310.16 258.055C309.518 257.686 309.68 256.998 310.521 256.517L319.05 251.637C319.89 251.154 321.092 251.064 321.734 251.431L332.916 257.851C333.556 258.218 333.394 258.906 332.554 259.387L324.026 264.268C323.186 264.75 321.983 264.842 321.342 264.473Z" fill="#507B9F"/>
<path d="M335.946 272.854L324.761 266.436C324.121 266.067 324.283 265.379 325.124 264.898L333.651 260.016C334.491 259.535 335.693 259.445 336.334 259.812L347.518 266.232C348.159 266.599 347.997 267.288 347.156 267.769L338.628 272.65C337.787 273.131 336.586 273.223 335.946 272.854Z" fill="#507B9F"/>
<path d="M350.546 281.235L339.364 274.817C338.722 274.449 338.884 273.761 339.725 273.28L348.254 268.397C349.094 267.916 350.296 267.825 350.936 268.193L362.12 274.614C362.76 274.981 362.598 275.669 361.758 276.151L353.229 281.032C352.39 281.513 351.187 281.602 350.546 281.235Z" fill="#507B9F"/>
<path d="M365.148 289.618L353.965 283.2C353.323 282.832 353.485 282.143 354.326 281.662L362.855 276.78C363.695 276.299 364.897 276.207 365.538 276.576L376.721 282.996C377.361 283.365 377.199 284.052 376.359 284.533L367.831 289.414C366.99 289.895 365.788 289.987 365.148 289.618Z" fill="#507B9F"/>
<path d="M379.749 298L368.568 291.581C367.926 291.213 368.088 290.525 368.929 290.044L377.458 285.162C378.297 284.681 379.5 284.589 380.14 284.957L391.323 291.378C391.964 291.745 391.802 292.433 390.962 292.914L382.433 297.795C381.592 298.276 380.391 298.368 379.749 298Z" fill="#507B9F"/>
<path d="M220.819 221.573L209.636 215.155C208.996 214.786 209.156 214.098 209.997 213.617L218.526 208.735C219.367 208.254 220.568 208.163 221.209 208.531L232.392 214.95C233.033 215.318 232.871 216.007 232.03 216.488L223.502 221.369C222.661 221.85 221.459 221.942 220.819 221.573Z" fill="#507B9F"/>
<path d="M235.422 229.955L224.239 223.535C223.597 223.168 223.759 222.48 224.599 221.999L233.127 217.117C233.968 216.636 235.171 216.546 235.811 216.913L246.996 223.333C247.637 223.7 247.473 224.388 246.633 224.869L238.104 229.75C237.264 230.232 236.063 230.324 235.422 229.955Z" fill="#507B9F"/>
<path d="M250.024 238.336L238.84 231.917C238.198 231.549 238.361 230.861 239.202 230.38L247.731 225.498C248.572 225.017 249.772 224.926 250.414 225.294L261.597 231.713C262.239 232.081 262.075 232.77 261.234 233.251L252.707 238.132C251.866 238.613 250.665 238.704 250.024 238.336Z" fill="#507B9F"/>
<path d="M264.624 246.718L253.441 240.298C252.801 239.931 252.963 239.243 253.804 238.762L262.331 233.88C263.173 233.399 264.373 233.308 265.015 233.676L276.198 240.095C276.838 240.463 276.678 241.151 275.835 241.632L267.308 246.512C266.467 246.993 265.266 247.087 264.624 246.718Z" fill="#507B9F"/>
<path d="M279.227 255.099L268.045 248.68C267.403 248.312 267.565 247.624 268.405 247.143L276.935 242.261C277.775 241.78 278.976 241.689 279.617 242.057L290.801 248.476C291.441 248.844 291.279 249.533 290.439 250.014L281.909 254.894C281.069 255.375 279.868 255.467 279.227 255.099Z" fill="#507B9F"/>
<path d="M293.828 263.481L282.645 257.061C282.004 256.694 282.166 256.006 283.006 255.525L291.535 250.643C292.376 250.162 293.577 250.071 294.219 250.439L305.4 256.858C306.042 257.226 305.88 257.913 305.04 258.394L296.512 263.275C295.671 263.756 294.469 263.849 293.828 263.481Z" fill="#507B9F"/>
<path d="M308.43 271.863L297.249 265.444C296.607 265.076 296.769 264.388 297.61 263.907L306.137 259.025C306.978 258.544 308.181 258.453 308.821 258.821L320.004 265.24C320.645 265.608 320.483 266.297 319.643 266.778L311.114 271.658C310.273 272.14 309.072 272.231 308.43 271.863Z" fill="#507B9F"/>
<path d="M323.032 280.243L311.85 273.825C311.208 273.458 311.37 272.769 312.21 272.288L320.74 267.406C321.58 266.924 322.781 266.834 323.423 267.201L334.604 273.621C335.246 273.988 335.084 274.676 334.244 275.159L325.714 280.038C324.874 280.52 323.673 280.611 323.032 280.243Z" fill="#507B9F"/>
<path d="M337.634 288.625L326.451 282.207C325.811 281.84 325.973 281.151 326.812 280.67L335.341 275.788C336.182 275.307 337.383 275.215 338.025 275.583L349.208 282.003C349.848 282.372 349.686 283.059 348.845 283.541L340.318 288.421C339.477 288.902 338.274 288.994 337.634 288.625Z" fill="#507B9F"/>
<path d="M352.235 297.007L341.054 290.588C340.412 290.22 340.574 289.533 341.414 289.052L349.944 284.17C350.783 283.689 351.985 283.597 352.626 283.964L363.808 290.384C364.45 290.752 364.288 291.44 363.448 291.921L354.918 296.802C354.078 297.283 352.877 297.375 352.235 297.007Z" fill="#507B9F"/>
<path d="M366.838 305.39L355.655 298.971C355.014 298.602 355.176 297.915 356.016 297.434L364.545 292.552C365.386 292.071 366.587 291.979 367.229 292.346L378.411 298.766C379.052 299.135 378.89 299.822 378.049 300.305L369.52 305.185C368.681 305.666 367.478 305.757 366.838 305.39Z" fill="#507B9F"/>
<path d="M207.908 228.962L196.725 222.543C196.083 222.175 196.246 221.487 197.087 221.006L205.615 216.124C206.456 215.643 207.657 215.553 208.297 215.92L219.482 222.341C220.123 222.709 219.96 223.395 219.119 223.876L210.59 228.757C209.749 229.238 208.549 229.33 207.908 228.962Z" fill="#507B9F"/>
<path d="M222.509 237.344L211.326 230.926C210.685 230.557 210.846 229.869 211.687 229.388L220.216 224.506C221.057 224.025 222.258 223.935 222.9 224.302L234.083 230.722C234.723 231.089 234.561 231.778 233.72 232.259L225.191 237.14C224.35 237.621 223.149 237.713 222.509 237.344Z" fill="#507B9F"/>
<path d="M237.111 245.725L225.928 239.305C225.288 238.938 225.45 238.25 226.29 237.769L234.818 232.887C235.659 232.406 236.861 232.316 237.501 232.683L248.684 239.104C249.326 239.471 249.164 240.158 248.323 240.639L239.794 245.52C238.954 246.001 237.753 246.092 237.111 245.725Z" fill="#507B9F"/>
<path d="M251.714 254.107L240.53 247.689C239.888 247.32 240.051 246.632 240.892 246.151L249.421 241.269C250.262 240.788 251.462 240.698 252.104 241.065L263.287 247.485C263.928 247.852 263.765 248.541 262.924 249.022L254.397 253.903C253.555 254.384 252.354 254.476 251.714 254.107Z" fill="#507B9F"/>
<path d="M266.315 262.488L255.132 256.068C254.492 255.701 254.652 255.013 255.493 254.532L264.022 249.65C264.863 249.169 266.064 249.078 266.705 249.446L277.889 255.867C278.53 256.234 278.367 256.921 277.526 257.402L268.998 262.282C268.158 262.764 266.957 262.855 266.315 262.488Z" fill="#507B9F"/>
<path d="M280.916 270.87L269.735 264.452C269.093 264.083 269.255 263.395 270.095 262.914L278.625 258.032C279.464 257.551 280.666 257.46 281.307 257.828L292.49 264.247C293.131 264.615 292.969 265.304 292.129 265.785L283.599 270.666C282.759 271.147 281.558 271.239 280.916 270.87Z" fill="#507B9F"/>
<path d="M295.519 279.252L284.336 272.832C283.695 272.465 283.856 271.778 284.697 271.297L293.226 266.414C294.066 265.933 295.268 265.842 295.91 266.21L307.092 272.631C307.733 272.998 307.571 273.686 306.73 274.168L298.201 279.046C297.362 279.529 296.159 279.619 295.519 279.252Z" fill="#507B9F"/>
<path d="M310.121 287.634L298.937 281.214C298.297 280.847 298.46 280.159 299.3 279.678L307.827 274.795C308.668 274.314 309.869 274.222 310.51 274.591L321.694 281.012C322.335 281.379 322.173 282.068 321.331 282.549L312.804 287.43C311.964 287.911 310.762 288.003 310.121 287.634Z" fill="#507B9F"/>
<path d="M324.723 296.016L313.54 289.596C312.899 289.229 313.061 288.541 313.901 288.06L322.43 283.178C323.269 282.697 324.472 282.605 325.114 282.973L336.295 289.392C336.937 289.761 336.775 290.449 335.934 290.93L327.405 295.811C326.565 296.292 325.363 296.384 324.723 296.016Z" fill="#507B9F"/>
<path d="M339.325 304.397L328.141 297.978C327.5 297.61 327.662 296.922 328.503 296.441L337.031 291.559C337.872 291.078 339.073 290.986 339.714 291.353L350.898 297.773C351.538 298.142 351.376 298.83 350.535 299.312L342.008 304.191C341.167 304.674 339.966 304.764 339.325 304.397Z" fill="#507B9F"/>
<path d="M353.926 312.778L342.743 306.359C342.103 305.992 342.265 305.303 343.105 304.822L351.633 299.94C352.474 299.459 353.676 299.367 354.316 299.734L365.499 306.155C366.141 306.523 365.979 307.21 365.138 307.693L356.609 312.572C355.769 313.054 354.567 313.145 353.926 312.778Z" fill="#507B9F"/>
<path d="M194.995 236.353L183.813 229.934C183.171 229.566 183.333 228.878 184.173 228.397L192.702 223.515C193.543 223.034 194.744 222.943 195.386 223.311L206.569 229.73C207.209 230.098 207.047 230.787 206.207 231.268L197.677 236.149C196.838 236.628 195.637 236.722 194.995 236.353Z" fill="#507B9F"/>
<path d="M209.599 244.734L198.414 238.314C197.773 237.947 197.936 237.258 198.777 236.778L207.306 231.896C208.147 231.415 209.348 231.324 209.988 231.692L221.171 238.112C221.813 238.48 221.65 239.166 220.809 239.647L212.281 244.528C211.44 245.009 210.239 245.101 209.599 244.734Z" fill="#507B9F"/>
<path d="M224.199 253.114L213.016 246.696C212.375 246.327 212.536 245.641 213.377 245.16L221.906 240.278C222.747 239.797 223.948 239.705 224.59 240.074L235.773 246.493C236.413 246.861 236.251 247.55 235.41 248.031L226.881 252.911C226.041 253.393 224.84 253.483 224.199 253.114Z" fill="#507B9F"/>
<path d="M311.617 303.294L227.811 255.189C227.063 254.76 227.252 253.956 228.231 253.396L236.255 248.804C237.235 248.243 238.637 248.135 239.384 248.565L323.19 296.672C323.937 297.101 323.749 297.902 322.769 298.463L314.746 303.056C313.765 303.616 312.364 303.723 311.617 303.294Z" fill="#507B9F"/>
<path d="M326.411 311.786L315.229 305.368C314.588 304.999 314.75 304.311 315.589 303.83L324.119 298.948C324.959 298.467 326.162 298.375 326.802 298.743L337.985 305.164C338.626 305.531 338.464 306.219 337.624 306.7L329.095 311.581C328.254 312.063 327.053 312.154 326.411 311.786Z" fill="#507B9F"/>
<path d="M341.014 320.167L329.832 313.75C329.19 313.381 329.352 312.692 330.193 312.211L338.722 307.329C339.562 306.848 340.763 306.756 341.405 307.125L352.588 313.546C353.228 313.913 353.066 314.601 352.226 315.082L343.698 319.964C342.857 320.445 341.655 320.536 341.014 320.167Z" fill="#1473E6"/>
<path d="M259.781 199.165L248.148 192.488C247.631 192.19 247.761 191.635 248.438 191.247L253.495 188.354C254.173 187.967 255.141 187.893 255.657 188.189L267.291 194.866C267.808 195.164 267.677 195.717 267.001 196.105L261.943 198.999C261.265 199.387 260.297 199.461 259.781 199.165Z" fill="#8F8F8F"/>
<path d="M274.382 207.546L262.748 200.869C262.232 200.571 262.362 200.017 263.04 199.63L268.097 196.734C268.774 196.348 269.742 196.274 270.258 196.57L281.892 203.247C282.409 203.544 282.278 204.099 281.602 204.486L276.544 207.381C275.866 207.768 274.899 207.842 274.382 207.546Z" fill="#8F8F8F"/>
<path d="M288.985 215.928L277.35 209.251C276.835 208.953 276.964 208.398 277.642 208.01L282.699 205.116C283.376 204.73 284.345 204.656 284.861 204.952L296.495 211.629C297.012 211.926 296.882 212.48 296.203 212.868L291.146 215.762C290.469 216.15 289.502 216.224 288.985 215.928Z" fill="#8F8F8F"/>
<path d="M303.587 224.309L291.953 217.631C291.437 217.334 291.567 216.78 292.245 216.392L297.301 213.497C297.979 213.11 298.947 213.036 299.463 213.332L311.097 220.01C311.613 220.307 311.483 220.862 310.804 221.249L305.749 224.144C305.071 224.531 304.103 224.605 303.587 224.309Z" fill="#8F8F8F"/>
<path d="M318.189 232.691L306.553 226.013C306.037 225.716 306.168 225.161 306.846 224.773L311.903 221.879C312.582 221.493 313.549 221.419 314.064 221.715L325.699 228.392C326.214 228.689 326.085 229.243 325.406 229.631L320.35 232.525C319.673 232.913 318.704 232.987 318.189 232.691Z" fill="#8F8F8F"/>
<path d="M332.791 241.071L321.155 234.393C320.64 234.097 320.771 233.543 321.449 233.155L326.505 230.26C327.183 229.873 328.151 229.799 328.667 230.095L340.301 236.773C340.817 237.07 340.686 237.625 340.008 238.012L334.953 240.907C334.275 241.293 333.307 241.367 332.791 241.071Z" fill="#8F8F8F"/>
<path d="M347.392 249.454L335.757 242.776C335.241 242.479 335.371 241.924 336.05 241.536L341.106 238.642C341.785 238.255 342.752 238.181 343.268 238.477L354.903 245.155C355.418 245.452 355.288 246.006 354.609 246.394L349.554 249.288C348.875 249.676 347.908 249.75 347.392 249.454Z" fill="#8F8F8F"/>
<path d="M361.995 257.836L350.359 251.157C349.843 250.861 349.975 250.307 350.652 249.918L355.709 247.024C356.387 246.637 357.355 246.563 357.871 246.859L369.505 253.537C370.021 253.834 369.89 254.389 369.212 254.776L364.157 257.671C363.479 258.058 362.51 258.132 361.995 257.836Z" fill="#8F8F8F"/>
<path d="M376.596 266.216L364.96 259.539C364.445 259.242 364.574 258.687 365.253 258.299L370.31 255.405C370.988 255.018 371.956 254.944 372.472 255.24L384.106 261.918C384.622 262.215 384.492 262.769 383.813 263.156L378.758 266.05C378.079 266.438 377.112 266.512 376.596 266.216Z" fill="#8F8F8F"/>
<path d="M391.199 274.598L379.563 267.92C379.047 267.624 379.177 267.07 379.856 266.681L384.913 263.787C385.59 263.4 386.559 263.326 387.074 263.622L398.709 270.3C399.225 270.597 399.093 271.152 398.416 271.539L393.36 274.434C392.683 274.822 391.714 274.894 391.199 274.598Z" fill="#8F8F8F"/>
<path d="M405.8 282.979L394.165 276.302C393.648 276.004 393.78 275.451 394.457 275.063L399.514 272.168C400.192 271.781 401.16 271.707 401.676 272.003L413.31 278.682C413.826 278.978 413.696 279.533 413.018 279.921L407.962 282.814C407.284 283.202 406.316 283.275 405.8 282.979Z" fill="#8F8F8F"/>
<path d="M246.643 206.423L235.46 200.005C234.82 199.636 234.982 198.948 235.821 198.466L244.35 193.586C245.191 193.105 246.392 193.013 247.034 193.382L258.217 199.801C258.858 200.169 258.696 200.856 257.855 201.337L249.326 206.219C248.486 206.701 247.285 206.792 246.643 206.423Z" fill="#8F8F8F"/>
<path d="M261.244 214.806L250.061 208.387C249.421 208.019 249.583 207.331 250.423 206.849L258.951 201.968C259.792 201.487 260.994 201.395 261.635 201.763L272.818 208.183C273.459 208.55 273.297 209.239 272.456 209.72L263.927 214.601C263.087 215.082 261.886 215.174 261.244 214.806Z" fill="#8F8F8F"/>
<path d="M275.847 223.187L264.664 216.769C264.023 216.4 264.185 215.712 265.025 215.23L273.554 210.35C274.395 209.869 275.596 209.778 276.237 210.146L287.421 216.565C288.061 216.933 287.899 217.62 287.058 218.101L278.53 222.983C277.69 223.465 276.489 223.556 275.847 223.187Z" fill="#8F8F8F"/>
<path d="M290.448 231.569L279.265 225.15C278.625 224.782 278.787 224.094 279.626 223.612L288.155 218.731C288.996 218.25 290.197 218.158 290.839 218.526L302.021 224.945C302.663 225.313 302.501 226.002 301.659 226.483L293.131 231.364C292.291 231.845 291.09 231.937 290.448 231.569Z" fill="#8F8F8F"/>
<path d="M305.051 239.95L293.868 233.532C293.227 233.163 293.388 232.475 294.229 231.993L302.758 227.113C303.599 226.632 304.8 226.54 305.442 226.909L316.623 233.327C317.265 233.696 317.103 234.383 316.262 234.864L307.733 239.746C306.894 240.228 305.692 240.319 305.051 239.95Z" fill="#8F8F8F"/>
<path d="M319.652 248.332L308.469 241.912C307.828 241.545 307.991 240.857 308.83 240.375L317.36 235.494C318.2 235.013 319.401 234.921 320.043 235.289L331.225 241.708C331.866 242.076 331.704 242.765 330.865 243.246L322.335 248.126C321.495 248.608 320.292 248.699 319.652 248.332Z" fill="#8F8F8F"/>
<path d="M334.254 256.713L323.071 250.294C322.431 249.926 322.593 249.238 323.433 248.756L331.961 243.876C332.803 243.395 334.004 243.303 334.645 243.672L345.827 250.09C346.469 250.459 346.307 251.145 345.466 251.627L336.937 256.509C336.097 256.991 334.895 257.081 334.254 256.713Z" fill="#8F8F8F"/>
<path d="M348.857 265.095L337.675 258.675C337.034 258.308 337.194 257.62 338.035 257.138L346.563 252.257C347.404 251.776 348.605 251.684 349.247 252.051L360.43 258.471C361.07 258.838 360.909 259.528 360.07 260.009L351.54 264.889C350.7 265.37 349.497 265.462 348.857 265.095Z" fill="#8F8F8F"/>
<path d="M363.457 273.477L352.275 267.058C351.635 266.69 351.797 266.002 352.637 265.52L361.165 260.639C362.006 260.158 363.207 260.066 363.849 260.435L375.031 266.853C375.673 267.222 375.511 267.91 374.67 268.391L366.141 273.273C365.301 273.754 364.099 273.844 363.457 273.477Z" fill="#8F8F8F"/>
<path d="M378.061 281.858L366.876 275.439C366.236 275.072 366.399 274.384 367.239 273.903L375.767 269.02C376.606 268.539 377.809 268.448 378.45 268.816L389.633 275.236C390.274 275.604 390.112 276.293 389.271 276.774L380.743 281.655C379.904 282.136 378.701 282.225 378.061 281.858Z" fill="#8F8F8F"/>
<path d="M392.662 290.24L381.479 283.821C380.839 283.454 381.001 282.765 381.84 282.284L390.369 277.402C391.21 276.921 392.411 276.83 393.052 277.198L404.235 283.617C404.877 283.986 404.715 284.674 403.873 285.155L395.345 290.035C394.505 290.516 393.303 290.608 392.662 290.24Z" fill="#8F8F8F"/>
<path d="M233.73 213.814L222.549 207.394C221.907 207.026 222.069 206.339 222.909 205.856L231.438 200.976C232.279 200.495 233.481 200.403 234.121 200.77L245.304 207.19C245.945 207.557 245.783 208.246 244.943 208.727L236.413 213.608C235.573 214.089 234.372 214.181 233.73 213.814Z" fill="#8F8F8F"/>
<path d="M248.333 222.194L237.15 215.776C236.51 215.407 236.672 214.72 237.511 214.237L246.04 209.358C246.881 208.877 248.082 208.785 248.724 209.154L259.907 215.572C260.547 215.941 260.385 216.627 259.544 217.108L251.016 221.99C250.176 222.472 248.975 222.563 248.333 222.194Z" fill="#8F8F8F"/>
<path d="M262.934 230.578L251.751 224.158C251.111 223.791 251.273 223.103 252.113 222.621L260.641 217.74C261.482 217.259 262.683 217.167 263.325 217.534L274.508 223.954C275.149 224.321 274.987 225.01 274.146 225.492L265.617 230.372C264.777 230.853 263.576 230.945 262.934 230.578Z" fill="#8F8F8F"/>
<path d="M277.537 238.958L266.355 232.54C265.713 232.171 265.875 231.484 266.715 231.001L275.244 226.122C276.085 225.641 277.286 225.549 277.928 225.918L289.111 232.336C289.751 232.705 289.589 233.391 288.748 233.872L280.219 238.754C279.38 239.237 278.178 239.327 277.537 238.958Z" fill="#8F8F8F"/>
<path d="M292.138 247.34L280.955 240.921C280.314 240.553 280.476 239.866 281.316 239.383L289.845 234.503C290.686 234.022 291.887 233.93 292.529 234.297L303.712 240.717C304.352 241.084 304.19 241.773 303.349 242.254L294.821 247.135C293.979 247.616 292.78 247.708 292.138 247.34Z" fill="#8F8F8F"/>
<path d="M306.742 255.721L295.557 249.303C294.917 248.934 295.079 248.246 295.92 247.764L304.448 242.885C305.289 242.404 306.49 242.312 307.13 242.68L318.315 249.099C318.955 249.467 318.793 250.154 317.952 250.635L309.424 255.517C308.585 255.999 307.382 256.09 306.742 255.721Z" fill="#8F8F8F"/>
<path d="M321.342 264.103L310.16 257.684C309.518 257.316 309.68 256.628 310.521 256.147L319.05 251.265C319.89 250.784 321.092 250.694 321.734 251.061L332.916 257.481C333.556 257.848 333.394 258.536 332.554 259.017L324.026 263.898C323.186 264.38 321.983 264.472 321.342 264.103Z" fill="#8F8F8F"/>
<path d="M335.946 272.484L324.761 266.066C324.121 265.697 324.283 265.011 325.124 264.528L333.651 259.646C334.491 259.165 335.693 259.073 336.334 259.442L347.518 265.86C348.159 266.229 347.997 266.917 347.156 267.398L338.628 272.279C337.787 272.761 336.586 272.853 335.946 272.484Z" fill="#8F8F8F"/>
<path d="M350.546 280.865L339.364 274.447C338.722 274.079 338.884 273.39 339.725 272.909L348.254 268.027C349.094 267.546 350.296 267.455 350.936 267.823L362.12 274.242C362.76 274.61 362.598 275.298 361.758 275.78L353.229 280.662C352.39 281.143 351.187 281.232 350.546 280.865Z" fill="#8F8F8F"/>
<path d="M365.148 289.248L353.965 282.83C353.323 282.462 353.485 281.773 354.326 281.292L362.855 276.41C363.695 275.929 364.897 275.837 365.538 276.206L376.721 282.626C377.361 282.994 377.199 283.682 376.359 284.163L367.831 289.044C366.99 289.525 365.788 289.617 365.148 289.248Z" fill="#8F8F8F"/>
<path d="M379.749 297.63L368.568 291.211C367.926 290.843 368.088 290.155 368.929 289.674L377.458 284.792C378.297 284.311 379.5 284.219 380.14 284.587L391.323 291.006C391.964 291.375 391.802 292.063 390.962 292.544L382.433 297.425C381.592 297.906 380.391 297.998 379.749 297.63Z" fill="#8F8F8F"/>
<path d="M220.819 221.203L209.636 214.785C208.996 214.417 209.156 213.728 209.997 213.246L218.526 208.366C219.367 207.885 220.568 207.793 221.209 208.162L232.392 214.58C233.033 214.949 232.871 215.636 232.03 216.117L223.502 220.999C222.661 221.481 221.459 221.572 220.819 221.203Z" fill="#8F8F8F"/>
<path d="M235.422 229.585L224.239 223.165C223.597 222.798 223.759 222.11 224.599 221.629L233.127 216.747C233.968 216.266 235.171 216.175 235.811 216.543L246.996 222.962C247.637 223.33 247.473 224.018 246.633 224.499L238.104 229.379C237.264 229.862 236.063 229.954 235.422 229.585Z" fill="#8F8F8F"/>
<path d="M250.024 237.966L238.84 231.547C238.198 231.179 238.361 230.491 239.202 230.01L247.731 225.128C248.572 224.647 249.772 224.556 250.414 224.924L261.597 231.343C262.239 231.711 262.075 232.4 261.234 232.881L252.707 237.762C251.866 238.243 250.665 238.334 250.024 237.966Z" fill="#8F8F8F"/>
<path d="M264.624 246.348L253.441 239.928C252.801 239.561 252.963 238.873 253.804 238.392L262.331 233.51C263.173 233.029 264.373 232.938 265.015 233.306L276.198 239.725C276.838 240.093 276.678 240.781 275.835 241.262L267.308 246.142C266.467 246.625 265.266 246.717 264.624 246.348Z" fill="#8F8F8F"/>
<path d="M279.227 254.728L268.045 248.31C267.403 247.941 267.565 247.254 268.405 246.773L276.935 241.891C277.775 241.41 278.976 241.319 279.617 241.686L290.801 248.106C291.441 248.474 291.279 249.163 290.439 249.644L281.909 254.524C281.069 255.005 279.868 255.097 279.227 254.728Z" fill="#8F8F8F"/>
<path d="M293.828 263.111L282.645 256.691C282.004 256.323 282.166 255.636 283.006 255.155L291.535 250.273C292.376 249.792 293.577 249.701 294.219 250.069L305.4 256.488C306.042 256.856 305.88 257.543 305.04 258.024L296.512 262.905C295.671 263.387 294.469 263.479 293.828 263.111Z" fill="#8F8F8F"/>
<path d="M308.43 271.493L297.249 265.074C296.607 264.705 296.769 264.018 297.61 263.537L306.137 258.655C306.978 258.174 308.181 258.083 308.821 258.451L320.004 264.87C320.645 265.238 320.483 265.927 319.643 266.408L311.114 271.288C310.273 271.769 309.072 271.861 308.43 271.493Z" fill="#8F8F8F"/>
<path d="M323.032 279.873L311.85 273.455C311.208 273.088 311.37 272.399 312.21 271.918L320.74 267.036C321.58 266.554 322.781 266.464 323.423 266.831L334.604 273.251C335.246 273.618 335.084 274.306 334.244 274.789L325.714 279.669C324.874 280.15 323.673 280.241 323.032 279.873Z" fill="#8F8F8F"/>
<path d="M337.634 288.255L326.451 281.836C325.811 281.468 325.973 280.781 326.812 280.3L335.341 275.416C336.182 274.935 337.383 274.843 338.025 275.212L349.208 281.633C349.848 282.002 349.686 282.689 348.845 283.171L340.318 288.051C339.477 288.532 338.274 288.624 337.634 288.255Z" fill="#8F8F8F"/>
<path d="M352.235 296.637L341.054 290.218C340.412 289.85 340.574 289.163 341.414 288.682L349.944 283.8C350.783 283.319 351.985 283.227 352.626 283.594L363.808 290.014C364.45 290.382 364.288 291.07 363.448 291.551L354.918 296.432C354.078 296.913 352.877 297.005 352.235 296.637Z" fill="#8F8F8F"/>
<path d="M366.838 305.018L355.655 298.6C355.014 298.231 355.176 297.543 356.016 297.062L364.545 292.18C365.386 291.699 366.587 291.607 367.229 291.975L378.411 298.395C379.052 298.763 378.89 299.451 378.049 299.933L369.52 304.813C368.681 305.295 367.478 305.386 366.838 305.018Z" fill="#8F8F8F"/>
<path d="M207.908 228.593L196.725 222.174C196.083 221.806 196.246 221.117 197.087 220.638L205.615 215.756C206.456 215.275 207.657 215.184 208.297 215.551L219.482 221.971C220.123 222.339 219.96 223.026 219.119 223.507L210.59 228.388C209.749 228.869 208.549 228.962 207.908 228.593Z" fill="#8F8F8F"/>
<path d="M222.509 236.974L211.326 230.556C210.685 230.187 210.846 229.499 211.687 229.018L220.216 224.136C221.057 223.655 222.258 223.565 222.9 223.932L234.083 230.352C234.723 230.719 234.561 231.408 233.72 231.889L225.191 236.77C224.35 237.251 223.149 237.343 222.509 236.974Z" fill="#8F8F8F"/>
<path d="M237.111 245.356L225.928 238.937C225.288 238.569 225.45 237.881 226.29 237.4L234.818 232.518C235.659 232.037 236.861 231.947 237.501 232.314L248.684 238.734C249.326 239.101 249.164 239.789 248.323 240.27L239.794 245.151C238.954 245.632 237.753 245.725 237.111 245.356Z" fill="#8F8F8F"/>
<path d="M251.714 253.737L240.53 247.319C239.888 246.95 240.051 246.262 240.892 245.781L249.421 240.899C250.262 240.418 251.462 240.328 252.104 240.695L263.287 247.115C263.928 247.482 263.765 248.171 262.924 248.652L254.397 253.533C253.555 254.014 252.354 254.106 251.714 253.737Z" fill="#8F8F8F"/>
<path d="M266.315 262.118L255.132 255.698C254.492 255.331 254.652 254.643 255.493 254.162L264.022 249.28C264.863 248.799 266.064 248.708 266.705 249.076L277.889 255.497C278.53 255.864 278.367 256.551 277.526 257.032L268.998 261.912C268.158 262.393 266.957 262.485 266.315 262.118Z" fill="#8F8F8F"/>
<path d="M280.916 270.5L269.735 264.082C269.093 263.713 269.255 263.025 270.095 262.544L278.625 257.662C279.464 257.181 280.666 257.09 281.307 257.458L292.49 263.877C293.131 264.245 292.969 264.934 292.129 265.415L283.599 270.296C282.759 270.777 281.558 270.869 280.916 270.5Z" fill="#8F8F8F"/>
<path d="M295.519 278.882L284.336 272.462C283.695 272.095 283.856 271.408 284.697 270.927L293.226 266.044C294.066 265.563 295.268 265.472 295.91 265.84L307.092 272.261C307.733 272.628 307.571 273.316 306.73 273.798L298.201 278.676C297.362 279.159 296.159 279.249 295.519 278.882Z" fill="#8F8F8F"/>
<path d="M310.121 287.264L298.937 280.844C298.297 280.477 298.46 279.789 299.3 279.308L307.827 274.425C308.668 273.944 309.869 273.852 310.51 274.221L321.694 280.641C322.335 281.01 322.173 281.698 321.331 282.179L312.804 287.06C311.964 287.541 310.762 287.633 310.121 287.264Z" fill="#8F8F8F"/>
<path d="M324.723 295.646L313.54 289.226C312.899 288.859 313.061 288.171 313.901 287.689L322.43 282.808C323.269 282.327 324.472 282.235 325.114 282.603L336.295 289.022C336.937 289.39 336.775 290.079 335.934 290.56L327.405 295.441C326.565 295.922 325.363 296.013 324.723 295.646Z" fill="#8F8F8F"/>
<path d="M339.325 304.027L328.141 297.608C327.5 297.24 327.662 296.552 328.503 296.071L337.031 291.189C337.872 290.708 339.073 290.616 339.714 290.983L350.898 297.403C351.538 297.772 351.376 298.46 350.535 298.942L342.008 303.821C341.167 304.304 339.966 304.394 339.325 304.027Z" fill="#8F8F8F"/>
<path d="M353.926 312.409L342.743 305.99C342.103 305.623 342.265 304.934 343.105 304.453L351.633 299.571C352.474 299.09 353.676 298.998 354.316 299.365L365.499 305.786C366.141 306.154 365.979 306.842 365.138 307.324L356.609 312.203C355.769 312.686 354.567 312.776 353.926 312.409Z" fill="#8F8F8F"/>
<path d="M194.995 235.983L183.813 229.564C183.171 229.196 183.333 228.508 184.173 228.027L192.702 223.145C193.543 222.664 194.744 222.573 195.386 222.941L206.569 229.36C207.209 229.728 207.047 230.416 206.207 230.898L197.677 235.779C196.838 236.258 195.637 236.352 194.995 235.983Z" fill="#8F8F8F"/>
<path d="M209.599 244.364L198.414 237.944C197.773 237.577 197.936 236.889 198.777 236.408L207.306 231.526C208.147 231.045 209.348 230.953 209.988 231.322L221.171 237.741C221.813 238.109 221.65 238.796 220.809 239.277L212.281 244.158C211.44 244.639 210.239 244.731 209.599 244.364Z" fill="#8F8F8F"/>
<path d="M224.199 252.746L213.016 246.327C212.375 245.959 212.536 245.271 213.377 244.79L221.906 239.908C222.747 239.427 223.948 239.336 224.59 239.704L235.773 246.123C236.413 246.491 236.251 247.178 235.41 247.661L226.881 252.541C226.041 253.022 224.84 253.114 224.199 252.746Z" fill="#8F8F8F"/>
<path d="M311.617 302.924L227.811 254.819C227.063 254.389 227.252 253.586 228.231 253.026L236.255 248.434C237.235 247.873 238.637 247.765 239.384 248.195L323.19 296.302C323.937 296.731 323.749 297.532 322.769 298.093L314.746 302.686C313.765 303.246 312.364 303.353 311.617 302.924Z" fill="#8F8F8F"/>
<path d="M326.411 311.416L315.229 304.998C314.588 304.629 314.75 303.941 315.589 303.46L324.119 298.578C324.959 298.097 326.162 298.005 326.802 298.373L337.985 304.794C338.626 305.161 338.464 305.849 337.624 306.33L329.095 311.211C328.254 311.693 327.053 311.784 326.411 311.416Z" fill="#8F8F8F"/>
<path d="M341.014 319.797L329.832 313.38C329.19 313.011 329.352 312.322 330.193 311.841L338.722 306.959C339.562 306.478 340.763 306.386 341.405 306.755L352.588 313.176C353.228 313.543 353.066 314.231 352.226 314.712L343.698 319.594C342.857 320.075 341.655 320.166 341.014 319.797Z" fill="#8F8F8F"/>
<mask id="mask1_4_6208" style="mask-type:luminance" maskUnits="userSpaceOnUse" x="-28" y="-47" width="644" height="639">
<path d="M-27.6414 -46.5581H615.359V591.442H-27.6414V-46.5581Z" fill="white"/>
</mask>
<g mask="url(#mask1_4_6208)">
<g opacity="0.89795">
<path d="M269.779 184.614V93.6137L216.243 62.945V153.946L269.779 184.614Z" fill="#714EE8"/>
<path d="M269.778 93.6124V184.615L271.055 183.875V92.8736L269.778 93.6124Z" fill="#714EE8"/>
<path d="M271.055 92.8748L217.52 62.2062L216.243 62.945L269.779 93.6136L271.055 92.8748Z" fill="#C2EBFF"/>
<path d="M218.198 150.651L265.888 177.975V95.9857L218.198 68.6627V150.651Z" fill="white"/>
<path d="M226.491 100.098C226.491 109.902 233.452 121.839 242.041 126.759C250.629 131.679 257.592 127.721 257.592 117.918C257.592 108.114 250.629 96.1771 242.041 91.2569C233.452 86.3353 226.491 90.2948 226.491 100.098Z" fill="#F3F3F3"/>
<path d="M232.989 122.084L251.095 132.456V126.929C251.095 124.144 249.117 120.755 246.677 119.358L237.405 114.045C234.967 112.648 232.989 113.772 232.989 116.555V122.084Z" fill="#716D8A"/>
<path d="M242.043 120.601C243.811 121.613 245.243 120.799 245.243 118.781V115.127L238.842 111.46V115.113C238.842 117.132 240.274 119.588 242.043 120.601Z" fill="#EFC9D3"/>
<path d="M238.909 114.013L240.354 115.793C241.4 117.081 242.687 117.818 243.731 117.729L245.177 117.605C247.342 117.417 248.677 115.544 248.677 112.689V107.013C248.677 102.83 245.706 97.739 242.043 95.6399C238.379 93.5396 235.408 95.2291 235.408 99.4118V105.087C235.408 107.943 236.743 111.345 238.909 114.013Z" fill="#EFC9D3"/>
<path d="M248.676 113.273C249.233 113.592 249.685 113.335 249.685 112.7V110.057C249.685 109.421 249.233 108.646 248.676 108.327C248.119 108.008 247.666 108.266 247.666 108.901V111.544C247.666 112.179 248.119 112.954 248.676 113.273Z" fill="#EFC9D3"/>
<path d="M235.408 105.672C235.966 105.991 236.418 105.734 236.418 105.099V102.456C236.418 101.82 235.966 101.045 235.408 100.726C234.851 100.407 234.399 100.665 234.399 101.3V103.943C234.399 104.578 234.851 105.353 235.408 105.672Z" fill="#EFC9D3"/>
<path d="M249.378 109.053C249.378 109.053 249.964 104.424 249.045 102.609C249.045 102.609 247.352 97.8142 242.307 94.9241C237.264 92.0339 236.165 93.4363 235.126 95.178C235.126 95.178 234.266 98.9601 235.408 101.051L235.75 102.854C235.75 102.854 237.796 101.281 237.233 97.5373C237.233 97.5373 240.825 103.254 246.907 105.181C246.907 105.181 246.995 108.112 248.687 109.69L249.378 109.053Z" fill="#8B7866"/>
<path d="M223.038 136.634L261.044 158.409V156.08L223.038 134.305V136.634Z" fill="#C4C4C4"/>
<path d="M232.004 125.464L252.078 136.966V135.524L232.004 124.022V125.464Z" fill="#C4C4C4"/>
<path d="M223.038 140.087L261.044 161.862V159.534L223.038 137.758V140.087Z" fill="#C4C4C4"/>
<path d="M223.038 143.541L261.044 165.316V162.987L223.038 141.212V143.541Z" fill="#C4C4C4"/>
<path d="M223.038 146.995L261.044 168.77V166.441L223.038 144.666V146.995Z" fill="#C4C4C4"/>
<path d="M223.038 150.449L261.044 172.224V169.897L223.038 148.121V150.449Z" fill="#C4C4C4"/>
<path d="M250.695 143.438C250.695 144.702 251.592 146.244 252.701 146.879C253.809 147.513 254.708 147.001 254.708 145.737C254.708 144.472 253.809 142.934 252.701 142.298C251.592 141.663 250.695 142.172 250.695 143.438Z" fill="#E694AD"/>
<path d="M243.588 139.366C243.588 140.63 244.487 142.172 245.594 142.807C246.703 143.441 247.602 142.93 247.602 141.665C247.602 140.401 246.703 138.862 245.594 138.226C244.487 137.591 243.588 138.101 243.588 139.366Z" fill="#714EE8"/>
<path d="M236.482 135.295C236.482 136.56 237.381 138.101 238.489 138.737C239.597 139.371 240.495 138.859 240.495 137.595C240.495 136.33 239.597 134.791 238.489 134.156C237.381 133.521 236.482 134.031 236.482 135.295Z" fill="#EAAC58"/>
<path d="M229.377 131.225C229.377 132.491 230.274 134.031 231.383 134.665C232.491 135.301 233.39 134.789 233.39 133.524C233.39 132.26 232.491 130.72 231.383 130.084C230.274 129.449 229.377 129.96 229.377 131.225Z" fill="#B686F1"/>
</g>
<path d="M296.604 219.032V128.033L243.068 97.3628V188.365L296.604 219.032Z" fill="#714EE8"/>
<path d="M296.603 128.031V219.032L297.88 218.293V127.293L296.603 128.031Z" fill="#714EE8"/>
<path d="M297.88 127.294L244.345 96.6252L243.068 97.3628L296.604 128.033L297.88 127.294Z" fill="#C2EBFF"/>
<path d="M245.428 185.404L293.118 212.728V130.739L245.428 103.416V185.404Z" fill="white"/>
<path d="M253.722 134.852C253.722 144.655 260.684 156.592 269.273 161.512C277.861 166.433 284.823 162.473 284.823 152.67C284.823 142.866 277.861 130.931 269.273 126.01C260.684 121.089 253.722 125.048 253.722 134.852Z" fill="#F3F3F3"/>
<path d="M260.222 156.837L278.327 167.21V161.682C278.327 158.898 276.35 155.509 273.91 154.112L264.638 148.798C262.198 147.401 260.222 148.525 260.222 151.308V156.837Z" fill="#AC6E8E"/>
<path d="M269.274 155.353C271.042 156.365 272.475 155.551 272.475 153.534V149.879L266.073 146.212V149.865C266.073 151.884 267.506 154.34 269.274 155.353Z" fill="#EFC9D3"/>
<path d="M269.305 129.819C270.816 130.684 276.917 135.07 276.917 145.289V155.855C276.917 155.855 274.406 151.651 268.956 149.418" fill="#B8A096"/>
<path d="M269.305 129.819C267.794 128.953 261.693 126.347 261.693 136.567V147.132C261.693 147.132 264.205 145.807 269.653 149.818" fill="#B8A096"/>
<path d="M266.14 148.766L267.585 150.546C268.631 151.834 269.918 152.571 270.963 152.482L272.408 152.358C274.574 152.171 275.908 150.298 275.908 147.442V141.766C275.908 137.584 272.938 132.492 269.274 130.392C265.61 128.293 262.64 129.982 262.64 134.164V139.841C262.64 142.696 263.973 146.098 266.14 148.766Z" fill="#EFC9D3"/>
<path d="M275.907 148.026C276.464 148.345 276.917 148.089 276.917 147.453V144.811C276.917 144.174 276.464 143.401 275.907 143.082C275.349 142.762 274.898 143.019 274.898 143.655V146.297C274.898 146.933 275.349 147.707 275.907 148.026Z" fill="#EFC9D3"/>
<path d="M262.638 140.425C263.196 140.744 263.648 140.488 263.648 139.852V137.21C263.648 136.573 263.196 135.798 262.638 135.479C262.081 135.16 261.629 135.418 261.629 136.054V138.696C261.629 139.332 262.081 140.106 262.638 140.425Z" fill="#EFC9D3"/>
<path d="M264.674 132.251C264.674 132.251 267.937 140.758 276.222 146.026V141.928C276.222 140.497 275.184 133.682 269.518 130.435C263.852 127.189 262.097 130.233 262.423 136.541C262.423 136.541 264.614 136.61 264.674 132.251Z" fill="#B8A096"/>
<path d="M250.27 171.386L288.276 193.161V190.832L250.27 169.057V171.386Z" fill="#C4C4C4"/>
<path d="M259.235 160.215L279.313 171.718V170.275L259.235 158.774V160.215Z" fill="#C4C4C4"/>
<path d="M250.27 174.84L288.276 196.615V194.288L250.27 172.512V174.84Z" fill="#C4C4C4"/>
<path d="M250.27 178.294L288.276 200.069V197.741L250.27 175.966V178.294Z" fill="#C4C4C4"/>
<path d="M250.27 181.748L288.276 203.523V201.195L250.27 179.42V181.748Z" fill="#C4C4C4"/>
<path d="M250.27 185.201L288.276 206.976V204.648L250.27 182.873V185.201Z" fill="#C4C4C4"/>
<path d="M277.925 178.19C277.925 179.454 278.823 180.996 279.931 181.631C281.04 182.265 281.937 181.754 281.937 180.489C281.937 179.223 281.04 177.684 279.931 177.048C278.823 176.414 277.925 176.924 277.925 178.19Z" fill="#E694AD"/>
<path d="M270.82 174.119C270.82 175.384 271.719 176.925 272.826 177.561C273.934 178.195 274.833 177.683 274.833 176.419C274.833 175.154 273.934 173.615 272.826 172.98C271.719 172.344 270.82 172.853 270.82 174.119Z" fill="#714EE8"/>
<path d="M263.713 170.048C263.713 171.312 264.612 172.853 265.721 173.489C266.828 174.123 267.727 173.611 267.727 172.347C267.727 171.082 266.828 169.544 265.721 168.908C264.612 168.273 263.713 168.783 263.713 170.048Z" fill="#EAAC58"/>
<path d="M256.608 165.977C256.608 167.243 257.506 168.784 258.614 169.418C259.723 170.053 260.62 169.541 260.62 168.276C260.62 167.012 259.723 165.473 258.614 164.838C257.506 164.202 256.608 164.713 256.608 165.977Z" fill="#B686F1"/>
<g opacity="0.10205">
<path d="M481.692 306.841V215.841L428.156 185.172V276.172L481.692 306.841Z" fill="#714EE8"/>
<path d="M481.692 215.839V306.84L482.967 306.102V215.103L481.692 215.839Z" fill="#714EE8"/>
<path d="M482.968 215.103L429.432 184.434L428.156 185.173L481.693 215.842L482.968 215.103Z" fill="#C2EBFF"/>
<path d="M430.517 273.215L478.207 300.538V218.548L430.517 191.227V273.215Z" fill="white"/>
<path d="M438.81 222.661C438.81 232.464 445.772 244.401 454.362 249.322C462.95 254.242 469.913 250.284 469.913 240.48C469.913 230.677 462.95 218.74 454.362 213.819C445.772 208.898 438.81 212.857 438.81 222.661Z" fill="#F3F3F3"/>
<path d="M445.31 244.646L463.414 255.019V249.491C463.414 246.707 461.439 243.318 459 241.921L449.727 236.608C447.287 235.21 445.31 236.334 445.31 239.117V244.646Z" fill="#AC6E8E"/>
<path d="M454.363 243.164C456.13 244.177 457.561 243.361 457.561 241.344V237.69L451.162 234.022V237.675C451.162 239.694 452.595 242.15 454.363 243.164Z" fill="#EFC9D3"/>
<path d="M454.394 217.628C455.905 218.493 462.006 222.879 462.006 233.1V243.664C462.006 243.664 459.494 239.461 454.045 237.228" fill="#B8A096"/>
<path d="M454.394 217.628C452.881 216.763 446.782 214.156 446.782 224.376V234.941C446.782 234.941 449.292 233.617 454.742 237.627" fill="#B8A096"/>
<path d="M451.228 236.576L452.673 238.356C453.719 239.643 455.006 240.381 456.05 240.291L457.496 240.168C459.663 239.98 460.996 238.106 460.996 235.251V229.575C460.996 225.393 458.026 220.302 454.363 218.203C450.698 216.102 447.727 217.792 447.727 221.974V227.65C447.727 230.506 449.062 233.908 451.228 236.576Z" fill="#EFC9D3"/>
<path d="M460.996 235.836C461.554 236.155 462.006 235.898 462.006 235.263V232.62C462.006 231.983 461.554 231.209 460.996 230.89C460.439 230.571 459.988 230.828 459.988 231.464V234.107C459.988 234.742 460.439 235.517 460.996 235.836Z" fill="#EFC9D3"/>
<path d="M447.727 228.234C448.285 228.553 448.735 228.297 448.735 227.661V225.019C448.735 224.382 448.285 223.608 447.727 223.289C447.169 222.97 446.719 223.227 446.719 223.863V226.505C446.719 227.141 447.169 227.915 447.727 228.234Z" fill="#EFC9D3"/>
<path d="M449.763 220.06C449.763 220.06 453.025 228.567 461.311 233.835V229.738C461.311 228.306 460.273 221.491 454.609 218.245C448.941 214.998 447.187 218.04 447.514 224.35C447.514 224.35 449.702 224.419 449.763 220.06Z" fill="#B8A096"/>
<path d="M435.358 259.195L473.365 280.97V278.641L435.358 256.867V259.195Z" fill="#C4C4C4"/>
<path d="M444.324 248.025L464.4 259.527V258.085L444.324 246.583V248.025Z" fill="#C4C4C4"/>
<path d="M435.358 262.649L473.365 284.424V282.096L435.358 260.321V262.649Z" fill="#C4C4C4"/>
<path d="M435.358 266.103L473.365 287.878V285.55L435.358 263.775V266.103Z" fill="#C4C4C4"/>
<path d="M435.358 269.558L473.365 291.333V289.004L435.358 267.229V269.558Z" fill="#C4C4C4"/>
<path d="M435.358 273.01L473.365 294.785V292.458L435.358 270.682V273.01Z" fill="#C4C4C4"/>
<path d="M463.014 265.999C463.014 267.263 463.912 268.805 465.02 269.44C466.129 270.074 467.026 269.563 467.026 268.298C467.026 267.034 466.129 265.495 465.02 264.859C463.912 264.224 463.014 264.734 463.014 265.999Z" fill="#E694AD"/>
<path d="M455.907 261.928C455.907 263.193 456.805 264.734 457.915 265.37C459.022 266.004 459.92 265.492 459.92 264.228C459.92 262.963 459.022 261.424 457.915 260.789C456.805 260.153 455.907 260.664 455.907 261.928Z" fill="#714EE8"/>
<path d="M448.803 257.858C448.803 259.124 449.7 260.663 450.81 261.298C451.917 261.934 452.816 261.422 452.816 260.157C452.816 258.893 451.917 257.353 450.81 256.717C449.7 256.082 448.803 256.593 448.803 257.858Z" fill="#EAAC58"/>
<path d="M441.697 253.788C441.697 255.052 442.593 256.593 443.703 257.229C444.81 257.863 445.709 257.351 445.709 256.087C445.709 254.822 444.81 253.283 443.703 252.648C442.593 252.013 441.697 252.522 441.697 253.788Z" fill="#B686F1"/>
</g>
<path d="M313.561 251.061V160.061L260.025 129.392V220.392L313.561 251.061Z" fill="#714EE8"/>
<path d="M313.56 160.059V251.062L314.837 250.322V159.32L313.56 160.059Z" fill="#714EE8"/>
<path d="M314.837 159.322L261.302 128.653L260.025 129.392L313.561 160.06L314.837 159.322Z" fill="#C2EBFF"/>
<path d="M261.979 217.098L309.669 244.422V162.433L261.979 135.11V217.098Z" fill="white"/>
<path d="M270.273 166.545C270.273 176.349 277.234 188.286 285.823 193.206C294.411 198.126 301.373 194.168 301.373 184.364C301.373 174.561 294.411 162.624 285.823 157.704C277.234 152.782 270.273 156.742 270.273 166.545Z" fill="#F3F3F3"/>
<path d="M276.771 188.531L294.877 198.903V193.376C294.877 190.591 292.899 187.202 290.459 185.805L281.187 180.492C278.749 179.095 276.771 180.219 276.771 183.002V188.531Z" fill="#716D8A"/>
<path d="M285.824 187.048C287.593 188.06 289.025 187.246 289.025 185.228V181.574L282.624 177.907V181.56C282.624 183.578 284.056 186.035 285.824 187.048Z" fill="#EFC9D3"/>
<path d="M282.69 180.46L284.136 182.24C285.181 183.527 286.469 184.265 287.513 184.176L288.958 184.052C291.124 183.864 292.459 181.991 292.459 179.135V173.46C292.459 169.277 289.488 164.186 285.824 162.087C282.161 159.986 279.19 161.676 279.19 165.859V171.534C279.19 174.39 280.525 177.792 282.69 180.46Z" fill="#EFC9D3"/>
<path d="M292.458 179.72C293.014 180.039 293.467 179.782 293.467 179.147V176.504C293.467 175.868 293.014 175.093 292.458 174.774C291.901 174.455 291.448 174.713 291.448 175.348V177.991C291.448 178.626 291.901 179.401 292.458 179.72Z" fill="#EFC9D3"/>
<path d="M279.19 172.119C279.748 172.438 280.199 172.181 280.199 171.546V168.903C280.199 168.266 279.748 167.492 279.19 167.173C278.633 166.854 278.18 167.112 278.18 167.747V170.39C278.18 171.025 278.633 171.8 279.19 172.119Z" fill="#EFC9D3"/>
<path d="M293.16 175.5C293.16 175.5 293.746 170.871 292.827 169.056C292.827 169.056 291.134 164.261 286.089 161.371C281.046 158.481 279.947 159.883 278.908 161.625C278.908 161.625 278.048 165.407 279.19 167.498L279.532 169.301C279.532 169.301 281.578 167.728 281.015 163.984C281.015 163.984 284.607 169.701 290.689 171.627C290.689 171.627 290.777 174.558 292.469 176.137L293.16 175.5Z" fill="#8B7866"/>
<path d="M266.82 203.081L304.826 224.856V222.527L266.82 200.752V203.081Z" fill="#C4C4C4"/>
<path d="M275.786 191.911L295.86 203.413V201.971L275.786 190.469V191.911Z" fill="#C4C4C4"/>
<path d="M266.82 206.534L304.826 228.309V225.981L266.82 204.205V206.534Z" fill="#C4C4C4"/>
<path d="M266.82 209.988L304.826 231.763V229.434L266.82 207.659V209.988Z" fill="#C4C4C4"/>
<path d="M266.82 213.442L304.826 235.217V232.888L266.82 211.113V213.442Z" fill="#C4C4C4"/>
<path d="M266.82 216.896L304.826 238.671V236.344L266.82 214.567V216.896Z" fill="#C4C4C4"/>
<path d="M294.477 209.884C294.477 211.149 295.374 212.69 296.483 213.326C297.591 213.96 298.49 213.448 298.49 212.184C298.49 210.919 297.591 209.38 296.483 208.745C295.374 208.11 294.477 208.619 294.477 209.884Z" fill="#E694AD"/>
<path d="M287.37 205.813C287.37 207.077 288.269 208.619 289.376 209.254C290.485 209.888 291.384 209.377 291.384 208.112C291.384 206.848 290.485 205.309 289.376 204.673C288.269 204.038 287.37 204.548 287.37 205.813Z" fill="#714EE8"/>
<path d="M280.264 201.742C280.264 203.007 281.163 204.548 282.271 205.184C283.378 205.818 284.277 205.306 284.277 204.042C284.277 202.777 283.378 201.238 282.271 200.603C281.163 199.967 280.264 200.478 280.264 201.742Z" fill="#EAAC58"/>
<path d="M273.159 197.672C273.159 198.938 274.056 200.478 275.165 201.112C276.273 201.747 277.172 201.236 277.172 199.971C277.172 198.707 276.273 197.167 275.165 196.531C274.056 195.896 273.159 196.407 273.159 197.672Z" fill="#B686F1"/>
<path d="M418.422 271.718V180.717L364.886 150.048V241.049L418.422 271.718Z" fill="#C2EBFF"/>
<path d="M418.422 180.717V271.718L419.698 270.979V179.978L418.422 180.717Z" fill="#C2EBFF"/>
<path d="M419.699 179.978L366.164 149.31L364.887 150.048L418.423 180.717L419.699 179.978Z" fill="#C2EBFF"/>
<path d="M366.841 237.756L414.532 265.077V183.089L366.841 155.767V237.756Z" fill="white"/>
<path d="M375.137 187.202C375.137 197.005 382.098 208.942 390.686 213.862C399.275 218.783 406.237 214.826 406.237 205.022C406.237 195.219 399.275 183.282 390.686 178.362C382.098 173.441 375.137 177.398 375.137 187.202Z" fill="#F3F3F3"/>
<path d="M381.634 209.187L399.738 219.56V214.032C399.738 211.248 397.763 207.859 395.324 206.462L386.05 201.148C383.61 199.751 381.634 200.875 381.634 203.659V209.187Z" fill="#716D8A"/>
<path d="M390.686 207.704C392.454 208.716 393.885 207.902 393.885 205.885V202.23L387.486 198.563V202.216C387.486 204.235 388.919 206.691 390.686 207.704Z" fill="#EFC9D3"/>
<path d="M387.552 201.118L388.997 202.898C390.043 204.185 391.33 204.923 392.374 204.833L393.82 204.708C395.987 204.522 397.32 202.648 397.32 199.792V194.118C397.32 189.935 394.35 184.844 390.686 182.745C387.022 180.646 384.051 182.334 384.051 186.516V192.191C384.051 195.047 385.385 198.45 387.552 201.118Z" fill="#EFC9D3"/>
<path d="M397.321 200.378C397.88 200.697 398.331 200.44 398.331 199.805V197.162C398.331 196.525 397.88 195.751 397.321 195.432C396.763 195.113 396.313 195.371 396.313 196.006V198.649C396.313 199.284 396.763 200.059 397.321 200.378Z" fill="#EFC9D3"/>
<path d="M384.051 192.775C384.609 193.094 385.059 192.838 385.059 192.202V189.56C385.059 188.923 384.609 188.148 384.051 187.829C383.493 187.51 383.042 187.768 383.042 188.404V191.046C383.042 191.682 383.493 192.456 384.051 192.775Z" fill="#EFC9D3"/>
<path d="M398.022 196.157C398.022 196.157 398.609 191.529 397.689 189.715C397.689 189.715 395.998 184.918 390.953 182.027C385.908 179.137 384.809 180.54 383.771 182.281C383.771 182.281 382.909 186.063 384.052 188.155L384.395 189.958C384.395 189.958 386.441 188.385 385.877 184.641C385.877 184.641 389.469 190.357 395.552 192.284C395.552 192.284 395.641 195.215 397.333 196.793L398.022 196.157Z" fill="#8B7866"/>
<path d="M371.682 223.737L409.691 245.512V243.184L371.682 221.409V223.737Z" fill="#C4C4C4"/>
<path d="M380.647 212.567L400.724 224.069V222.627L380.647 211.125V212.567Z" fill="#C4C4C4"/>
<path d="M371.682 227.19L409.691 248.965V246.638L371.682 224.862V227.19Z" fill="#C4C4C4"/>
<path d="M371.682 230.644L409.691 252.419V250.091L371.682 228.316V230.644Z" fill="#C4C4C4"/>
<path d="M371.682 234.098L409.691 255.873V253.545L371.682 231.77V234.098Z" fill="#C4C4C4"/>
<path d="M371.682 237.553L409.691 259.328V257L371.682 235.224V237.553Z" fill="#C4C4C4"/>
<path d="M399.339 230.541C399.339 231.806 400.237 233.347 401.345 233.982C402.454 234.617 403.351 234.105 403.351 232.84C403.351 231.576 402.454 230.037 401.345 229.402C400.237 228.766 399.339 229.276 399.339 230.541Z" fill="#E694AD"/>
<path d="M392.233 226.469C392.233 227.734 393.13 229.275 394.239 229.911C395.347 230.545 396.245 230.033 396.245 228.769C396.245 227.504 395.347 225.965 394.239 225.33C393.13 224.694 392.233 225.205 392.233 226.469Z" fill="#714EE8"/>
<path d="M385.128 222.399C385.128 223.665 386.025 225.205 387.135 225.84C388.242 226.474 389.14 225.963 389.14 224.698C389.14 223.434 388.242 221.895 387.135 221.259C386.025 220.624 385.128 221.134 385.128 222.399Z" fill="#EAAC58"/>
<path d="M378.021 218.328C378.021 219.593 378.919 221.134 380.029 221.77C381.136 222.404 382.034 221.892 382.034 220.628C382.034 219.362 381.136 217.824 380.029 217.189C378.919 216.553 378.021 217.063 378.021 218.328Z" fill="#B686F1"/>
<path d="M364.664 262.338V171.338L311.128 140.669V231.67L364.664 262.338Z" fill="#BED7EE"/>
<path d="M364.664 171.337V262.337L365.94 261.6V170.6L364.664 171.337Z" fill="#C2EBFF"/>
<path d="M365.941 170.6L312.405 139.932L311.129 140.67L364.665 171.339L365.941 170.6Z" fill="#C2EBFF"/>
<path d="M313.489 228.712L361.179 256.035V174.046L313.489 146.724V228.712Z" fill="white"/>
<path d="M321.783 178.158C321.783 187.962 328.745 199.899 337.334 204.819C345.922 209.739 352.886 205.781 352.886 195.977C352.886 186.174 345.922 174.237 337.334 169.317C328.745 164.395 321.783 168.355 321.783 178.158Z" fill="#F3F3F3"/>
<path d="M328.282 200.144L346.387 210.516V204.989C346.387 202.204 344.411 198.815 341.973 197.418L332.7 192.105C330.26 190.708 328.282 191.832 328.282 194.615V200.144Z" fill="#AC6E8E"/>
<path d="M337.336 198.661C339.103 199.674 340.534 198.859 340.534 196.841V193.187L334.135 189.52V193.173C334.135 195.191 335.567 197.648 337.336 198.661Z" fill="#EFC9D3"/>
<path d="M337.367 173.125C338.878 173.991 344.978 178.376 344.978 188.597V199.161C344.978 199.161 342.467 194.958 337.018 192.725" fill="#B8A096"/>
<path d="M337.367 173.126C335.854 172.26 329.755 169.654 329.755 179.873V190.438C329.755 190.438 332.265 189.114 337.715 193.124" fill="#B8A096"/>
<path d="M334.2 192.073L335.646 193.853C336.691 195.14 337.979 195.878 339.023 195.789L340.468 195.665C342.635 195.477 343.969 193.603 343.969 190.748V185.073C343.969 180.89 340.998 175.799 337.336 173.7C333.671 171.599 330.7 173.289 330.7 177.472V183.147C330.7 186.003 332.035 189.405 334.2 192.073Z" fill="#EFC9D3"/>
<path d="M343.969 191.333C344.527 191.652 344.978 191.395 344.978 190.76V188.117C344.978 187.481 344.527 186.706 343.969 186.387C343.412 186.068 342.961 186.326 342.961 186.961V189.604C342.961 190.239 343.412 191.014 343.969 191.333Z" fill="#EFC9D3"/>
<path d="M330.7 183.732C331.258 184.051 331.708 183.794 331.708 183.159V180.516C331.708 179.879 331.258 179.105 330.7 178.786C330.142 178.467 329.692 178.725 329.692 179.36V182.003C329.692 182.638 330.142 183.413 330.7 183.732Z" fill="#EFC9D3"/>
<path d="M332.736 175.558C332.736 175.558 335.998 184.065 344.284 189.332V185.235C344.284 183.803 343.246 176.988 337.581 173.742C331.914 170.496 330.16 173.538 330.486 179.848C330.486 179.848 332.675 179.916 332.736 175.558Z" fill="#B8A096"/>
<path d="M318.331 214.692L356.338 236.467V234.139L318.331 212.364V214.692Z" fill="#C4C4C4"/>
<path d="M327.297 203.522L347.373 215.024V213.582L327.297 202.081V203.522Z" fill="#C4C4C4"/>
<path d="M318.331 218.147L356.338 239.922V237.593L318.331 215.818V218.147Z" fill="#C4C4C4"/>
<path d="M318.331 221.601L356.338 243.376V241.047L318.331 219.272V221.601Z" fill="#C4C4C4"/>
<path d="M318.331 225.055L356.338 246.83V244.501L318.331 222.726V225.055Z" fill="#C4C4C4"/>
<path d="M318.331 228.508L356.338 250.283V247.955L318.331 226.179V228.508Z" fill="#C4C4C4"/>
<path d="M345.987 221.496C345.987 222.761 346.884 224.302 347.993 224.938C349.101 225.572 349.999 225.06 349.999 223.796C349.999 222.531 349.101 220.992 347.993 220.357C346.884 219.721 345.987 220.232 345.987 221.496Z" fill="#E694AD"/>
<path d="M338.88 217.426C338.88 218.69 339.778 220.232 340.888 220.867C341.995 221.501 342.893 220.99 342.893 219.725C342.893 218.461 341.995 216.922 340.888 216.286C339.778 215.651 338.88 216.161 338.88 217.426Z" fill="#714EE8"/>
<path d="M331.776 213.355C331.776 214.621 332.673 216.16 333.783 216.795C334.89 217.431 335.789 216.919 335.789 215.655C335.789 214.39 334.89 212.85 333.783 212.215C332.673 211.579 331.776 212.091 331.776 213.355Z" fill="#EAAC58"/>
<path d="M324.67 209.285C324.67 210.549 325.566 212.091 326.676 212.726C327.783 213.36 328.682 212.849 328.682 211.584C328.682 210.32 327.783 208.781 326.676 208.145C325.566 207.51 324.67 208.019 324.67 209.285Z" fill="#B686F1"/>
</g>
<path d="M324.962 171.71C325.921 149.485 315.597 131.924 301.9 132.486L290.101 132.799L289.806 140.694C290.908 140.098 292.032 139.588 293.189 139.272C303.294 141.249 310.532 155.045 309.793 172.154C309.054 189.263 300.597 203.703 290.286 206.519C289.283 206.323 288.319 205.979 287.378 205.559L287.09 213.257L298.425 212.971C312.121 212.408 324.001 193.935 324.962 171.71Z" fill="#714EE8"/>
<path d="M313.616 171.98C314.576 149.754 304.251 132.193 290.554 132.755C276.858 133.317 264.977 151.791 264.017 174.017C263.057 196.243 273.382 213.804 287.078 213.241C300.775 212.68 312.655 194.205 313.616 171.98ZM290.274 206.503C280.169 204.527 272.93 190.73 273.669 173.62C274.408 156.51 282.866 142.07 293.178 139.255C303.282 141.231 310.521 155.028 309.782 172.138C309.043 189.246 300.585 203.688 290.274 206.503Z" fill="#714EE8"/>
<path d="M273.667 173.616C274.405 156.508 282.862 142.069 293.172 139.255C297.579 140.116 301.44 143.228 304.333 147.882C300.792 142.166 295.805 138.748 290.128 138.982C278.465 139.461 268.354 155.08 267.543 173.867C266.732 192.655 275.528 207.498 287.19 207.019C288.233 206.976 289.258 206.773 290.27 206.496C280.165 204.519 272.928 190.724 273.667 173.616Z" fill="#8BB7EA"/>
<g opacity="0.6">
<path d="M309.783 172.143C310.522 155.034 303.283 141.237 293.18 139.262C282.868 142.076 274.412 156.516 273.673 173.625C272.934 190.735 280.172 204.531 290.277 206.506C300.587 203.692 309.044 189.251 309.783 172.143Z" fill="#D8E4FB"/>
</g>
<path d="M285.847 200.366C278.944 196.294 274.599 185.88 275.133 173.546C275.236 171.131 275.527 168.723 275.996 166.389C276.245 165.153 277.401 164.274 278.578 164.428C279.753 164.583 280.504 165.71 280.256 166.947C279.835 169.037 279.575 171.197 279.482 173.367C278.947 185.734 283.967 196.12 291.157 197.526C292.316 197.753 293 198.93 292.682 200.155C292.364 201.38 291.167 202.191 290.007 201.964C288.54 201.677 287.148 201.134 285.847 200.366Z" fill="white"/>
<path d="M280.724 157.916C279.754 157.344 279.45 156.036 280.05 154.945C283.271 149.088 287.678 145.142 292.459 143.839C293.639 143.515 294.771 144.228 294.984 145.432C295.196 146.635 294.41 147.871 293.228 148.194C289.706 149.156 286.353 152.255 283.785 156.924C283.169 158.043 281.834 158.507 280.802 157.962C280.775 157.948 280.75 157.932 280.724 157.916Z" fill="white"/>
<path d="M310.365 200.662C312.445 199.429 314.658 199.498 315.308 200.814L327.054 224.036L319.499 228.456L307.776 205.278C307.125 203.961 308.284 201.895 310.365 200.662Z" fill="#BED7EE"/>
<path d="M324.466 228.608C322.386 229.84 320.174 229.772 319.524 228.456C318.873 227.14 320.032 225.074 322.112 223.842C324.191 222.61 326.404 222.677 327.054 223.993C327.704 225.309 326.546 227.375 324.466 228.608Z" fill="#7C7C7C"/>
<path d="M320.87 221.738C324.552 219.556 328.469 219.677 329.619 222.006L350.403 263.103L337.034 270.923L316.288 229.906C315.137 227.577 317.189 223.92 320.87 221.738Z" fill="#35526C"/>
<path d="M345.824 271.192C342.144 273.373 338.229 273.253 337.079 270.924C335.929 268.595 337.98 264.941 341.659 262.76C345.339 260.578 349.254 260.7 350.405 263.028C351.555 265.357 349.504 269.011 345.824 271.192Z" fill="#7C7C7C"/>
<path d="M345.181 269.889C342.779 271.312 340.223 271.234 339.473 269.714C338.722 268.193 340.061 265.808 342.463 264.384C344.865 262.962 347.42 263.04 348.171 264.56C348.922 266.079 347.583 268.466 345.181 269.889Z" fill="#999999"/>
</g>
<path d="M202.452 370.445C202.452 382.516 185.378 392.303 164.315 392.303C143.251 392.303 126.176 382.516 126.176 370.445C126.176 358.374 143.251 348.587 164.315 348.587C185.378 348.587 202.452 358.374 202.452 370.445Z" fill="#D8E4FB"/>
<path d="M154.375 374.396C154.375 374.396 152.523 380.563 157.345 381.886C162.165 383.209 163 380.539 164.717 379.663C166.434 378.788 177.183 373.248 179.2 370.729C181.217 368.21 175.115 364.374 165.692 370.314L154.375 374.396Z" fill="#4A4A4A"/>
<path d="M134.79 363.473C134.79 363.473 132.509 369.137 136.945 370.798C141.382 372.456 143.002 367.966 144.321 367.135C145.866 366.161 150.899 362.935 153.021 360.73C155.143 358.524 151.955 353.707 142.547 358.515L134.79 363.473Z" fill="#4A4A4A"/>
<path d="M139.003 273.533C139.003 273.533 137.702 312.057 138.074 319.423C134.175 328.45 133.748 355.571 134.796 364.21C134.796 365.57 145.315 365.796 145.315 360.965C145.315 356.135 149.527 329.617 150.67 325.808C151.814 322.002 155.651 309.474 155.651 309.474V273.533L143.273 271.708L139.003 273.533Z" fill="#35526C"/>
<path d="M153.732 373.758C153.847 375.33 166.204 377.463 166.204 371.927C166.204 366.392 166.816 341.284 168.472 330.828C170.129 320.374 174.536 301.92 172.922 289.761C171.309 277.604 171.069 272.822 170.818 269.778H152.68C152.68 269.778 154.69 321.726 154.69 326.517C154.69 331.305 153.145 365.642 153.732 373.758Z" fill="#35526C"/>
<path d="M180.238 255.218C180.238 255.218 172.969 259.138 166.617 251.429C160.265 243.721 170.819 244.26 170.819 244.26L178.403 247.888L180.238 255.218Z" fill="#35526C"/>
<path d="M147.987 210.862C147.987 210.862 143.386 207.646 137.488 210.222C132.406 212.441 129.081 218.828 129.957 228.656C130.833 238.485 136.456 241.064 137.746 255.53C139.035 269.997 134.072 273.978 135.892 284.8C137.712 295.623 170.685 297.171 174.667 290.722C177.574 284.737 168.234 259.636 168.487 251.658C168.741 243.681 171.339 225.779 168.981 221.143C167.365 217.967 156.428 211.667 147.987 210.862Z" fill="#35526C"/>
<path d="M170.301 247.565C175.242 255.785 178.63 255.92 180.244 255.22C182.661 254.172 183.543 250.909 181.416 244.245C179.289 237.582 172.369 216.758 165.382 220.302C158.18 223.954 165.36 239.345 170.301 247.565Z" fill="#35526C"/>
<path d="M145.142 204.937L145.704 211.243C145.884 213.264 151.827 215.329 156.617 212.59L156.142 207.264C156.142 207.264 161.877 207.574 163.037 206.672C164.198 205.771 163.73 188.001 160.16 186.231C154.241 182.444 140.546 185.429 141.309 193.977C141.549 196.672 144.677 199.732 145.142 204.937Z" fill="#DE966C"/>
<path d="M140.349 193.923C142.17 195.69 151.91 193.035 155.415 190.569C158.919 188.104 166.376 181.229 162.447 175.455C158.517 169.68 157.479 176.436 152.009 178.141C146.539 179.844 131.205 185.044 140.349 193.923Z" fill="#614638"/>
<path d="M138.686 191.985C138.208 196.158 143.677 206.795 145.536 206.635C149.534 206.234 152.483 199.639 155.585 198.224C158.685 196.81 160.967 189.659 158.147 188.316C155.327 186.974 138.686 191.985 138.686 191.985Z" fill="#614638"/>
<path d="M159.284 214.448C159.544 215.394 155.097 220.125 147.028 217.372C138.959 214.619 143.195 211.747 143.195 211.747L149.78 214.551L154.233 214.321L159.284 214.448Z" fill="#35526C"/>
<path d="M145.615 210.516C145.615 210.516 147.767 214.791 156.541 211.876C156.541 211.876 158.336 212.153 159.285 214.45C157.257 217.807 144.861 217.729 142.907 212.182C142.907 212.182 143.668 210.61 145.615 210.516Z" fill="#BED7EE"/>
<path d="M156.831 199.87C155.792 199.358 153.694 196.852 155.482 195.72C156.159 195.292 157.643 195.49 158.392 197.052" fill="#DE966C"/>
<path d="M285.054 426.2L390.799 365.62C392.914 364.409 395.519 364.409 397.634 365.62L465.707 404.618C469.316 406.685 469.316 411.852 465.707 413.918L424.07 437.771C417.91 441.298 410.325 441.298 404.166 437.771L347.167 470.426C345.492 471.384 343.428 471.384 341.753 470.426L285.054 437.944C280.498 435.334 280.498 428.81 285.054 426.2Z" fill="#D8E4FB"/>
<path d="M283.492 415.325L391.073 353.697C393.224 352.464 395.875 352.464 398.026 353.697L467.281 393.37C470.952 395.473 470.952 400.73 467.281 402.833L424.921 427.1C418.655 430.688 410.937 430.688 404.672 427.1L346.684 460.32C344.98 461.295 342.88 461.295 341.176 460.32L283.492 427.275C278.858 424.619 278.858 417.98 283.492 415.325Z" fill="#714EE8" fill-opacity="0.45"/>
<path d="M283.492 413.221L391.073 351.592C393.224 350.36 395.875 350.36 398.026 351.592L467.281 391.266C470.952 393.369 470.952 398.626 467.281 400.729L424.921 424.996C418.655 428.584 410.937 428.584 404.672 424.996L346.684 458.216C344.98 459.191 342.88 459.191 341.176 458.216L283.492 425.17C278.858 422.515 278.858 415.876 283.492 413.221Z" fill="#8F8F8F" fill-opacity="0.63"/>
<path d="M303.243 435.238L282.695 423.468L303.243 411.698L323.789 423.468L303.243 435.238Z" fill="white"/>
<path d="M308.603 413.632L321.467 421.234L317.984 423.166C316.23 424.138 313.403 424.099 311.671 423.074L305.083 419.181C303.349 418.156 303.367 416.537 305.12 415.565L308.603 413.632Z" fill="#716D8A"/>
<path d="M310.833 419.764C312.089 420.505 312.075 421.679 310.804 422.385L308.502 423.662L303.954 420.974L306.255 419.696C307.528 418.992 309.576 419.021 310.833 419.764Z" fill="#EFC9D3"/>
<path d="M305.587 420.121L307.215 420.397C308.391 420.595 309.305 421.134 309.614 421.813L310.041 422.754C310.68 424.161 309.966 425.644 308.168 426.642L304.593 428.628C301.958 430.091 297.712 430.027 295.109 428.488C292.506 426.95 292.53 424.517 295.165 423.055L298.74 421.072C300.538 420.074 303.149 419.712 305.587 420.121Z" fill="#EFC9D3"/>
<path d="M308.536 426.439C308.932 426.674 308.928 427.044 308.527 427.264L306.863 428.19C306.463 428.412 305.816 428.403 305.42 428.168C305.025 427.934 305.028 427.564 305.429 427.342L307.093 426.417C307.493 426.196 308.14 426.205 308.536 426.439Z" fill="#EFC9D3"/>
<path d="M299.108 420.868C299.506 421.103 299.502 421.473 299.1 421.693L297.435 422.618C297.035 422.84 296.39 422.83 295.993 422.597C295.599 422.363 295.601 421.993 296.002 421.771L297.667 420.846C298.067 420.625 298.712 420.633 299.108 420.868Z" fill="#EFC9D3"/>
<path d="M306.123 428.349C306.123 428.349 303.412 430.331 301.948 430.394C301.948 430.394 298.334 431.022 294.75 428.904C291.166 426.785 291.666 425.613 292.4 424.361C292.4 424.361 294.481 422.506 296.198 422.483L297.453 422.065C297.453 422.065 297.179 423.884 294.624 424.843C294.624 424.843 299.479 425.072 302.82 428.17C302.82 428.17 304.696 427.203 306.282 427.698L306.123 428.349Z" fill="#8B7866"/>
<path d="M283.492 396.824L391.073 335.196C393.224 333.963 395.875 333.963 398.026 335.196L467.281 374.869C470.952 376.972 470.952 382.229 467.281 384.332L424.921 408.599C418.655 412.187 410.937 412.187 404.672 408.599L346.684 441.82C344.98 442.794 342.88 442.794 341.176 441.82L283.492 408.774C278.858 406.118 278.858 399.479 283.492 396.824Z" fill="#714EE8" fill-opacity="0.49"/>
<path d="M283.492 394.721L391.073 333.093C393.224 331.86 395.875 331.86 398.026 333.093L467.281 372.766C470.952 374.869 470.952 380.126 467.281 382.229L424.921 406.496C418.655 410.084 410.937 410.084 404.672 406.496L346.684 439.717C344.98 440.692 342.88 440.692 341.176 439.717L283.492 406.671C278.858 404.016 278.858 397.377 283.492 394.721Z" fill="#8F8F8F" fill-opacity="0.68"/>
<path d="M303.243 416.737L282.695 404.967L303.243 393.198L323.789 404.967L303.243 416.737Z" fill="white"/>
<path d="M308.603 395.13L321.467 402.732L317.984 404.665C316.23 405.637 313.403 405.597 311.671 404.572L305.083 400.679C303.349 399.654 303.367 398.035 305.12 397.063L308.603 395.13Z" fill="#716D8A"/>
<path d="M310.833 401.262C312.089 402.003 312.075 403.177 310.804 403.883L308.502 405.16L303.954 402.472L306.255 401.194C307.528 400.49 309.576 400.519 310.833 401.262Z" fill="#EFC9D3"/>
<path d="M305.587 401.622L307.215 401.896C308.391 402.094 309.305 402.635 309.614 403.314L310.041 404.254C310.68 405.662 309.966 407.144 308.168 408.142L304.593 410.125C301.958 411.589 297.712 411.527 295.109 409.989C292.506 408.451 292.53 406.018 295.165 404.555L298.74 402.571C300.538 401.573 303.149 401.212 305.587 401.622Z" fill="#EFC9D3"/>
<path d="M308.536 407.938C308.932 408.173 308.928 408.543 308.527 408.764L306.863 409.689C306.463 409.911 305.816 409.902 305.42 409.667C305.025 409.433 305.028 409.063 305.429 408.841L307.093 407.916C307.493 407.696 308.14 407.704 308.536 407.938Z" fill="#EFC9D3"/>
<path d="M299.108 402.367C299.506 402.602 299.502 402.972 299.1 403.193L297.435 404.116C297.035 404.34 296.39 404.329 295.993 404.096C295.599 403.862 295.601 403.492 296.002 403.27L297.667 402.345C298.067 402.125 298.712 402.132 299.108 402.367Z" fill="#EFC9D3"/>
<path d="M306.123 409.848C306.123 409.848 303.412 411.83 301.948 411.895C301.948 411.895 298.334 412.521 294.75 410.403C291.166 408.284 291.666 407.112 292.4 405.861C292.4 405.861 294.481 404.004 296.198 403.982L297.453 403.564C297.453 403.564 297.179 405.383 294.624 406.342C294.624 406.342 299.479 406.571 302.82 409.67C302.82 409.67 304.696 408.701 306.282 409.197L306.123 409.848Z" fill="#8B7866"/>
<path d="M283.492 379.58L391.073 317.952C393.224 316.719 395.875 316.719 398.026 317.952L467.281 357.626C470.952 359.729 470.952 364.985 467.281 367.088L424.921 391.355C418.655 394.943 410.937 394.943 404.672 391.355L346.684 424.577C344.98 425.552 342.88 425.552 341.176 424.577L283.492 391.531C278.858 388.876 278.858 382.235 283.492 379.58Z" fill="#714EE8"/>
<path d="M283.492 377.477L391.073 315.849C393.224 314.616 395.875 314.616 398.026 315.849L467.281 355.522C470.952 357.625 470.952 362.882 467.281 364.985L424.921 389.252C418.655 392.84 410.937 392.84 404.672 389.252L346.684 422.473C344.98 423.448 342.88 423.448 341.176 422.473L283.492 389.427C278.858 386.771 278.858 380.132 283.492 377.477Z" fill="#8F8F8F" fill-opacity="0.74"/>
<path d="M303.243 399.493L282.695 387.722L303.243 375.952L323.789 387.722L303.243 399.493Z" fill="white"/>
<path d="M308.603 377.887L321.467 385.489L317.984 387.422C316.23 388.395 313.403 388.354 311.671 387.329L305.083 383.436C303.349 382.411 303.367 380.792 305.12 379.82L308.603 377.887Z" fill="#716D8A"/>
<path d="M310.833 384.019C312.089 384.761 312.075 385.934 310.804 386.64L308.502 387.917L303.954 385.229L306.255 383.952C307.528 383.247 309.576 383.277 310.833 384.019Z" fill="#EFC9D3"/>
<path d="M305.587 384.378L307.215 384.653C308.391 384.851 309.305 385.391 309.614 386.07L310.041 387.01C310.68 388.417 309.966 389.9 308.168 390.898L304.593 392.885C301.958 394.347 297.712 394.283 295.109 392.744C292.506 391.207 292.53 388.773 295.165 387.311L298.74 385.328C300.538 384.33 303.149 383.968 305.587 384.378Z" fill="#EFC9D3"/>
<path d="M308.536 390.694C308.932 390.929 308.928 391.299 308.527 391.519L306.863 392.445C306.463 392.667 305.816 392.658 305.42 392.423C305.025 392.189 305.028 391.819 305.429 391.597L307.093 390.672C307.493 390.451 308.14 390.46 308.536 390.694Z" fill="#EFC9D3"/>
<path d="M299.108 385.123C299.506 385.358 299.502 385.728 299.1 385.948L297.435 386.872C297.035 387.096 296.39 387.085 295.993 386.852C295.599 386.618 295.601 386.248 296.002 386.026L297.667 385.101C298.067 384.88 298.712 384.888 299.108 385.123Z" fill="#EFC9D3"/>
<path d="M306.123 392.604C306.123 392.604 303.412 394.586 301.948 394.651C301.948 394.651 298.334 395.277 294.75 393.159C291.166 391.04 291.666 389.868 292.4 388.617C292.4 388.617 294.481 386.76 296.198 386.738L297.453 386.32C297.453 386.32 297.179 388.139 294.624 389.098C294.624 389.098 299.479 389.327 302.82 392.425C302.82 392.425 304.696 391.457 306.282 391.953L306.123 392.604Z" fill="#8B7866"/>
</svg>
