<svg width="13" height="12" viewBox="0 0 13 12" fill="none" xmlns="http://www.w3.org/2000/svg">
<g clip-path="url(#clip0_307_4725)">
<path fill-rule="evenodd" clip-rule="evenodd" d="M2.76716 2.4335C3.15553 2.385 3.63112 2.3765 4.20312 2.3755C4.2371 1.96723 4.43681 1.58586 4.7623 1.30765C5.08779 1.02945 5.51506 0.87493 5.95866 0.875H7.04199C7.48541 0.875047 7.91247 1.02955 8.23783 1.30764C8.56319 1.58573 8.76288 1.96691 8.79699 2.375C9.36953 2.3765 9.84512 2.385 10.2335 2.4335C10.721 2.4935 11.1316 2.6235 11.4577 2.924C11.7837 3.225 11.9235 3.604 11.9896 4.054C12.0524 4.4875 12.0524 5.039 12.0524 5.7225V7.7775C12.0524 8.461 12.0524 9.0125 11.9896 9.446C11.9235 9.896 11.7837 10.275 11.4577 10.576C11.1316 10.877 10.721 11.006 10.2335 11.067C9.76387 11.125 9.16641 11.125 8.42595 11.125H4.5747C3.83424 11.125 3.23678 11.125 2.76716 11.067C2.27966 11.006 1.86908 10.877 1.54299 10.576C1.21691 10.275 1.07716 9.896 1.01162 9.446C0.948242 9.0125 0.948242 8.461 0.948242 7.7775V5.7225C0.948242 5.039 0.948242 4.4875 1.01162 4.054C1.07662 3.604 1.21745 3.225 1.54299 2.924C1.86908 2.623 2.27966 2.494 2.76716 2.4335ZM7.98016 2.375H5.02049C5.05305 2.16676 5.16582 1.97631 5.33812 1.83857C5.51042 1.70083 5.73072 1.62501 5.95866 1.625H7.04199C7.26993 1.62501 7.49023 1.70083 7.66253 1.83857C7.83483 1.97631 7.9476 2.16676 7.98016 2.375ZM2.87549 10.3235C2.47791 10.274 2.26774 10.1835 2.1177 10.0455C1.96766 9.907 1.87016 9.713 1.81653 9.3455C1.76183 8.968 1.76074 8.4675 1.76074 7.75V6.065C3.75841 6.839 4.92516 7.262 6.15366 7.315C6.38441 7.325 6.61624 7.325 6.84699 7.315C8.07549 7.262 9.24224 6.839 11.2399 6.065V7.75C11.2399 8.4675 11.2388 8.968 11.1841 9.346C11.1305 9.713 11.0325 9.907 10.883 10.0455C10.7329 10.184 10.5227 10.274 10.1246 10.3235C9.71566 10.374 9.17345 10.375 8.39616 10.375H4.60449C3.8272 10.375 3.28445 10.374 2.87549 10.3235ZM11.2388 5.2515C9.00445 6.119 7.92978 6.5175 6.80908 6.5655C6.60324 6.5745 6.39741 6.5745 6.19158 6.5655C5.07033 6.5175 3.9962 6.119 1.76183 5.2515C1.76453 4.79 1.77537 4.4375 1.81653 4.154C1.87016 3.787 1.9682 3.593 2.1177 3.4545C2.26774 3.316 2.47791 3.226 2.87603 3.1765C3.28445 3.126 3.8272 3.125 4.60449 3.125H8.39616C9.17345 3.125 9.71566 3.126 10.1252 3.1765C10.5227 3.226 10.7329 3.3165 10.883 3.4545C11.033 3.593 11.1305 3.787 11.1841 4.1545C11.2253 4.4375 11.2361 4.7895 11.2388 5.2515Z" fill="#292D32"/>
</g>
<defs>
<clipPath id="clip0_307_4725">
<rect width="13" height="12" fill="white"/>
</clipPath>
</defs>
</svg>
