<svg width="38" height="34" viewBox="0 0 38 34" fill="none" xmlns="http://www.w3.org/2000/svg">
<path d="M18.6046 4.42139C11.0772 4.42139 4.96121 9.87186 4.96121 16.5802C4.96121 18.5422 5.52431 20.4633 6.5426 22.1998L4.97795 28.0581C4.95328 28.1501 4.95547 28.2461 4.98433 28.3371C5.01318 28.428 5.06773 28.5109 5.14276 28.5777C5.21779 28.6445 5.31079 28.693 5.41288 28.7187C5.51496 28.7443 5.62272 28.7462 5.72586 28.7241L12.2995 27.3297C14.2474 28.2372 16.4031 28.739 18.6046 28.739C26.1314 28.739 32.248 23.2891 32.248 16.5802C32.248 9.8713 26.1327 4.42139 18.6046 4.42139ZM18.6046 5.52673C25.4623 5.52673 31.0077 10.4693 31.0077 16.5802C31.0077 22.6911 25.4617 27.6337 18.6046 27.6337C16.5178 27.6337 14.4638 27.1639 12.6344 26.2686C12.4995 26.2026 12.3419 26.1837 12.1922 26.2155L6.41857 27.4403L7.79283 22.2949C7.82872 22.1615 7.80772 22.0211 7.73392 21.9008C6.72899 20.2704 6.20192 18.4404 6.20152 16.5802C6.20152 10.4687 11.7476 5.52673 18.6046 5.52673Z" fill="#798071"/>
<path d="M12.4034 14.9221C11.3833 14.9221 10.543 15.671 10.543 16.5801C10.543 17.4893 11.3833 18.2382 12.4034 18.2382C13.4236 18.2382 14.2639 17.4893 14.2639 16.5801C14.2639 15.671 13.4236 14.9221 12.4034 14.9221ZM12.4034 16.0275C12.7532 16.0275 13.0236 16.2684 13.0236 16.5801C13.0236 16.8918 12.7532 17.1328 12.4034 17.1328C12.0537 17.1328 11.7833 16.8918 11.7833 16.5801C11.7833 16.2684 12.0537 16.0275 12.4034 16.0275ZM18.605 14.9221C17.5848 14.9221 16.7445 15.671 16.7445 16.5801C16.7445 17.4893 17.5848 18.2382 18.605 18.2382C19.6251 18.2382 20.4654 17.4893 20.4654 16.5801C20.4654 15.671 19.6251 14.9221 18.605 14.9221ZM18.605 16.0275C18.9548 16.0275 19.2251 16.2684 19.2251 16.5801C19.2251 16.8918 18.9548 17.1328 18.605 17.1328C18.2552 17.1328 17.9848 16.8918 17.9848 16.5801C17.9848 16.2684 18.2552 16.0275 18.605 16.0275ZM24.8065 14.9221C23.7864 14.9221 22.9461 15.671 22.9461 16.5801C22.9461 17.4893 23.7864 18.2382 24.8065 18.2382C25.8267 18.2382 26.667 17.4893 26.667 16.5801C26.667 15.671 25.8267 14.9221 24.8065 14.9221ZM24.8065 16.0275C25.1563 16.0275 25.4267 16.2684 25.4267 16.5801C25.4267 16.8918 25.1563 17.1328 24.8065 17.1328C24.4568 17.1328 24.1864 16.8918 24.1864 16.5801C24.1864 16.2684 24.4568 16.0275 24.8065 16.0275Z" fill="#714EE8"/>
</svg>
