<svg width="40" height="37" viewBox="0 0 40 37" fill="none" xmlns="http://www.w3.org/2000/svg">
<path d="M20.003 10.4148C22.1799 10.4148 23.9335 12.0592 23.9335 14.1064C23.9335 16.1424 22.1799 17.7868 20.003 17.7868C19.4829 17.7846 18.9685 17.6874 18.4891 17.5008C18.0098 17.3141 17.575 17.0417 17.2098 16.6992C16.8446 16.3567 16.5561 15.9509 16.3609 15.505C16.1658 15.059 16.0678 14.5818 16.0726 14.1008C16.0726 12.0592 17.8261 10.4092 20.003 10.4092V10.4148Z" stroke="#798071" stroke-width="1.00151" stroke-linecap="round" stroke-linejoin="round"/>
<path d="M20.003 3.75879C11.2956 3.75879 4.2691 10.3478 4.2691 18.4973C4.2691 26.6468 11.2956 33.2413 20.003 33.2413C28.7105 33.2413 35.7309 26.6412 35.7309 18.4973C35.7309 10.3478 28.7045 3.75879 20.003 3.75879Z" fill="#714EE8"/>
<path d="M20.003 9.67651C18.7403 9.68243 17.5318 10.1517 16.6429 10.9813C15.754 11.8108 15.2574 12.9329 15.2623 14.1009C15.2623 16.5396 17.3847 18.5252 20.003 18.5252C21.2631 18.5163 22.4682 18.0467 23.3553 17.2188C24.2424 16.3909 24.7393 15.2721 24.7377 14.1064C24.7425 12.9394 24.2468 11.8182 23.3592 10.9888C22.4716 10.1594 21.2647 9.68391 20.003 9.67651ZM20.0272 20.7737C18.0257 20.7737 16.2237 21.2771 14.6455 22.0378C13.1584 22.7728 11.7989 23.7099 10.6122 24.8177C8.97352 26.3223 8.31442 27.2396 7.8609 27.9108C10.7453 31.155 15.1353 33.2413 20.003 33.2413C24.8707 33.2413 29.3636 31.1941 32.1209 27.9052C31.3685 26.7705 30.4576 25.7323 29.4119 24.8177C28.2322 23.7097 26.8786 22.7725 25.3968 22.0378C23.7443 21.2197 21.9014 20.7858 20.0272 20.7737Z" fill="#ECEBF1"/>
<path d="M19.9985 3.7588C11.292 3.7588 4.26848 10.3458 4.26848 18.4955C4.26225 20.7984 4.83827 23.0707 5.95053 25.1309C7.0628 27.1912 8.68048 28.9823 10.6744 30.3613C8.5894 27.793 7.46408 24.6671 7.46824 21.4553C7.46824 13.3056 14.4917 6.7171 23.1983 6.7171C26.5628 6.71688 29.8363 7.72812 32.5256 9.59844C29.657 6.05411 25.1277 3.7588 19.9985 3.7588Z" fill="#714EE8"/>
<path d="M19.9985 9.67993C17.3859 9.67993 15.2629 11.6674 15.2629 14.1018C15.2629 16.1086 16.7123 17.7927 18.6834 18.3314C18.5425 17.9205 18.4676 17.4926 18.461 17.0616C18.461 14.6272 20.5857 12.6397 23.1983 12.6397C23.6574 12.6397 24.0942 12.7211 24.5134 12.8365C23.9262 11.0192 22.1359 9.67993 19.9985 9.67993ZM20.0241 20.7732C18.0242 20.7732 16.2228 21.2778 14.6453 22.037C13.0678 22.7947 11.7143 23.8069 10.612 24.8177C8.97214 26.3198 8.31138 27.2403 7.86182 27.9122C8.82292 28.982 9.94335 29.9202 11.1896 30.6988C11.6391 30.0402 12.2855 29.1745 13.8118 27.7775C14.9157 26.7667 16.2676 25.7545 17.8451 24.9953C19.4225 24.2376 21.224 23.733 23.2239 23.733C25.2237 23.733 27.022 24.2376 28.5947 24.9968C29.4906 25.4289 30.3065 25.9469 31.0505 26.4959C30.6473 26.0283 30.1385 25.4896 29.4106 24.8177C28.3131 23.8069 26.9676 22.7947 25.3949 22.0355C24.8994 21.8013 24.3879 21.5971 23.8638 21.4243C23.6446 21.4539 23.427 21.488 23.1983 21.488C22.2863 21.488 21.4432 21.2364 20.72 20.8161C20.4881 20.8028 20.2625 20.7732 20.0241 20.7732Z" fill="#D9D7E4"/>
<path d="M19.9985 3.7588C11.292 3.7588 4.26849 10.3458 4.26849 18.4955C4.26849 26.6453 11.292 33.2426 19.9985 33.2426C28.705 33.2426 35.7285 26.6453 35.7285 18.4955C35.7285 10.3458 28.705 3.7588 19.9985 3.7588ZM19.9985 5.23129C27.8347 5.23129 34.1222 11.1286 34.1222 18.4955C34.1313 21.1695 33.2749 23.7847 31.6632 26.0045C31.0873 25.0633 27.6923 20.0361 20.0241 20.0361C12.3511 20.0361 8.91774 25.0707 8.33699 26.0074C6.72302 23.7873 5.86487 21.1709 5.87317 18.4955C5.87317 11.1286 12.1623 5.23129 19.9985 5.23129ZM19.9985 9.67984C17.3859 9.67984 15.2629 11.6673 15.2629 14.1017C15.2629 16.5362 17.3859 18.5266 19.9985 18.5266C22.6111 18.5266 24.7341 16.5362 24.7341 14.1017C24.7341 11.6673 22.6111 9.67984 19.9985 9.67984ZM19.9985 11.1538C21.7424 11.1538 23.1295 12.4517 23.1295 14.1017C23.1295 15.7533 21.7408 17.0526 19.9985 17.0526C18.2546 17.0526 16.8675 15.7533 16.8675 14.1017C16.8675 12.4517 18.2562 11.1538 19.9985 11.1538ZM20.0241 21.5101C27.5963 21.5101 30.4633 27.0152 30.4633 27.0152C30.507 27.0972 30.5667 27.1709 30.6393 27.2328C29.3262 28.6561 27.6947 29.7987 25.8575 30.5819C24.0204 31.365 22.0213 31.7699 19.9985 31.7686C17.9751 31.7698 15.9756 31.3645 14.1382 30.5808C12.3007 29.7972 10.6691 28.6539 9.35611 27.2298C9.42454 27.1713 9.48139 27.1022 9.5241 27.0256C9.5241 27.0256 12.4519 21.5101 20.0241 21.5101Z" fill="#798071"/>
</svg>
