<svg width="33" height="33" viewBox="0 0 33 33" fill="none" xmlns="http://www.w3.org/2000/svg">
<g clip-path="url(#clip0_129_180)">
<path d="M14.4375 1.03125C14.3007 1.03125 14.1696 1.08557 14.0729 1.18227C13.9762 1.27897 13.9219 1.41012 13.9219 1.54688V2.36466C13.6476 2.45128 13.3846 2.56059 13.1278 2.69053L12.5524 2.11509C12.4557 2.01843 12.3246 1.96413 12.1878 1.96413C12.0511 1.96413 11.92 2.01843 11.8233 2.11509L10.3641 3.57328C10.2674 3.66998 10.2131 3.8011 10.2131 3.93783C10.2131 4.07455 10.2674 4.20568 10.3641 4.30237L10.9395 4.87781C10.8082 5.13289 10.6985 5.3985 10.6116 5.67188H9.79688C9.66012 5.67188 9.52897 5.7262 9.43227 5.8229C9.33557 5.9196 9.28125 6.05075 9.28125 6.1875V8.25C9.28125 8.38675 9.33557 8.5179 9.43227 8.6146C9.52897 8.7113 9.66012 8.76562 9.79688 8.76562H10.6126C10.6992 9.03994 10.8085 9.30497 10.9385 9.56072L10.3651 10.1351C10.2684 10.2318 10.2141 10.3629 10.2141 10.4997C10.2141 10.6364 10.2684 10.7675 10.3651 10.8642L11.8233 12.3224C11.92 12.4191 12.0511 12.4734 12.1878 12.4734C12.3246 12.4734 12.4557 12.4191 12.5524 12.3224L13.1278 11.747C13.3846 11.879 13.6476 11.9893 13.9219 12.077V12.8906C13.9219 13.0274 13.9762 13.1585 14.0729 13.2552C14.1696 13.3519 14.3007 13.4062 14.4375 13.4062H16.5C16.6368 13.4062 16.7679 13.3519 16.8646 13.2552C16.9613 13.1585 17.0156 13.0274 17.0156 12.8906V12.0749C17.2899 11.9883 17.555 11.88 17.8107 11.749L18.3851 12.3224C18.4818 12.4191 18.6129 12.4734 18.7497 12.4734C18.8864 12.4734 19.0175 12.4191 19.1142 12.3224L20.5724 10.8642C20.6691 10.7675 20.7234 10.6364 20.7234 10.4997C20.7234 10.3629 20.6691 10.2318 20.5724 10.1351L19.999 9.56072C20.1304 9.30532 20.2401 9.03936 20.327 8.76562H21.1406C21.2774 8.76562 21.4085 8.7113 21.5052 8.6146C21.6019 8.5179 21.6562 8.38675 21.6562 8.25V6.1875C21.6562 6.05075 21.6019 5.9196 21.5052 5.8229C21.4085 5.7262 21.2774 5.67188 21.1406 5.67188H20.3249C20.2387 5.3982 20.1297 5.13223 19.999 4.87678L20.5724 4.30237C20.6691 4.20568 20.7234 4.07455 20.7234 3.93783C20.7234 3.8011 20.6691 3.66998 20.5724 3.57328L19.1142 2.11406C19.0175 2.0174 18.8864 1.96309 18.7497 1.96309C18.6129 1.96309 18.4818 2.0174 18.3851 2.11406L17.8097 2.6895C17.5546 2.55823 17.289 2.44853 17.0156 2.36156V1.54688C17.0156 1.41012 16.9613 1.27897 16.8646 1.18227C16.7679 1.08557 16.6368 1.03125 16.5 1.03125H14.4375ZM14.9531 2.0625H15.9844V2.69878C15.9843 2.81572 16.0239 2.92923 16.0968 3.02068C16.1697 3.11212 16.2715 3.17607 16.3855 3.20203C16.8372 3.30516 17.2693 3.48356 17.6622 3.73003C17.7612 3.79227 17.8784 3.81902 17.9945 3.8059C18.1107 3.79279 18.219 3.74058 18.3016 3.65784L18.7502 3.20822L19.4793 3.93731L19.0317 4.38487C18.949 4.46748 18.8968 4.57575 18.8837 4.69192C18.8705 4.8081 18.8973 4.92528 18.9595 5.02425C19.205 5.41612 19.3813 5.84925 19.4834 6.303C19.5096 6.41683 19.5736 6.51841 19.665 6.5911C19.7565 6.66379 19.8699 6.70329 19.9867 6.70312H20.625V7.73438H19.9887C19.8716 7.73432 19.758 7.77411 19.6666 7.8472C19.5751 7.9203 19.5112 8.02235 19.4855 8.13656C19.3823 8.58928 19.2039 9.01931 18.9575 9.41222C18.8952 9.51119 18.8685 9.62837 18.8816 9.74455C18.8947 9.86072 18.9469 9.96899 19.0297 10.0516L19.4793 10.5002L18.7502 11.2293L18.3026 10.7817C18.2202 10.6997 18.1125 10.648 17.997 10.6349C17.8815 10.6218 17.765 10.6481 17.6663 10.7095C17.2727 10.9554 16.8404 11.1332 16.3876 11.2355C16.2735 11.2609 16.1715 11.3244 16.0982 11.4155C16.025 11.5065 15.9848 11.6198 15.9844 11.7367V12.375H14.9531V11.7387C14.953 11.622 14.9133 11.5087 14.8404 11.4175C14.7675 11.3262 14.6658 11.2624 14.552 11.2365C14.0998 11.1338 13.6682 10.9556 13.2753 10.7095C13.1768 10.6468 13.0598 10.6193 12.9437 10.6317C12.8275 10.6441 12.719 10.6955 12.6359 10.7776L12.1873 11.2272L11.4582 10.4981L11.9058 10.0506C11.9878 9.96817 12.0395 9.86048 12.0526 9.74499C12.0657 9.62949 12.0394 9.51295 11.978 9.41428C11.7327 9.02049 11.5556 8.58819 11.4541 8.13553C11.4285 8.02113 11.3648 7.91884 11.2733 7.84554C11.1818 7.77224 11.0681 7.73231 10.9508 7.73231H10.3125V6.70106H10.9488C11.0657 6.70117 11.1792 6.66153 11.2707 6.58864C11.3621 6.51574 11.4261 6.41393 11.452 6.29991C11.5552 5.84822 11.7336 5.41819 11.98 5.02528C12.0425 4.92621 12.0694 4.80881 12.0563 4.69241C12.0432 4.57601 11.9908 4.46755 11.9078 4.38487L11.4582 3.93525L12.1873 3.20616L12.6349 3.65372C12.717 3.73603 12.8246 3.78816 12.9401 3.80164C13.0556 3.81512 13.1723 3.78916 13.2712 3.72797C13.6648 3.48206 14.0971 3.30426 14.5499 3.20203C14.664 3.17655 14.766 3.11308 14.8393 3.02202C14.9125 2.93096 14.9527 2.81772 14.9531 2.70084V2.0625ZM24.5623 11.3438C24.4256 11.3438 24.2944 11.3981 24.1977 11.4948C24.101 11.5915 24.0467 11.7226 24.0467 11.8594V12.8865C23.6813 12.9968 23.3274 13.1418 22.9897 13.3196L22.2678 12.5977C22.1711 12.5014 22.0402 12.4473 21.9037 12.4473C21.7673 12.4473 21.6364 12.5014 21.5397 12.5977L19.8155 14.3199C19.7675 14.3678 19.7294 14.4247 19.7034 14.4874C19.6774 14.55 19.664 14.6172 19.664 14.685C19.664 14.7528 19.6774 14.82 19.7034 14.8826C19.7294 14.9453 19.7675 15.0022 19.8155 15.0501L20.5404 15.775C20.3614 16.1112 20.215 16.4638 20.1032 16.8279H19.0781C18.9414 16.8279 18.8102 16.8823 18.7135 16.979C18.6168 17.0757 18.5625 17.2068 18.5625 17.3436V19.7835C18.5625 19.9203 18.6168 20.0514 18.7135 20.1481C18.8102 20.2448 18.9414 20.2991 19.0781 20.2991H20.1032C20.2146 20.6642 20.3579 21.0158 20.5363 21.3541L19.8144 22.077C19.7178 22.1737 19.6635 22.3048 19.6635 22.4415C19.6635 22.5783 19.7178 22.7094 19.8144 22.8061L21.5397 24.5283C21.6364 24.6249 21.7675 24.6792 21.9043 24.6792C22.041 24.6792 22.1721 24.6249 22.2688 24.5283L22.9907 23.8054C23.33 23.9848 23.6816 24.1302 24.0467 24.2426V25.2656C24.0467 25.4024 24.101 25.5335 24.1977 25.6302C24.2944 25.7269 24.4256 25.7812 24.5623 25.7812H27.0002C27.1369 25.7812 27.2681 25.7269 27.3648 25.6302C27.4615 25.5335 27.5158 25.4024 27.5158 25.2656V24.2406C27.8812 24.1303 28.2351 23.9853 28.5728 23.8074L29.2947 24.5293C29.3914 24.6257 29.5223 24.6798 29.6588 24.6798C29.7952 24.6798 29.9261 24.6257 30.0228 24.5293L31.747 22.8071C31.795 22.7592 31.8331 22.7023 31.8591 22.6397C31.8851 22.577 31.8985 22.5099 31.8985 22.4421C31.8985 22.3742 31.8851 22.3071 31.8591 22.2444C31.8331 22.1818 31.795 22.1249 31.747 22.077L31.0221 21.352C31.2015 21.0148 31.3469 20.6642 31.4593 20.2991H32.4844C32.6211 20.2991 32.7523 20.2448 32.849 20.1481C32.9457 20.0514 33 19.9203 33 19.7835V17.3436C33 17.2068 32.9457 17.0757 32.849 16.979C32.7523 16.8823 32.6211 16.8279 32.4844 16.8279H31.4593C31.3489 16.4633 31.2039 16.11 31.0262 15.773L31.7481 15.0501C31.8447 14.9534 31.899 14.8222 31.899 14.6855C31.899 14.5488 31.8447 14.4177 31.7481 14.321L30.0228 12.5988C29.9261 12.5021 29.795 12.4478 29.6582 12.4478C29.5215 12.4478 29.3904 12.5021 29.2937 12.5988L28.5718 13.3217C28.2346 13.1425 27.881 12.9961 27.5158 12.8844V11.8594C27.5158 11.7226 27.4615 11.5915 27.3648 11.4948C27.2681 11.3981 27.1369 11.3438 27.0002 11.3438H24.5623ZM25.0779 12.375H26.4846V13.2206C26.4842 13.3376 26.5236 13.4512 26.5963 13.5429C26.669 13.6345 26.7707 13.6987 26.8847 13.7249C27.4292 13.8487 27.951 14.0642 28.4233 14.3612C28.5223 14.4234 28.6395 14.4502 28.7556 14.4371C28.8718 14.4239 28.9801 14.3717 29.0627 14.289L29.6588 13.6919L30.6539 14.685L30.0589 15.2811C29.9763 15.3633 29.924 15.471 29.9105 15.5868C29.8971 15.7025 29.9232 15.8194 29.9846 15.9184C30.2806 16.3927 30.4951 16.9135 30.6168 17.4591C30.643 17.5731 30.7072 17.6748 30.7988 17.7475C30.8904 17.8202 31.0041 17.8596 31.1211 17.8592H31.9688V19.2679H31.1231C31.0061 19.2675 30.8925 19.3069 30.8009 19.3796C30.7092 19.4523 30.645 19.554 30.6188 19.668C30.4954 20.2122 30.281 20.7317 29.9846 21.2046C29.9223 21.3034 29.8953 21.4205 29.9083 21.5367C29.9212 21.6529 29.9732 21.7612 30.0558 21.8439L30.6539 22.4421L29.6588 23.4352L29.0648 22.8401C28.9821 22.7574 28.8739 22.7052 28.7577 22.6921C28.6415 22.6789 28.5243 22.7057 28.4254 22.7679C27.951 23.0639 27.4323 23.2784 26.8868 23.4001C26.7727 23.4258 26.6708 23.4895 26.5977 23.5808C26.5246 23.672 26.4847 23.7854 26.4846 23.9023V24.75H25.0779V23.9044C25.0779 23.7878 25.0383 23.6746 24.9656 23.5834C24.8929 23.4922 24.7915 23.4283 24.6778 23.4022C24.1328 23.278 23.6127 23.0629 23.1392 22.7659C23.0402 22.7036 22.923 22.6769 22.8069 22.69C22.6907 22.7031 22.5824 22.7553 22.4998 22.8381L21.9037 23.4352L20.9086 22.4421L21.5036 21.846C21.5862 21.7638 21.6385 21.656 21.652 21.5403C21.6654 21.4246 21.6393 21.3077 21.5779 21.2087C21.2821 20.7343 21.0684 20.2134 20.9457 19.668C20.9195 19.554 20.8553 19.4523 20.7637 19.3796C20.6721 19.3069 20.5584 19.2675 20.4414 19.2679H19.5938V17.8592H20.4394C20.5564 17.8596 20.67 17.8202 20.7616 17.7475C20.8533 17.6748 20.9175 17.5731 20.9437 17.4591C21.0671 16.9148 21.2815 16.3954 21.5779 15.9225C21.6402 15.8236 21.6672 15.7065 21.6542 15.5904C21.6413 15.4742 21.5893 15.3659 21.5067 15.2831L20.9086 14.685L21.9037 13.6919L22.4977 14.2869C22.5804 14.3697 22.6886 14.4219 22.8048 14.435C22.921 14.4481 23.0382 14.4214 23.1371 14.3591C23.6115 14.0632 24.1302 13.8487 24.6757 13.727C24.7901 13.7012 24.8923 13.6372 24.9654 13.5455C25.0385 13.4538 25.0782 13.3399 25.0779 13.2227V12.375ZM7.68797 14.4375C7.55122 14.4375 7.42006 14.4918 7.32337 14.5885C7.22667 14.6852 7.17234 14.8164 7.17234 14.9531V16.3989C6.6228 16.5559 6.09253 16.7738 5.59144 17.0486L4.57463 16.0308C4.47793 15.9341 4.3468 15.8798 4.21008 15.8798C4.07335 15.8798 3.94223 15.9341 3.84553 16.0308L1.59328 18.2841C1.49662 18.3808 1.44231 18.5119 1.44231 18.6486C1.44231 18.7853 1.49662 18.9165 1.59328 19.0132L2.61216 20.0331C2.33571 20.5329 2.11606 21.0622 1.95731 21.6109H0.515625C0.378873 21.6109 0.247722 21.6652 0.151023 21.7619C0.0543246 21.8586 0 21.9897 0 22.1265L0 25.3131C0 25.4498 0.0543246 25.581 0.151023 25.6777C0.247722 25.7744 0.378873 25.8287 0.515625 25.8287H1.96144C2.11922 26.3794 2.33372 26.9074 2.60803 27.4086L1.59328 28.4254C1.49662 28.5221 1.44231 28.6532 1.44231 28.7899C1.44231 28.9266 1.49662 29.0578 1.59328 29.1545L3.84553 31.4088C3.94223 31.5054 4.07335 31.5598 4.21008 31.5598C4.3468 31.5598 4.47793 31.5054 4.57463 31.4088L5.59556 30.3899C6.09572 30.6652 6.62269 30.8839 7.17337 31.0427V32.4844C7.17337 32.6211 7.2277 32.7523 7.3244 32.849C7.4211 32.9457 7.55225 33 7.689 33H10.8745C11.0113 33 11.1424 32.9457 11.2391 32.849C11.3358 32.7523 11.3902 32.6211 11.3902 32.4844V31.0406C11.9397 30.8837 12.47 30.6658 12.9711 30.3909L13.9879 31.4088C14.0846 31.5054 14.2157 31.5598 14.3524 31.5598C14.4891 31.5598 14.6203 31.5054 14.717 31.4088L16.9692 29.1545C17.0659 29.0578 17.1202 28.9266 17.1202 28.7899C17.1202 28.6532 17.0659 28.5221 16.9692 28.4254L15.9503 27.4065C16.2267 26.9053 16.4453 26.3794 16.6052 25.8287H18.0469C18.1836 25.8287 18.3148 25.7744 18.4115 25.6777C18.5082 25.581 18.5625 25.4498 18.5625 25.3131V22.1265C18.5625 21.9897 18.5082 21.8586 18.4115 21.7619C18.3148 21.6652 18.1836 21.6109 18.0469 21.6109H16.6011C16.4451 21.0618 16.2282 20.5319 15.9545 20.031L16.9692 19.0142C17.0172 18.9663 17.0553 18.9094 17.0813 18.8467C17.1073 18.7841 17.1207 18.7169 17.1207 18.6491C17.1207 18.5813 17.1073 18.5141 17.0813 18.4515C17.0553 18.3889 17.0172 18.332 16.9692 18.2841L14.717 16.0308C14.6203 15.9341 14.4891 15.8798 14.3524 15.8798C14.2157 15.8798 14.0846 15.9341 13.9879 16.0308L12.9669 17.0497C12.467 16.774 11.9377 16.555 11.3891 16.3969V14.9531C11.3891 14.8164 11.3348 14.6852 11.2381 14.5885C11.1414 14.4918 11.0103 14.4375 10.8735 14.4375H7.68797ZM8.20359 15.4688H10.3589V16.7341C10.3588 16.851 10.3984 16.9645 10.4713 17.056C10.5442 17.1474 10.646 17.2114 10.7601 17.2373C11.4892 17.4034 12.1863 17.6911 12.8205 18.0892C12.9194 18.1511 13.0363 18.1777 13.1523 18.1646C13.2682 18.1515 13.3763 18.0995 13.4588 18.017L14.3529 17.1239L15.8761 18.6491L14.9872 19.5391C14.9048 19.6212 14.8527 19.7288 14.8392 19.8443C14.8258 19.9598 14.8517 20.0765 14.9129 20.1754C15.3089 20.8106 15.5966 21.5077 15.7606 22.2379C15.7861 22.3521 15.8497 22.4543 15.941 22.5275C16.0323 22.6008 16.1458 22.6409 16.2628 22.6411H17.5312V24.7985H16.2659C16.149 24.7984 16.0355 24.838 15.944 24.9109C15.8526 24.9838 15.7886 25.0856 15.7627 25.1996C15.5965 25.9294 15.3086 26.626 14.9108 27.2601C14.8489 27.3589 14.8223 27.4759 14.8354 27.5919C14.8485 27.7078 14.9005 27.8159 14.983 27.8984L15.8761 28.7904L14.3529 30.3146L13.463 29.4247C13.3804 29.3419 13.2721 29.2897 13.1559 29.2766C13.0397 29.2635 12.9226 29.2902 12.8236 29.3525C12.1885 29.7483 11.4913 30.0342 10.7611 30.1981C10.6469 30.2239 10.5448 30.2877 10.4717 30.3792C10.3986 30.4706 10.3588 30.5843 10.3589 30.7013V31.9687H8.20359V30.7034C8.20324 30.5868 8.16338 30.4738 8.09053 30.3828C8.01767 30.2917 7.91612 30.2281 7.80244 30.2022C7.07263 30.0361 6.37605 29.7481 5.742 29.3504C5.64335 29.2882 5.52652 29.2612 5.41058 29.274C5.29464 29.2867 5.18644 29.3384 5.10366 29.4205L4.20956 30.3146L2.68641 28.7904L3.57534 27.9005C3.65766 27.8183 3.70979 27.7108 3.72327 27.5953C3.73675 27.4797 3.71078 27.3631 3.64959 27.2642C3.25307 26.6292 2.96649 25.932 2.80191 25.2017C2.77639 25.0875 2.71277 24.9853 2.6215 24.912C2.53022 24.8387 2.41674 24.7987 2.29969 24.7985H1.03125V22.6411H2.29659C2.41354 22.6412 2.52704 22.6016 2.61849 22.5287C2.70993 22.4558 2.77388 22.354 2.79984 22.2399C2.96587 21.5108 3.25359 20.8137 3.65166 20.1795C3.71363 20.0806 3.74023 19.9637 3.72712 19.8477C3.71401 19.7318 3.66196 19.6237 3.57947 19.5412L2.68641 18.6491L4.20956 17.1239L5.09953 18.0149C5.18214 18.0976 5.2904 18.1498 5.40658 18.163C5.52275 18.1761 5.63994 18.1493 5.73891 18.0871C6.37394 17.6912 7.07123 17.4053 7.80141 17.2415C7.91579 17.2157 8.01797 17.1517 8.09109 17.06C8.1642 16.9683 8.20389 16.8544 8.20359 16.7372V15.4688Z" fill="#798071"/>
<circle cx="15.5" cy="7.5" r="2.25" stroke="#714EE8" stroke-width="0.5"/>
<circle cx="9.5" cy="23.5" r="4" stroke="#714EE8"/>
<circle cx="25.5" cy="18.5" r="3" stroke="#714EE8"/>
</g>
<defs>
<clipPath id="clip0_129_180">
<rect width="33" height="33" fill="white"/>
</clipPath>
</defs>
</svg>
