<svg width="27" height="27" viewBox="0 0 27 27" fill="none" xmlns="http://www.w3.org/2000/svg">
<path fill-rule="evenodd" clip-rule="evenodd" d="M13.8023 3.8715L16.312 9.10877C16.4351 9.37201 16.6773 9.55602 16.9591 9.6004L22.5765 10.4432C22.8045 10.4755 23.0104 10.5996 23.1485 10.788C23.2865 10.9764 23.3453 11.2135 23.3118 11.4465C23.2836 11.638 23.1939 11.8145 23.0569 11.9481L18.9884 16.0416C18.7828 16.2434 18.6906 16.5377 18.7433 16.8242L19.7237 22.5933C19.7946 23.0686 19.4808 23.5147 19.0178 23.5966C18.8269 23.6272 18.6314 23.5956 18.459 23.5063L13.4494 20.7873C13.1992 20.6463 12.8958 20.6463 12.6455 20.7873L7.60649 23.5263C7.18372 23.7484 6.66509 23.5833 6.43987 23.1551C6.35205 22.9825 6.3211 22.7854 6.35163 22.5933L7.33199 16.8242C7.37941 16.5381 7.288 16.2463 7.0869 16.0416L2.98901 11.9481C2.65389 11.6004 2.65389 11.0417 2.98901 10.694C3.12578 10.5644 3.29582 10.4774 3.47919 10.4432L9.09663 9.6004C9.37711 9.55278 9.61798 9.36977 9.74366 9.10877L12.2534 3.8715C12.3525 3.65914 12.5313 3.49677 12.7491 3.42121C12.9669 3.34565 13.2053 3.3633 13.4102 3.47017C13.5792 3.55791 13.7166 3.69848 13.8023 3.8715Z" fill="#1CB161"/>
</svg>
