<svg width="31" height="32" viewBox="0 0 31 32" fill="none" xmlns="http://www.w3.org/2000/svg">
<path d="M27.5156 24.0625H14.4531L25.4531 20.625V22C25.4531 22.547 25.6704 23.0716 26.0572 23.4584C26.444 23.8452 26.9686 24.0625 27.5156 24.0625Z" fill="#967CEE"/>
<path d="M18.5781 6.1875C19.3375 6.1875 19.9531 5.57189 19.9531 4.8125C19.9531 4.05311 19.3375 3.4375 18.5781 3.4375C17.8187 3.4375 17.2031 4.05311 17.2031 4.8125C17.2031 5.57189 17.8187 6.1875 18.5781 6.1875Z" fill="#967CEE"/>
<path d="M26.8281 9.625H10.3281C10.1458 9.625 9.97092 9.55257 9.84199 9.42364C9.71306 9.2947 9.64062 9.11984 9.64062 8.9375C9.64062 8.75516 9.71306 8.5803 9.84199 8.45136C9.97092 8.32243 10.1458 8.25 10.3281 8.25H26.8281C27.0105 8.25 27.1853 8.32243 27.3143 8.45136C27.4432 8.5803 27.5156 8.75516 27.5156 8.9375C27.5156 9.11984 27.4432 9.2947 27.3143 9.42364C27.1853 9.55257 27.0105 9.625 26.8281 9.625ZM26.8281 12.375H15.8281C15.6458 12.375 15.4709 12.3026 15.342 12.1736C15.2131 12.0447 15.1406 11.8698 15.1406 11.6875C15.1406 11.5052 15.2131 11.3303 15.342 11.2014C15.4709 11.0724 15.6458 11 15.8281 11H26.8281C27.0105 11 27.1853 11.0724 27.3143 11.2014C27.4432 11.3303 27.5156 11.5052 27.5156 11.6875C27.5156 11.8698 27.4432 12.0447 27.3143 12.1736C27.1853 12.3026 27.0105 12.375 26.8281 12.375ZM26.8281 15.125H10.3281C10.1458 15.125 9.97092 15.0526 9.84199 14.9236C9.71306 14.7947 9.64062 14.6198 9.64062 14.4375C9.64062 14.2552 9.71306 14.0803 9.84199 13.9514C9.97092 13.8224 10.1458 13.75 10.3281 13.75H26.8281C27.0105 13.75 27.1853 13.8224 27.3143 13.9514C27.4432 14.0803 27.5156 14.2552 27.5156 14.4375C27.5156 14.6198 27.4432 14.7947 27.3143 14.9236C27.1853 15.0526 27.0105 15.125 26.8281 15.125ZM18.5781 17.875H10.3281C10.1458 17.875 9.97092 17.8026 9.84199 17.6736C9.71306 17.5447 9.64062 17.3698 9.64062 17.1875C9.64062 17.0052 9.71306 16.8303 9.84199 16.7014C9.97092 16.5724 10.1458 16.5 10.3281 16.5H18.5781C18.7605 16.5 18.9353 16.5724 19.0643 16.7014C19.1932 16.8303 19.2656 17.0052 19.2656 17.1875C19.2656 17.3698 19.1932 17.5447 19.0643 17.6736C18.9353 17.8026 18.7605 17.875 18.5781 17.875ZM13.0781 12.375H10.3281C10.1458 12.375 9.97092 12.3026 9.84199 12.1736C9.71306 12.0447 9.64062 11.8698 9.64062 11.6875C9.64062 11.5052 9.71306 11.3303 9.84199 11.2014C9.97092 11.0724 10.1458 11 10.3281 11H13.0781C13.2605 11 13.4353 11.0724 13.5643 11.2014C13.6932 11.3303 13.7656 11.5052 13.7656 11.6875C13.7656 11.8698 13.6932 12.0447 13.5643 12.1736C13.4353 12.3026 13.2605 12.375 13.0781 12.375Z" fill="#967CEE"/>
<path d="M29.5781 0H7.57809C7.39575 0 7.22088 0.0724328 7.09195 0.201364C6.96302 0.330295 6.89059 0.505164 6.89059 0.6875V3.12125L5.65309 2.86C5.56411 2.83981 5.47201 2.83753 5.38215 2.8533C5.29228 2.86907 5.20646 2.90256 5.12967 2.95183C5.05289 3.0011 4.98667 3.06517 4.9349 3.14029C4.88312 3.21541 4.84681 3.30008 4.82809 3.38937L0.0155866 26.2694C-0.00358414 26.3579 -0.00508617 26.4493 0.0111667 26.5383C0.0274196 26.6274 0.0611072 26.7124 0.110295 26.7884C0.159484 26.8644 0.223203 26.93 0.297796 26.9813C0.372389 27.0326 0.456385 27.0687 0.544962 27.0875L22.0912 31.625C22.1797 31.6442 22.2711 31.6457 22.3602 31.6294C22.4493 31.6132 22.5342 31.5795 22.6103 31.5303C22.6863 31.4811 22.7518 31.4174 22.8032 31.3428C22.8545 31.2682 22.8906 31.1842 22.9093 31.0956L24.2362 24.75H27.5156C28.2449 24.75 28.9444 24.4603 29.4601 23.9445C29.9759 23.4288 30.2656 22.7293 30.2656 22V0.6875C30.2656 0.505164 30.1932 0.330295 30.0642 0.201364C29.9353 0.0724328 29.7604 0 29.5781 0ZM21.7062 30.1262L1.51434 25.8844L6.03809 4.345L6.89059 4.52375V24.0625C6.89059 24.2448 6.96302 24.4197 7.09195 24.5486C7.22088 24.6776 7.39575 24.75 7.57809 24.75H22.8337L21.7062 30.1262ZM18.9562 23.375L24.7656 21.56C24.701 22.1887 24.8306 22.8221 25.1368 23.375H18.9562ZM28.8906 22C28.8906 22.3647 28.7457 22.7144 28.4879 22.9723C28.23 23.2301 27.8803 23.375 27.5156 23.375C27.1509 23.375 26.8012 23.2301 26.5433 22.9723C26.2854 22.7144 26.1406 22.3647 26.1406 22C26.1715 21.4734 26.1715 20.9454 26.1406 20.4188C26.1016 20.3276 26.0508 20.2421 25.9893 20.1644C25.9244 20.1069 25.8555 20.054 25.7831 20.0063C25.6752 19.974 25.5648 19.951 25.4531 19.9375C25.4188 19.9343 25.3843 19.9343 25.35 19.9375C25.1437 19.9375 26.3881 19.5938 14.35 23.375H8.26559V1.375H28.8906V22Z" fill="#798071"/>
</svg>
